<svg width="199px" height="230px" viewBox="0 0 199 230" version="1.1" xmlns="http://www.w3.org/2000/svg" xmlns:xlink="http://www.w3.org/1999/xlink">
    <g id="PL" stroke="none" stroke-width="1" fill="none" fill-rule="evenodd">
        <g id="Icons" transform="translate(-485.000000, -3789.000000)" fill="#F4FBFA" fill-rule="nonzero">
            <path d="M684,3894.20996 C684,3900.73461 683.182752,3907.66705 681.548255,3914.59949 C676.644764,3938.25134 664.794661,3959.04865 643.954825,3975.36028 C631.287474,3980.25376 616.577002,3983.1083 601.86653,3983.1083 C577.7577,3983.1083 553.240246,3975.36028 536.895277,3957.41749 C521.367556,3944.36819 526.271047,3922.7553 517.281314,3906.85147 C515.646817,3912.15274 514.420945,3917.04623 514.420945,3921.93972 C514.01232,3946.81494 532.809035,3967.20447 548.336756,3986.77841 C561.412731,3999.01213 582.252567,3992.07969 595.328542,4004.3134 C595.737166,4005.53678 596.145791,4006.76015 595.737166,4007.57573 C595.737166,4012.87701 589.199179,4015.32375 585.521561,4016.13933 C580.209446,4017.77049 575.305955,4018.99386 570.402464,4018.99386 C545.067762,4019.40165 525.045175,3999.41992 507.474333,3978.6226 C497.667351,3957.82528 485,3935.3968 485,3911.33716 C485,3903.58914 486.225873,3895.84112 489.494867,3887.68531 C500.527721,3848.94521 529.948665,3815.91418 563.864476,3793.4857 C573.262834,3790.63116 583.069815,3789 592.468172,3789 C608.813142,3789 624.749487,3793.4857 638.234086,3803.68046 C663.568789,3829.37126 683.591376,3858.73218 683.591376,3894.20996 L684,3894.20996 Z M565.907598,3879.5295 C574.080082,3867.29578 585.112936,3856.28544 599.823409,3856.28544 L601.049281,3856.28544 C597.371663,3855.87765 594.102669,3855.87765 590.425051,3855.87765 C585.521561,3855.87765 580.209446,3856.28544 575.305955,3856.28544 C574.080082,3855.87765 572.854209,3855.87765 571.628337,3855.87765 C554.874743,3868.51915 549.971253,3888.50089 549.971253,3909.29821 C549.971253,3917.86181 550.788501,3926.8332 552.014374,3935.3968 C563.455852,3944.77599 573.671458,3956.60191 588.790554,3956.60191 C591.2423,3956.60191 594.102669,3956.19412 597.371663,3955.37854 C574.488706,3946.40715 558.143737,3926.42541 555.691992,3902.36577 C558.143737,3894.20996 558.960986,3885.64636 565.907598,3879.5295 Z M616.985626,3926.01762 L616.985626,3925.60983 L605.135524,3921.93972 C601.049281,3915.41507 590.833676,3912.15274 590.833676,3904.40472 C590.833676,3903.18135 591.2423,3901.95798 591.650924,3900.73461 C593.694045,3889.72426 605.135524,3892.17101 610.856263,3886.46194 C609.221766,3882.38403 606.361396,3880.75287 603.092402,3880.34508 C596.554415,3880.34508 588.790554,3886.86973 587.156057,3892.17101 C585.930185,3894.61775 585.521561,3897.47228 585.521561,3900.73461 C585.521561,3906.85147 588.38193,3912.96832 591.650924,3917.86181 C596.963039,3921.93972 603.092402,3928.05657 610.039014,3928.05657 C612.082136,3928.05657 614.533881,3927.64878 616.985626,3926.01762 Z M587.564682,3822.43882 C601.86653,3822.43882 614.125257,3827.33231 625.975359,3833.44917 C620.663244,3828.14789 612.899384,3821.62324 605.544148,3819.1765 C602.683778,3817.95313 599.823409,3817.54534 596.963039,3817.54534 C590.016427,3817.13755 583.069815,3819.99208 577.7577,3823.25441 C581.026694,3822.84661 584.295688,3822.43882 587.564682,3822.43882 Z M625.158111,3922.34751 L625.158111,3921.93972 L623.932238,3921.93972 C622.706366,3921.93972 621.889117,3923.16309 621.071869,3924.38646 L621.889117,3924.38646 C623.11499,3924.38646 623.932238,3923.16309 624.749487,3922.34751 L625.158111,3922.34751 Z" id="Ω"></path>
        </g>
    </g>
</svg>