<svg width="199px" height="230px" viewBox="0 0 199 230" version="1.1" xmlns="http://www.w3.org/2000/svg" xmlns:xlink="http://www.w3.org/1999/xlink">
    <g id="PL" stroke="none" stroke-width="1" fill="none" fill-rule="evenodd">
        <g id="Icons" transform="translate(-763.000000, -3798.000000)" fill="#FAFAFA" fill-rule="nonzero">
            <path d="M962,3903.20996 C962,3909.73461 961.182752,3916.66705 959.548255,3923.59949 C954.644764,3947.25134 942.794661,3968.04865 921.954825,3984.36028 C909.287474,3989.25376 894.577002,3992.1083 879.86653,3992.1083 C855.7577,3992.1083 831.240246,3984.36028 814.895277,3966.41749 C799.367556,3953.36819 804.271047,3931.7553 795.281314,3915.85147 C793.646817,3921.15274 792.420945,3926.04623 792.420945,3930.93972 C792.01232,3955.81494 810.809035,3976.20447 826.336756,3995.77841 C839.412731,4008.01213 860.252567,4001.07969 873.328542,4013.3134 C873.737166,4014.53678 874.145791,4015.76015 873.737166,4016.57573 C873.737166,4021.87701 867.199179,4024.32375 863.521561,4025.13933 C858.209446,4026.77049 853.305955,4027.99386 848.402464,4027.99386 C823.067762,4028.40165 803.045175,4008.41992 785.474333,3987.6226 C775.667351,3966.82528 763,3944.3968 763,3920.33716 C763,3912.58914 764.225873,3904.84112 767.494867,3896.68531 C778.527721,3857.94521 807.948665,3824.91418 841.864476,3802.4857 C851.262834,3799.63116 861.069815,3798 870.468172,3798 C886.813142,3798 902.749487,3802.4857 916.234086,3812.68046 C941.568789,3838.37126 961.591376,3867.73218 961.591376,3903.20996 L962,3903.20996 Z M843.907598,3888.5295 C852.080082,3876.29578 863.112936,3865.28544 877.823409,3865.28544 L879.049281,3865.28544 C875.371663,3864.87765 872.102669,3864.87765 868.425051,3864.87765 C863.521561,3864.87765 858.209446,3865.28544 853.305955,3865.28544 C852.080082,3864.87765 850.854209,3864.87765 849.628337,3864.87765 C832.874743,3877.51915 827.971253,3897.50089 827.971253,3918.29821 C827.971253,3926.86181 828.788501,3935.8332 830.014374,3944.3968 C841.455852,3953.77599 851.671458,3965.60191 866.790554,3965.60191 C869.2423,3965.60191 872.102669,3965.19412 875.371663,3964.37854 C852.488706,3955.40715 836.143737,3935.42541 833.691992,3911.36577 C836.143737,3903.20996 836.960986,3894.64636 843.907598,3888.5295 Z M894.985626,3935.01762 L894.985626,3934.60983 L883.135524,3930.93972 C879.049281,3924.41507 868.833676,3921.15274 868.833676,3913.40472 C868.833676,3912.18135 869.2423,3910.95798 869.650924,3909.73461 C871.694045,3898.72426 883.135524,3901.17101 888.856263,3895.46194 C887.221766,3891.38403 884.361396,3889.75287 881.092402,3889.34508 C874.554415,3889.34508 866.790554,3895.86973 865.156057,3901.17101 C863.930185,3903.61775 863.521561,3906.47228 863.521561,3909.73461 C863.521561,3915.85147 866.38193,3921.96832 869.650924,3926.86181 C874.963039,3930.93972 881.092402,3937.05657 888.039014,3937.05657 C890.082136,3937.05657 892.533881,3936.64878 894.985626,3935.01762 Z M865.564682,3831.43882 C879.86653,3831.43882 892.125257,3836.33231 903.975359,3842.44917 C898.663244,3837.14789 890.899384,3830.62324 883.544148,3828.1765 C880.683778,3826.95313 877.823409,3826.54534 874.963039,3826.54534 C868.016427,3826.13755 861.069815,3828.99208 855.7577,3832.25441 C859.026694,3831.84661 862.295688,3831.43882 865.564682,3831.43882 Z M903.158111,3931.34751 L903.158111,3930.93972 L901.932238,3930.93972 C900.706366,3930.93972 899.889117,3932.16309 899.071869,3933.38646 L899.889117,3933.38646 C901.11499,3933.38646 901.932238,3932.16309 902.749487,3931.34751 L903.158111,3931.34751 Z" id="Ω-Copy"></path>
        </g>
    </g>
</svg>