<?xml version="1.0" encoding="UTF-8"?>
<svg width="25px" height="28px" viewBox="0 0 25 28" version="1.1" xmlns="http://www.w3.org/2000/svg" xmlns:xlink="http://www.w3.org/1999/xlink">
    <!-- Generator: Sketch 58 (84663) - https://sketch.com -->
    <title>Group 3</title>
    <desc>Created with Sketch.</desc>
    <defs>
        <polygon id="path-1" points="0 0 25 0 25 29 0 29"></polygon>
    </defs>
    <g id="PL" stroke="none" stroke-width="1" fill="none" fill-rule="evenodd">
        <g id="Icons" transform="translate(-775.000000, -1254.000000)">
            <g id="Group-3" transform="translate(775.000000, 1254.000000)">
                <mask id="mask-2" fill="white">
                    <use xlink:href="#path-1"></use>
                </mask>
                <g id="Clip-2"></g>
                <path d="M7.76799164,13.0490098 C7.76940538,12.3102201 7.62661821,11.6490464 7.38911083,10.963438 C6.90985488,9.57784786 6.55218008,8.14770037 6.17329926,6.72761423 C6.06020051,6.30360066 6.05454558,5.85227773 5.98810006,5.41389081 C5.81562447,4.29133284 6.01778848,3.20902022 6.51966419,2.22875833 C7.15160345,0.98977629 8.08608188,0.0396984143 9.48002398,-0.3354458 C9.68925667,-0.391501832 9.86455973,-0.576917938 10.0752062,-0.641597975 C10.5530484,-0.788206058 11.0422005,-0.995182176 11.5285251,-0.999762443 C12.2240824,-1.00380618 12.9578106,-0.957811488 13.6137833,-0.739336697 C15.1900971,-0.213272397 16.5515233,0.647690761 17.0830875,2.38542775 C17.3842129,3.37143898 17.7376465,4.37182355 17.8210568,5.38658147 C17.9581891,7.04526508 17.4831743,8.58752463 16.3974263,9.87968803 C16.0072356,10.343947 15.5604955,10.7593365 15.1349615,11.1934114 C14.4733338,11.8703958 14.3771999,12.2656627 14.6514643,13.3537247 C16.0114768,13.8165463 17.4110738,14.2621199 18.7894649,14.7723735 C19.6447742,15.0914617 20.4506028,15.5126006 21.1235403,16.1881476 C22.3704541,17.4400657 23.2695891,18.8831492 23.866185,20.5605181 C24.1135885,21.2604999 24.6041544,21.8713669 25,22.5483513 C24.9462781,23.265581 24.5023655,23.790208 23.8944597,24.1897869 C22.5683769,25.0651234 21.2295704,25.8987772 19.7295982,26.4780228 C18.6989859,26.8761644 17.6938207,27.3059273 16.6123139,27.5272768 C16.489319,27.5531488 16.3733928,27.6278902 16.2489842,27.6422635 C15.1858559,27.7644369 14.1213139,27.9383543 13.0539445,27.9785997 C12.0190909,28.0159704 10.9602039,28.0217197 9.94231512,27.8492396 C8.03518744,27.5272768 6.12240483,27.2239993 4.31565229,26.4162175 C3.05036002,25.8499078 2.06922836,24.8739579 0.85907173,24.2357816 C0.440606353,24.0144321 0.0744491488,23.5084905 0.273785696,22.8501914 C0.338817478,22.633154 0.227132462,22.3586232 0.190375368,22.1114017 C0.126757321,21.7031988 -0.0344083985,21.2878092 0.00658989855,20.891105 C0.201685243,18.9823252 0.94955073,17.3150176 2.28977092,15.9466755 C2.46366025,15.7684461 2.69834016,15.6419607 2.92171019,15.5255366 C4.15731404,14.8772989 5.39715909,14.2391225 6.63841787,13.6009462 C7.00316134,13.4140927 7.37638722,13.2401753 7.76799164,13.0490098" id="Fill-1" fill="currentColor" mask="url(#mask-2)"></path>
            </g>
        </g>
    </g>
</svg>