<?xml version="1.0" encoding="UTF-8"?>
<svg width="171px" height="184px" viewBox="0 0 171 184" version="1.1" xmlns="http://www.w3.org/2000/svg" xmlns:xlink="http://www.w3.org/1999/xlink">
    <!-- Generator: Sketch 60.1 (88133) - https://sketch.com -->
    <title>account-created</title>
    <desc>Created with Sketch.</desc>
    <g id="PL" stroke="none" stroke-width="1" fill="none" fill-rule="evenodd">
        <g id="Icons" transform="translate(-1181.000000, -1906.000000)" fill-rule="nonzero">
            <g id="account-created" transform="translate(1181.000000, 1906.000000)">
                <path d="M159,84.167967 C159,89.3876859 158.347023,94.9336372 157.041068,100.479589 C153.123203,119.40107 143.655031,136.038923 127.004107,149.088221 C116.882957,153.00301 105.129363,155.286637 93.37577,155.286637 C74.1129363,155.286637 54.523614,149.088221 41.4640657,134.733994 C29.0574949,124.294556 32.9753593,107.004237 25.7926078,94.2811724 C24.486653,98.522194 23.5071869,102.436983 23.5071869,106.351772 C23.1806982,126.251951 38.1991786,142.563572 50.6057495,158.222729 C61.0533881,168.009702 77.7043121,162.46375 88.1519507,172.250723 C88.4784394,173.229421 88.8049281,174.208118 88.4784394,174.860583 C88.4784394,179.101604 83.2546201,181.058999 80.3162218,181.711464 C76.0718686,183.016393 72.1540041,183.995091 68.2361396,183.995091 C47.9938398,184.321323 31.9958932,168.335934 17.9568789,151.69808 C10.1211499,135.060226 0,117.117443 0,97.8697291 C0,91.6713129 0.979466119,85.4728968 3.59137577,78.9482482 C12.4065708,47.9561673 35.9137577,21.5313404 63.0123203,3.58855673 C70.5215606,1.30492972 78.3572895,0 85.8665298,0 C98.926078,0 111.659138,3.58855673 122.433265,11.7443675 C142.675565,32.2970106 158.673511,55.7857456 158.673511,84.167967 L159,84.167967 Z M64.6447639,72.4235995 C71.174538,62.6366266 79.9897331,53.828351 91.7433265,53.828351 L92.7227926,53.828351 C89.7843943,53.5021186 87.1724846,53.5021186 84.2340862,53.5021186 C80.3162218,53.5021186 76.0718686,53.828351 72.1540041,53.828351 C71.174538,53.5021186 70.1950719,53.5021186 69.2156057,53.5021186 C55.8295688,63.6153239 51.9117043,79.600713 51.9117043,96.238567 C51.9117043,103.089448 52.5646817,110.266561 53.5441478,117.117443 C62.6858316,124.620788 70.8480493,134.081529 82.9281314,134.081529 C84.8870637,134.081529 87.1724846,133.755296 89.7843943,133.102832 C71.5010267,125.925718 58.4414784,109.940329 56.4825462,90.6926156 C58.4414784,84.167967 59.0944559,77.317086 64.6447639,72.4235995 Z M105.455852,109.614097 L105.455852,109.287864 L95.9876797,106.351772 C92.7227926,101.132053 84.5605749,98.522194 84.5605749,92.3237778 C84.5605749,91.3450805 84.8870637,90.3663832 85.2135524,89.3876859 C86.8459959,80.5794103 95.9876797,82.5368049 100.558522,77.9695509 C99.2525667,74.7072266 96.9671458,73.4022968 94.3552361,73.0760644 C89.1314168,73.0760644 82.9281314,78.2957833 81.6221766,82.5368049 C80.6427105,84.4941995 80.3162218,86.7778265 80.3162218,89.3876859 C80.3162218,94.2811724 82.6016427,99.1746588 85.2135524,103.089448 C89.4579055,106.351772 94.3552361,111.245259 99.9055441,111.245259 C101.537988,111.245259 103.49692,110.919026 105.455852,109.614097 Z M81.9486653,26.7510593 C93.37577,26.7510593 103.170431,30.6658485 112.638604,35.5593349 C108.394251,31.3183133 102.190965,26.0985944 96.3141684,24.1411998 C94.0287474,23.1625026 91.7433265,22.8362701 89.4579055,22.8362701 C83.9075975,22.5100377 78.3572895,24.7936647 74.1129363,27.4035242 C76.724846,27.0772917 79.3367556,26.7510593 81.9486653,26.7510593 Z M111.985626,106.678005 L111.985626,106.351772 L111.00616,106.351772 C110.026694,106.351772 109.373717,107.33047 108.720739,108.309167 L109.373717,108.309167 C110.353183,108.309167 111.00616,107.33047 111.659138,106.678005 L111.985626,106.678005 Z" id="Ω-Copy-3" fill="#F4FBFA"></path>
                <g id="Group-3" transform="translate(18.500000, 23.000000)" fill="#149F84">
                    <g id="Fill-1-Clipped">
                        <path d="M39.0292386,68.3072547 C39.0362507,64.715208 38.3280263,61.5005358 37.1499897,58.1670605 C34.7728802,51.4302258 32.9988132,44.4767501 31.1195643,37.5721933 C30.5585945,35.5106101 30.5305461,33.3162469 30.2009763,31.1847795 C29.3454973,25.7268252 30.3482309,20.4645466 32.8375344,15.6984457 C35.9719531,9.67442955 40.6069661,5.05508539 47.5209189,3.23110835 C48.5587131,2.95856006 49.4282163,2.05705417 50.4730225,1.74257537 C52.8431199,1.02975675 55.2693143,0.023424591 57.6814845,-6.23950566e-12 C61.1314487,-0.0185059157 64.7707403,0.205123453 68.0243652,1.26736296 C75.8428818,3.82512386 82.5955558,8.01118611 85.2321139,16.4601832 C86.725696,21.2542378 88.4787266,26.1181766 88.8924418,31.0519995 C89.5726177,39.1166337 87.2165445,46.6152059 81.8312344,52.8977935 C79.8958886,55.1550525 77.6800579,57.1747052 75.569409,59.2852074 C72.2877357,62.5767522 71.8109114,64.498567 73.1712631,69.7887993 C79.916925,72.0390698 86.8589263,74.2054793 93.6957458,76.6863677 C97.9380799,78.2377964 101.93499,80.2854028 105.27276,83.5699592 C111.457452,89.6568711 115.917162,96.6732425 118.876278,104.828726 C120.103399,108.232086 122.536606,111.202163 124.5,114.493708 C124.233539,117.980928 122.031733,120.531701 119.01652,122.474481 C112.439149,126.730427 105.798669,130.78371 98.3588072,133.600042 C93.2469699,135.535834 88.2613508,137.625371 82.8970771,138.701587 C82.2870224,138.827379 81.7120284,139.190776 81.0949616,139.26066 C75.8218454,139.854676 70.5417172,140.700275 65.2475647,140.89595 C60.114691,141.077649 54.8626112,141.105603 49.813883,140.266993 C40.3545297,138.701587 30.8671279,137.227031 21.9056354,133.29954 C15.6297857,130.546103 10.7633727,125.800968 4.76099578,122.69811 C2.68540751,121.621894 0.869267778,119.161971 1.85797705,115.961276 C2.18053469,114.906024 1.62657701,113.571237 1.44426182,112.369229 C1.12871631,110.384518 0.329334344,108.364865 0.532685897,106.436062 C1.50035881,97.1554433 5.20977162,89.0488787 11.8572638,82.395905 C12.7197548,81.5293412 13.8837672,80.9143604 14.9916825,80.3482986 C21.1202776,77.1965221 27.2699091,74.0936647 33.4265527,70.9908072 C35.2356803,70.0823128 37.0868806,69.2367143 39.0292386,68.3072547" id="Fill-1"></path>
                    </g>
                </g>
                <g id="Group-14-Copy" transform="translate(122.000000, 33.000000)" fill="#4DB39F">
                    <g id="Group-3">
                        <g id="Fill-1-Clipped">
                            <path d="M5.6555316,23.6570137 C6.00104721,28.2234579 6.35044501,31.7924536 9.06410127,34.5744 C10.4073417,35.9458918 11.6535272,37.4186869 13.0666472,38.7044605 C14.0876652,39.6395685 15.2523246,40.4499955 16.4558059,41.11626 C19.6819123,42.9124467 23.2845918,43.3215564 26.8562138,43.2942825 C28.9758938,43.2786973 31.3479167,42.9241355 33.1531386,41.9111018 C35.8435017,40.387655 38.3630481,38.3849653 39.7606393,35.384827 C40.1294481,34.5977777 40.7040134,33.9120318 41.1465839,33.1561528 C44.5551536,27.3234164 44.7531457,21.4634061 41.1970525,15.6267734 C40.3468512,14.2280076 39.3374797,12.8915824 38.2271712,11.6915271 C37.1129804,10.4836792 35.8862059,9.31869041 34.5235545,8.42644149 C32.6717461,7.20690475 30.4472468,6.80948384 28.312038,6.36530752 C26.545638,5.99516059 24.5579527,5.48085117 22.9235474,5.94061262 C18.8627685,7.08222368 15.3338507,9.38492723 12.1620951,12.2019402 C11.7428178,12.5720871 11.0750797,12.9889895 10.5975694,12.9149601 C8.45071402,12.5759834 7.68592105,14.0760525 7.29770127,15.5839143 C6.53679051,18.5411934 6.06316237,21.5686057 5.6555316,23.6570137 M1.04736281,24.1713231 C0.694082813,19.6438417 2.26637292,15.1163602 4.40158171,10.8226558 C5.44977512,8.71087018 7.58498391,7.42509663 9.74348589,6.36530752 C11.0168468,5.73410959 12.1853883,4.89640864 13.4276916,4.1989739 C18.0902112,1.59236024 22.6090894,-1.19737874 28.4362683,0.785829559 C32.1243562,2.04043284 35.8784415,2.96385203 38.9803175,5.50033258 C41.4804529,7.53808885 43.5302534,9.93819948 45.4053549,12.5603983 C49.1477936,17.7892107 49.6951835,23.4388218 48.2898279,29.5520906 C47.0281136,35.0809169 44.582329,39.9902341 40.4788459,43.8007993 C36.8062868,47.2061511 32.2330578,49.0296118 27.1202033,48.9992179 C19.2859281,48.9555824 12.7638358,45.9944069 7.67815666,39.9512712 C6.89007051,39.0161632 5.89234567,38.2602842 5.16249248,37.2940059 C1.68404325,32.7002876 1.22206171,31.1963222 1.04736281,24.1713231" id="Fill-1"></path>
                        </g>
                    </g>
                    <path d="M38,22.6029095 C37.8790849,23.8048224 37.7854733,24.6263832 37.7074636,25.4479439 C37.574847,26.855247 37.0560824,27.4029542 35.4997886,27.3877401 C33.4013272,27.3687225 31.3067662,27.197564 29.2083048,27.1138865 C28.3853023,27.0796548 27.5583993,27.110083 26.5325715,27.110083 C26.7041929,28.3918699 26.6456856,29.3807856 26.9850279,30.2137569 C27.5349964,31.5564001 27.0435352,32.6860461 26.544273,33.8271027 C26.0294088,35.002391 25.1947049,35.2876551 23.9699523,34.7133233 C22.4643648,34.0020647 21.567253,32.8343835 21.4697409,31.1342092 C21.3956316,29.9665279 21.2318112,28.8026502 21.1108962,27.6083443 C19.5741047,27.1024759 18.4468643,27.5170598 17.296221,28.2891748 C16.1065728,29.0841109 14.6165872,29.0384686 13.6804706,28.1066057 C12.8301646,27.2622239 12.2411913,25.9652229 12.030565,24.7823276 C11.8550432,23.8124295 12.4323151,22.8235138 13.844291,22.7094081 C15.5839077,22.5724813 17.3079224,22.2605925 19.0475391,22.0475953 C20.9236728,21.8117769 21.0250855,21.7014748 20.8339617,19.8567667 C20.7442505,19.0047778 20.6194349,18.1489853 20.596032,17.2931929 C20.5648281,16.0190131 21.3527263,15.1518101 22.5735784,15.0186868 C23.9660518,14.8627424 25.3741272,15.6995172 25.5379476,16.9052337 C25.6783651,17.9245775 25.6237583,18.962939 25.6783651,19.9936935 C25.7329719,21.0700902 26.0879161,21.7166889 27.4374842,21.6786537 C29.9337952,21.6101903 32.4379071,21.6596361 34.9303176,21.819384 C35.9873493,21.8878474 37.0248785,22.3404665 38,22.6029095" id="Fill-4"></path>
                </g>
            </g>
        </g>
    </g>
</svg>