<?xml version="1.0" encoding="UTF-8"?>
<svg width="20px" height="30px" viewBox="0 0 20 30" version="1.1" xmlns="http://www.w3.org/2000/svg" xmlns:xlink="http://www.w3.org/1999/xlink">
    <!-- Generator: Sketch 54.1 (76490) - https://sketchapp.com -->
    <title>Bold</title>
    <desc>Created with Sketch.</desc>
    <g id="PL" stroke="none" stroke-width="1" fill="none" fill-rule="evenodd">
        <g id="Icons" transform="translate(-481.000000, -1996.000000)" fill="#000000" fill-rule="nonzero">
            <path d="M485.084507,2021.77377 L491.56338,2021.77377 C493.065735,2021.77377 494.259553,2021.48231 495.144869,2020.89938 C496.325291,2020.10825 496.915493,2018.83832 496.915493,2017.08952 C496.915493,2015.34073 496.325291,2014.07773 495.144869,2013.30049 C494.259553,2012.70368 493.065735,2012.40527 491.56338,2012.40527 L485.084507,2012.40527 L485.084507,2021.77377 Z M485.084507,2000.20541 L485.084507,2008.17904 L491.382294,2008.17904 C494.440659,2008.17904 495.969819,2006.85359 495.969819,2004.20264 C495.969819,2001.53781 494.440659,2000.20541 491.382294,2000.20541 L485.084507,2000.20541 Z M497.780684,2010.07356 C499.926905,2011.69744 501,2014.03607 501,2017.08952 C501,2019.79599 500.141524,2021.96113 498.424547,2023.58501 C496.70757,2025.19501 494.420537,2026 491.56338,2026 L481,2026 L481,1996 L491.382294,1996 C494.011415,1996 496.110656,1996.74253 497.68008,1998.22762 C499.249505,1999.71271 500.034205,2001.70436 500.034205,2004.20264 C500.034205,2006.63152 499.283039,2008.58847 497.780684,2010.07356 Z" id="Bold"></path>
        </g>
    </g>
</svg>