<?xml version="1.0" encoding="UTF-8"?>
<svg width="51px" height="35px" viewBox="0 0 51 35" version="1.1" xmlns="http://www.w3.org/2000/svg" xmlns:xlink="http://www.w3.org/1999/xlink">
    <!-- Generator: Sketch 58 (84663) - https://sketch.com -->
    <title>Group 3 Copy 3</title>
    <desc>Created with Sketch.</desc>
    <g id="PL" stroke="none" stroke-width="1" fill="none" fill-rule="evenodd">
        <g id="Icons" transform="translate(-624.000000, -1073.000000)" fill="currentColor">
            <g id="Group-3-Copy-3" transform="translate(624.000000, 1073.000000)">
                <path d="M15.476098,14.7709896 C15.8687045,14.2605436 16.3064781,13.4571908 16.9596641,12.9022093 C17.5920037,12.3677827 18.1878622,11.8128012 18.5422504,11.1087969 C19.0026075,10.1889665 19.2927194,9.18520373 19.6575307,8.21912485 C19.2214943,6.79056141 18.7906695,5.36028506 18.3372612,3.93686034 C18.2834081,3.76214395 18.1444323,3.58742756 17.9985078,3.47094996 C16.5323137,2.3027482 14.9896829,1.51652444 13.092664,2.54426792 C12.8181869,2.69329072 12.5193891,2.79777798 12.244912,2.94337497 C10.8829497,3.6593696 9.93791461,4.62887428 9.59742404,6.2253025 C9.33337012,7.46030758 9.60784722,8.60624156 9.76245773,9.7675917 C9.95528658,11.2012939 10.9159564,12.3951892 11.2929281,13.8083365 C11.5118149,14.6271055 11.8939982,15.399626 12.0381855,16.2697821 C12.201482,17.2649804 11.7637085,17.9313008 11.0775157,18.4691532 C10.5337731,18.8939538 9.8875359,19.1988511 9.26561945,19.5123128 C8.15207629,20.0672943 7.04895632,20.6582468 5.89372045,21.1070281 C3.68053172,21.9686197 3.02560852,23.8562419 2.5461422,25.8603417 C2.43148721,26.3331037 2.67816916,26.9000756 2.53571902,27.3539956 C2.34636457,27.9586514 2.63126484,28.1967453 3.03950609,28.4673844 C3.29661122,28.638675 3.53808158,28.8390849 3.78823792,29.0223659 C5.13109105,29.9935834 6.64245227,30.7181426 8.22156417,31.0864174 C10.2158661,31.5523277 12.2292772,32.1073092 14.3295481,31.9856929 C16.1900859,31.8777798 18.0627841,32.0799027 19.9024755,31.5232083 C20.4427437,31.3587694 20.9847491,31.1463691 21.5302289,31.0264656 C23.2448421,30.6513393 24.7909473,29.9507608 26.3405269,29.0343562 C26.1216401,28.4297004 25.9722411,27.8712932 25.723822,27.3608472 C25.3225295,26.5318008 24.8117937,25.7541416 24.4330848,24.9165306 C23.9987856,23.9538776 23.323016,23.2532991 22.3849297,22.7891016 C20.4410065,21.8281615 18.5109808,20.8346761 16.5288393,19.9525296 C15.8652301,19.6579098 15.6567665,19.2022769 15.6185482,18.6250276 C15.5351627,17.4140032 15.5230023,16.199553 15.476098,14.7709896 M9.54530813,16.7425441 C9.54704533,15.8621106 9.37158845,15.0741739 9.07973939,14.2571178 C8.49082967,12.6058766 8.05131888,10.9015353 7.58575013,9.20918441 C7.44677439,8.7038772 7.4398256,8.16602477 7.35817735,7.6435885 C7.14623934,6.30580907 7.39465849,5.015991 8.01136335,3.84778924 C8.78789032,2.37126443 9.93617741,1.2390337 11.6490535,0.791965281 C11.9061586,0.725161955 12.121571,0.504197106 12.3804133,0.427116345 C12.9675858,0.252399953 13.5686559,0.00574151678 14.1662516,0.000283102709 C15.0209525,-0.00453591805 15.9225576,0.0502770677 16.7286169,0.31063875 C18.6655914,0.937562275 20.3385119,1.96359285 20.9916979,4.03449597 C21.3617208,5.20954935 21.79602,6.40173179 21.8985146,7.61104329 C22.0670227,9.58773659 21.4833246,11.4256845 20.1491574,12.9655868 C19.6696911,13.5188554 19.1207369,14.0138852 18.5978407,14.5311827 C17.7848326,15.3379614 17.6667032,15.8090105 18.0037194,17.1056802 C19.6749027,17.6572358 21.3947275,18.1882366 23.0884944,18.7963182 C24.1394985,19.1765833 25.1297007,19.6784647 25.9566064,20.4835304 C27.4888139,21.9754714 28.5936711,23.6952288 29.3267682,25.6941899 C29.6307776,26.528375 30.2335849,27.25636 30.72,28.0631386 C30.6539865,28.9178786 30.1085067,29.5430892 29.3615121,30.019277 C27.7320215,31.0624367 26.0868961,32.055922 24.2437303,32.7462231 C22.9773138,33.220698 21.7421669,33.7328568 20.4132114,33.9966443 C20.2620752,34.0274766 20.1196251,34.1165477 19.9667518,34.1336768 C18.6603798,34.2792738 17.3522706,34.4865354 16.040687,34.5344967 C14.7690589,34.5790323 13.4678985,34.5858839 12.2171168,34.3803352 C9.87363833,33.9966443 7.52321105,33.6352212 5.30307353,32.6725681 C3.74828239,31.9976832 2.54266781,30.8346202 1.05562734,30.07409 C0.541417087,29.8103025 0.091483114,29.2073597 0.336427864,28.4228488 C0.416338917,28.1642 0.279100369,27.837035 0.233933252,27.5424152 C0.155759396,27.05595 -0.04228104,26.5609202 0.00809766734,26.0881582 C0.247830827,23.8134193 1.16680794,21.8264486 2.81367051,20.1957622 C3.02734572,19.9833619 3.31572039,19.8326262 3.59019748,19.6938808 C5.10850749,18.9213603 6.63202909,18.1608301 8.15728788,17.4003 C8.60548466,17.1776222 9.06410462,16.9703606 9.54530813,16.7425441" id="Fill-1"></path>
                <path d="M28.7340686,8.84643544 C28.9139518,8.56497208 29.1145296,8.12199788 29.4138042,7.81597731 C29.7035276,7.52129085 29.9765362,7.21527028 30.1389086,6.82707753 C30.3498336,6.31987679 30.4827561,5.76639515 30.6499042,5.23369269 C30.4501224,4.4459731 30.2527285,3.657309 30.0449873,2.87242293 C30.020313,2.77608312 29.9566376,2.67974331 29.8897783,2.61551677 C29.2180022,1.97136238 28.5112045,1.53783325 27.6420344,2.104538 C27.5162754,2.18671018 27.3793731,2.24432517 27.2536141,2.32460834 C26.6295945,2.71941264 26.1966013,3.25400412 26.0405965,4.13428549 C25.9196131,4.81527569 26.0453721,5.44715148 26.1162111,6.08752784 C26.2045608,6.87808096 26.6447174,7.53640297 26.8174371,8.315622 C26.917726,8.76709678 27.0928335,9.19306984 27.1588968,9.67287986 C27.2337155,10.221639 27.0331378,10.5890525 26.7187402,10.885628 C26.4696099,11.119866 26.173519,11.2879884 25.8885713,11.4608333 C25.3783716,11.7668539 24.8729476,12.0927091 24.3436453,12.3401702 C23.3296135,12.8152577 23.0295429,13.8561054 22.8098625,14.9611796 C22.7573303,15.2218638 22.8703542,15.5344959 22.8050869,15.7847905 C22.718329,16.1182018 22.8488637,16.2494884 23.0359104,16.3987207 C23.15371,16.4931715 23.2643462,16.6036789 23.378962,16.7047412 C23.9942262,17.2402772 24.6866969,17.6398041 25.4102093,17.8428733 C26.3239523,18.0997794 27.2464506,18.4058 28.2087461,18.3387399 C29.0612013,18.2792359 29.9192282,18.3906878 30.7621322,18.0837228 C31.0096706,17.99305 31.2580049,17.875931 31.5079311,17.8098155 C32.2935272,17.6029683 33.0019167,17.2166645 33.7118982,16.7113528 C33.6116093,16.3779415 33.5431582,16.0700319 33.4293383,15.7885686 C33.2454754,15.3314267 33.011468,14.9026201 32.8379524,14.4407558 C32.6389666,13.9099423 32.3293446,13.5236386 31.8995352,13.267677 C31.0088746,12.737808 30.1245816,12.1899934 29.2164103,11.7035719 C28.9123599,11.5411165 28.8168467,11.2898774 28.799336,10.9715782 C28.7611307,10.3038111 28.7555591,9.63415504 28.7340686,8.84643544 M25.4080964,9.92150764 C25.4091098,9.39976922 25.3067599,8.93284378 25.1365146,8.44866241 C24.792984,7.47014911 24.5366027,6.46016909 24.2650209,5.45729446 C24.1839517,5.15785315 24.1798983,4.83912579 24.1322701,4.52953393 C24.0086396,3.73677574 24.1535508,2.97243911 24.5132953,2.2801714 C24.9662694,1.40519374 25.6361035,0.73424219 26.6352812,0.469312759 C26.7852592,0.429725603 26.9109164,0.29878347 27.0619078,0.253105982 C27.4044251,0.149570342 27.7550493,0.00340238031 28.1036468,0.000167764568 C28.6022223,-0.00268795144 29.1281586,0.0297938179 29.5983599,0.184082222 C30.7282616,0.555592459 31.7041319,1.16361058 32.0851571,2.39081243 C32.3010038,3.08714036 32.554345,3.79361884 32.6141335,4.51024788 C32.7124299,5.68162168 32.3719393,6.77077601 31.5936752,7.68331072 C31.3139865,8.01117358 30.9937632,8.30452456 30.6887404,8.61107126 C30.2144857,9.0891623 30.1455769,9.3683025 30.3421696,10.1366994 C31.3170266,10.4635472 32.3202577,10.7782143 33.3082884,11.1385589 C33.9213741,11.3639012 34.4989921,11.6613124 34.9813537,12.1383884 C35.8751415,13.0225016 36.5196415,14.0416171 36.9472814,15.2261866 C37.1246203,15.7205185 37.4762579,16.151917 37.76,16.6300081 C37.7214921,17.1365207 37.4032956,17.5070158 36.9675487,17.7892012 C36.0170125,18.4073699 35.0573561,18.9961019 33.982176,19.4051692 C33.2434331,19.6863395 32.5229307,19.9898411 31.7477066,20.1461596 C31.6595439,20.1644306 31.576448,20.2172135 31.4872719,20.227364 C30.7252215,20.3136437 29.9621578,20.4364654 29.1970674,20.464887 C28.4552844,20.4912784 27.6962741,20.4953386 26.9666515,20.373532 C25.5996224,20.1461596 24.2285398,19.9319829 22.9334596,19.3615219 C22.0264981,18.9615901 21.3232229,18.2723675 20.4557826,17.821683 C20.1558266,17.6653645 19.8933651,17.308065 20.0362496,16.8431697 C20.0828644,16.6898963 20.0028085,16.4960208 19.9764611,16.3214313 C19.9308596,16.0331556 19.8153361,15.7398046 19.8447236,15.4596493 C19.984568,14.1116559 20.520638,12.9341917 21.4813078,11.9678591 C21.6059517,11.8419922 21.7741702,11.7526674 21.9342819,11.6704479 C22.8199627,11.212658 23.7086836,10.7619734 24.5984179,10.3112889 C24.8598661,10.1793317 25.1273944,10.05651 25.4080964,9.92150764" id="Fill-1"></path>
                <path d="M40.5786163,16.3132559 C40.9684118,15.9634252 41.3357191,15.6001395 41.5541759,15.1393048 C41.8379556,14.5371923 42.0167903,13.8801385 42.2416723,13.2477523 C41.9728848,12.3126279 41.7073098,11.3763823 41.4278136,10.4446217 C41.3946168,10.3302539 41.3089474,10.2158862 41.2189946,10.139641 C40.3151831,9.37494702 39.3642534,8.86029224 38.194867,9.53304358 C38.02567,9.63059253 37.8414809,9.69898892 37.672284,9.79429536 C36.8327245,10.2629788 36.250173,10.8976076 36.0402831,11.9426147 C35.8775113,12.7510375 36.0467083,13.5011553 36.1420154,14.2613643 C36.2608816,15.1998524 36.8530709,15.9813652 37.085449,16.9063983 C37.2203782,17.4423569 37.4559689,17.9480417 37.5448508,18.5176378 C37.6455123,19.1690854 37.3756539,19.6052525 36.9526615,19.9573257 C36.6174803,20.2353962 36.2191178,20.4349791 35.8357475,20.6401683 C35.149322,21.003454 34.4693216,21.3902861 33.7571952,21.6840541 C32.392911,22.248044 31.9891942,23.483664 31.693635,24.7955291 C31.6229578,25.1049947 31.7750209,25.4761292 31.6872098,25.7732611 C31.5704853,26.1690631 31.7461075,26.3249172 31.9977612,26.502075 C32.1562495,26.6142003 32.3050999,26.7453868 32.4593047,26.8653608 C33.2870847,27.5011108 34.2187388,27.9754005 35.1921566,28.2164697 C36.4215116,28.5214503 37.6626462,28.884736 38.9573241,28.8051271 C40.1042223,28.7344882 41.2586167,28.866796 42.3926645,28.502389 C42.7257041,28.3947488 43.0598145,28.2557135 43.3960667,28.1772259 C44.4530121,27.9316716 45.4060835,27.4730795 46.3612967,26.8732095 C46.2263674,26.4774075 46.1342729,26.1118792 45.981139,25.7777461 C45.7337688,25.23506 45.4189339,24.7260115 45.185485,24.1777191 C44.9177683,23.5475754 44.5012011,23.0889832 43.9229331,22.7851238 C42.7246332,22.1561013 41.5349003,21.505775 40.3130414,20.9283301 C39.9039703,20.7354747 39.7754663,20.4372216 39.7519072,20.0593596 C39.7005056,19.2666343 39.6930095,18.4716665 39.6640961,17.5365421 C39.906112,17.2024089 40.1759704,16.6765416 40.5786163,16.3132559 Z M35.5612599,18.8018845 C35.5624904,18.1497115 35.4382085,17.5660547 35.2314821,16.960828 C34.8143377,15.7376864 34.5030175,14.4752114 34.1732397,13.2216181 C34.0747985,12.8473164 34.0698765,12.4489072 34.0120423,12.0619174 C33.8619195,11.0709697 34.0378831,10.1155489 34.4747157,9.25021425 C35.0247556,8.15649217 35.8381257,7.31780274 37.0514129,6.98664095 C37.233529,6.937157 37.3861128,6.77347934 37.5694594,6.71638248 C37.9853733,6.58696293 38.4111313,6.40425298 38.8344282,6.40020971 C39.4398413,6.39664006 40.0784783,6.43724227 40.649437,6.63010278 C42.0214605,7.09449057 43.2064459,7.85451322 43.6691193,9.38851553 C43.9312189,10.2589254 44.2388475,11.1420236 44.3114479,12.0378098 C44.4308078,13.5020271 44.0173549,14.86347 43.0723199,16.0041384 C42.7326979,16.413967 42.3438553,16.7806557 41.9734705,17.1638391 C41.3975897,17.7614529 41.3139148,18.1103781 41.5526346,19.0708742 C42.7363894,19.479434 43.9545987,19.8727679 45.1543502,20.3231987 C45.8988114,20.6048765 46.6002046,20.9766405 47.1859295,21.5729855 C48.2712432,22.6781269 49.0538504,23.9520213 49.5731274,25.4327332 C49.7884675,26.0506482 50.215456,26.5898963 50.56,27.1875101 C50.5132405,27.8206508 50.1268589,28.2837698 49.5977377,28.6365015 C48.4435152,29.4092123 47.2782181,30.1451274 45.9726423,30.6564615 C45.0755973,31.0079244 44.2007016,31.3873013 43.259358,31.5826995 C43.1523033,31.6055382 43.0514011,31.6715168 42.9431158,31.684205 C42.017769,31.7920546 41.0911917,31.9455818 40.1621533,31.9811087 C39.2614167,32.014098 38.3397615,32.0191733 37.4537911,31.866915 C35.7938271,31.5826995 34.1289412,31.3149787 32.5563438,30.6019023 C31.4550334,30.1019876 30.6010564,29.2404594 29.547736,28.6771037 C29.1835038,28.4817056 28.8648005,28.0350812 29.0383031,27.4539621 C29.0949067,27.2623704 28.9976961,27.020026 28.9657027,26.8017891 C28.9103296,26.4414444 28.7700509,26.0747557 28.8057358,25.7245616 C28.9755468,24.0395699 29.626489,22.5677397 30.7930166,21.3598239 C30.9443699,21.2024903 31.1486353,21.0908342 31.3430565,20.9880599 C32.4185261,20.4158225 33.4976873,19.8524668 34.5780789,19.2891111 C34.8955516,19.1241646 35.2204074,18.9706375 35.5612599,18.8018845" id="Fill-1"></path>
            </g>
        </g>
    </g>
</svg>