<?xml version="1.0" encoding="UTF-8"?>
<svg width="31px" height="35px" viewBox="0 0 31 35" version="1.1" xmlns="http://www.w3.org/2000/svg" xmlns:xlink="http://www.w3.org/1999/xlink">
    <!-- Generator: Sketch 58 (84663) - https://sketch.com -->
    <title>Group 12</title>
    <desc>Created with Sketch.</desc>
    <defs>
        <polygon id="path-1" points="0 0.5 31 0.5 31 34.5 0 34.5"></polygon>
    </defs>
    <g id="PL" stroke="none" stroke-width="1" fill="none" fill-rule="evenodd">
        <g id="Icons" transform="translate(-624.000000, -1251.000000)">
            <g id="Group-12" transform="translate(624.000000, 1251.000000)">
                <mask id="mask-2" fill="white">
                    <use xlink:href="#path-1"></use>
                </mask>
                <g id="Clip-11"></g>
                <path d="M5.347861,23.6910338 C5.0177661,24.91168 4.71356099,26.0300557 4.47569849,26.9158489 C5.04203778,27.446995 5.47730998,27.7950441 5.83976712,28.2123731 C6.34785437,28.7996028 6.82357937,29.0239378 7.34137529,28.7303229 C8.31224264,28.1777331 9.2572202,27.5789567 10.2701585,26.9669841 C8.48052632,26.1702651 7.37859187,24.3673378 5.347861,23.6910338 M10.580836,24.6065184 C10.8607694,24.8292039 11.1148131,25.0337446 11.3720929,25.2366358 C11.9869756,25.7232447 12.0840623,25.7215952 12.6293661,25.1887996 C13.1164179,24.7120878 13.5905248,24.2205303 14.0808128,23.7487671 C14.4465062,23.397419 14.8785422,23.1087526 15.1989284,22.7227645 C16.1568508,21.5779964 17.0872654,20.4068359 18.0031169,19.2257783 C18.4934049,18.595661 18.9076417,17.9045114 19.4011659,17.2776931 C20.3493797,16.0784907 21.2522863,14.8281532 22.3105317,13.7345203 C24.3072823,11.669319 26.0710246,9.40947411 27.8315308,7.1463302 C27.9917239,6.94013998 28.0629208,6.44528344 27.9334718,6.26713509 C27.7263535,5.98341734 27.3331522,5.90094125 26.9836399,6.22754656 C26.5046787,6.67786601 25.9561387,7.05725603 25.5127759,7.53726687 C23.943207,9.23132576 22.4043823,10.9567256 20.8526126,12.6672797 C20.8056874,12.7217139 20.7377266,12.7563538 20.6827108,12.80419 C19.4998708,13.8466877 18.3542473,14.9238255 17.3963248,16.1956068 C16.9108912,16.8455184 16.3914771,17.4805843 15.8121929,18.0414217 C13.9287103,19.8641433 12.5306613,22.0942967 10.8575332,24.0902181 C10.7458835,24.2238294 10.6876314,24.4069263 10.580836,24.6065184 M7.1180758,22.1784223 C7.53393065,22.4951305 7.8575531,22.7903949 8.22324647,23.0130804 C8.84945591,23.3924704 9.0727554,23.32484 9.4950827,22.7475074 C10.0517133,21.9887273 10.5986353,21.2200502 11.1795376,20.4810644 C11.7183689,19.7998119 12.2895626,19.1449518 12.85752,18.4900916 C13.6601036,17.5630604 14.4740141,16.6459262 15.279834,15.722194 C15.5419682,15.418682 15.7604133,15.0689834 16.0516736,14.8001113 C17.5322463,13.4359568 18.9319134,12.01077 20.166533,10.3925891 C20.930282,9.39627794 21.9707282,8.60945604 22.7846386,7.62634105 C23.6147302,6.62343179 24.4496761,5.62547111 25.3525828,4.53843624 C24.5823614,4.11450914 23.9480613,3.76646004 23.2102022,3.36067768 C22.891434,3.82584283 22.6422448,4.27121371 22.3153861,4.64400564 C20.7975968,6.38425113 19.1018151,7.9710911 17.8849947,9.97031152 C17.8283608,10.0626847 17.7328922,10.1303151 17.658459,10.2127912 C15.106696,13.0549173 12.5436062,15.8887957 10.0080243,18.7457675 C9.03392071,19.8394004 8.11968729,20.9858181 7.1180758,22.1784223 M0,33.576618 C0.487051788,32.2949395 1.00970205,31.079242 1.41423011,29.8223064 C1.98542373,28.0441219 2.47732986,26.236246 2.98541711,24.4366177 C3.22489772,23.5887635 3.38185461,22.7145169 3.67635104,21.8881065 C3.79932757,21.5433565 4.16663905,21.2744844 4.45466303,21.0105609 C4.9659865,20.5486948 5.52423523,20.1429124 6.02099569,19.6662006 C7.57114723,18.1684349 8.70382581,16.3028257 10.1892529,14.7440276 C11.4416717,13.4277092 12.627748,12.048709 13.8478047,10.7010497 C14.9723927,9.4540112 16.1471422,8.24986029 17.2215687,6.9566352 C18.4480978,5.48196271 19.5872488,3.93141222 20.7619983,2.41055312 C20.9755891,2.13343346 21.2005067,1.85961284 21.3817353,1.55775035 C21.8995312,0.704947585 22.5564848,0.37009466 23.4788088,0.544943971 C23.6082578,0.568037276 23.7247619,0.676905715 23.8428841,0.754433239 C25.2927126,1.72600158 26.7376869,2.70251848 28.1923698,3.66748873 C28.8930124,4.13100436 29.6243991,4.54503433 30.3153331,5.02009661 C31.1195349,5.57433593 31.208531,6.02795443 30.6179201,6.83457059 C28.9075754,9.17194297 27.2797545,11.5653991 25.2684409,13.6784365 C23.6535649,15.3691964 22.3331853,17.343674 20.8170141,19.1350546 C18.6827241,21.6538744 16.8283674,24.4234215 14.2830769,26.5727484 C13.8494228,26.9389423 13.5241822,27.4568921 13.2021779,27.943501 C12.8979728,28.4037176 12.5274251,28.7550658 11.9772669,28.7435191 C11.1520296,28.7237248 10.522584,29.1624976 9.87695719,29.56828 C8.42389239,30.4738675 6.99995361,31.423992 5.53718013,32.3147338 C4.47893472,32.9580473 3.40289007,33.5848656 2.28962884,34.1226097 C1.07119031,34.714788 1.05015485,34.6653024 0,33.576618" id="Fill-10" fill="#525252" mask="url(#mask-2)"></path>
            </g>
        </g>
    </g>
</svg>