<?xml version="1.0" encoding="UTF-8"?>
<svg width="28px" height="31px" viewBox="0 0 28 31" version="1.1" xmlns="http://www.w3.org/2000/svg" xmlns:xlink="http://www.w3.org/1999/xlink">
    <!-- Generator: Sketch 59.1 (86144) - https://sketch.com -->
    <title>Fill 1</title>
    <desc>Created with Sketch.</desc>
    <g id="PL" stroke="none" stroke-width="1" fill="none" fill-rule="evenodd">
        <g id="Icons" transform="translate(-764.000000, -1089.000000)" fill="#FFFFFF">
            <path d="M775,1114 C775,1116.75528 775,1116 775.34273,1118.0216 C775.459286,1118.70911 774.793456,1119.12769 774,1119 C772.238259,1118.71693 770.577847,1119.68155 768.823577,1119.60309 C768.38725,1119.58155 767.937476,1119.86616 767.525058,1120 C766.565738,1119.20464 766.235505,1118.27236 766.193666,1117.0601 C766.132401,1115.31092 765.81711,1113.56944 765.60343,1111.82488 C765.422624,1110.34493 765.264232,1108.8619 765.037103,1107.38964 C764.760663,1105.61586 764.422959,1103.8513 764.113646,1102.08213 C764.077783,1101.87752 764.031461,1101.67291 764.01353,1101.46522 C763.949276,1100.67294 765.554708,1099.50614 766,1099 C767.219322,1097.61851 768.971509,1096.90691 770.196808,1095.53157 C770.848309,1094.79929 771.508775,1094.08854 772.099011,1093.29165 C772.463612,1092.79782 773.056836,1092.37014 773.499139,1091.87169 C774.086387,1091.20864 774.646737,1090.51328 775.159271,1089.78868 C775.825714,1088.84718 776.566871,1088.73949 777.430557,1089.51485 C778.823214,1090.76865 780.081388,1092.1363 781.237951,1093.63163 C782.289915,1094.99159 783.554065,1096.17617 784.715111,1097.44689 C785.405462,1098.19918 786.055469,1098.993 786.76674,1099.72374 C787.431689,1100.40834 788,1101 789,1102 C789.207476,1102.20748 789.974932,1104.25436 790.215509,1105.07741 C790.627927,1106.4989 790.677238,1108.55389 791,1110 C791.375061,1111.67687 791.011619,1112.75101 790.999665,1114.48326 C790.993688,1115.30169 790.944377,1116.1232 790.859204,1116.93549 C790.748628,1118.00314 790.961149,1118.49697 789.982404,1118.12468 C789.628262,1117.99084 789.302512,1118.0016 788.931934,1118.00622 C787.670772,1118.02622 786.406622,1117.88622 785.14546,1117.90622 C784.411775,1117.91699 783.678089,1118.09083 782.951875,1118.2339 C782.23911,1118.37544 781.351515,1117.84161 781.353009,1117.1124 C781.358986,1115.18477 781,1114.89983 781,1113 C781,1112 781.139664,1110.59262 780.928972,1110.16801 C780.825868,1109.95879 780.538968,1109.71111 780.334254,1109.71111 C779.203093,1109.71265 776.070439,1109.78495 774.937784,1109.83879 C774.879507,1109.84187 774.825714,1109.9111 774.632953,1110.0434 C774.863071,1111.15414 775,1113 775,1114 Z" id="Fill-1"></path>
        </g>
    </g>
</svg>