<?xml version="1.0" encoding="UTF-8"?>
<svg width="23px" height="29px" viewBox="0 0 23 29" version="1.1" xmlns="http://www.w3.org/2000/svg" xmlns:xlink="http://www.w3.org/1999/xlink">
    <!-- Generator: Sketch 54.1 (76490) - https://sketchapp.com -->
    <title>Italic</title>
    <desc>Created with Sketch.</desc>
    <g id="PL" stroke="none" stroke-width="1" fill="none" fill-rule="evenodd">
        <g id="Icons" transform="translate(-625.000000, -1996.000000)" fill="#000000" fill-rule="nonzero">
            <path d="M648,1996.33333 C648,1996.58333 647.829631,1996.70833 647.488889,1996.70833 C647.318518,1996.70833 647.176544,1996.69444 647.062963,1996.66667 L646.381481,1996.66667 C645.160488,1996.66667 644.408026,1996.88889 644.124074,1997.33333 C643.698146,1997.97223 643.073461,1999.31943 642.25,2001.375 L633.688889,2022.83333 C633.632098,2023 633.561112,2023.19444 633.475926,2023.41667 C633.475926,2023.91667 634.043821,2024.23611 635.17963,2024.375 C635.548767,2024.375 635.988886,2024.38889 636.5,2024.41667 C636.869138,2024.44444 637.053704,2024.54167 637.053704,2024.70833 C637.053704,2024.90278 636.85494,2025 636.457407,2025 C634.412953,2024.97222 631.474093,2024.95833 627.640741,2024.95833 C626.306166,2024.95833 625.532408,2024.94444 625.319444,2024.91667 C625.10648,2024.88889 625,2024.80556 625,2024.66667 C625,2024.47222 625.383329,2024.375 626.15,2024.375 C627.200623,2024.34722 627.896295,2024.27778 628.237037,2024.16667 C628.776546,2023.97222 629.174073,2023.66667 629.42963,2023.25 C629.685186,2022.63889 629.983332,2021.91667 630.324074,2021.08333 L638.62963,2000.66667 C639.453091,1998.63888 639.864815,1997.52778 639.864815,1997.33333 C639.864815,1996.86111 639.424696,1996.625 638.544444,1996.625 L636.840741,1996.625 C636.528393,1996.625 636.372222,1996.51389 636.372222,1996.29167 C636.372222,1996.09722 636.528393,1996 636.840741,1996 L637.224074,1996 C637.394445,1996.02778 638.07592,1996.04167 639.268519,1996.04167 L645.614815,1996 C645.785186,1996.02778 645.92716,1996.04167 646.040741,1996.04167 L647.616667,1996 C647.872224,1996 648,1996.11111 648,1996.33333 Z" id="Italic"></path>
        </g>
    </g>
</svg>