<?xml version="1.0" encoding="UTF-8"?>
<svg width="60px" height="69px" viewBox="0 0 60 69" version="1.1" xmlns="http://www.w3.org/2000/svg" xmlns:xlink="http://www.w3.org/1999/xlink">
    <!-- Generator: Sketch 58 (84663) - https://sketch.com -->
    <title>Ω Copy 2</title>
    <desc>Created with Sketch.</desc>
    <g id="PL" stroke="none" stroke-width="1" fill="none" fill-rule="evenodd">
        <g id="Icons" transform="translate(-473.000000, -1420.000000)" fill="#98D0C6" fill-rule="nonzero">
            <path d="M533,1451.56299 C533,1453.52038 532.753593,1455.60011 532.26078,1457.67985 C530.782341,1464.7754 527.209446,1471.0146 520.926078,1475.90808 C517.106776,1477.37613 512.671458,1478.23249 508.23614,1478.23249 C500.967146,1478.23249 493.574949,1475.90808 488.646817,1470.52525 C483.965092,1466.61046 485.443532,1460.12659 482.73306,1455.35544 C482.240246,1456.94582 481.870637,1458.41387 481.870637,1459.88191 C481.747433,1467.34448 487.414784,1473.46134 492.096509,1479.33352 C496.039014,1483.00364 502.322382,1480.92391 506.264887,1484.59402 C506.38809,1484.96103 506.511294,1485.32804 506.38809,1485.57272 C506.38809,1487.1631 504.416838,1487.89712 503.308008,1488.1418 C501.706366,1488.63115 500.227926,1488.99816 498.749487,1488.99816 C491.110883,1489.1205 485.073922,1483.12598 479.776181,1476.88678 C476.819302,1470.64758 473,1463.91904 473,1456.70115 C473,1454.37674 473.36961,1452.05234 474.355236,1449.60559 C477.681725,1437.98356 486.552361,1428.07425 496.778234,1421.34571 C499.61191,1420.48935 502.568789,1420 505.402464,1420 C510.330595,1420 515.135524,1421.34571 519.201232,1424.40414 C526.839836,1432.11138 532.876797,1440.91965 532.876797,1451.56299 L533,1451.56299 Z M497.68,1447.04453 C500.08,1443.40081 503.32,1440.12146 507.64,1440.12146 L508,1440.12146 C506.92,1440 505.96,1440 504.88,1440 C503.44,1440 501.88,1440.12146 500.44,1440.12146 C500.08,1440 499.72,1440 499.36,1440 C494.44,1443.76518 493,1449.7166 493,1455.91093 C493,1458.46154 493.24,1461.1336 493.6,1463.68421 C496.96,1466.47773 499.96,1470 504.4,1470 C505.12,1470 505.96,1469.87854 506.92,1469.63563 C500.2,1466.96356 495.4,1461.01215 494.68,1453.84615 C495.4,1451.417 495.64,1448.8664 497.68,1447.04453 Z M513,1461.40171 L513,1461.28205 L509.61039,1460.20513 C508.441558,1458.2906 505.519481,1457.33333 505.519481,1455.05983 C505.519481,1454.70085 505.636364,1454.34188 505.753247,1453.98291 C506.337662,1450.75214 509.61039,1451.47009 511.246753,1449.79487 C510.779221,1448.59829 509.961039,1448.11966 509.025974,1448 C507.155844,1448 504.935065,1449.91453 504.467532,1451.47009 C504.116883,1452.18803 504,1453.02564 504,1453.98291 C504,1455.77778 504.818182,1457.57265 505.753247,1459.00855 C507.272727,1460.20513 509.025974,1462 511.012987,1462 C511.597403,1462 512.298701,1461.88034 513,1461.40171 Z M504.050847,1430.54692 C508.5,1430.54692 512.313559,1432.08162 516,1434 C514.347458,1432.33741 511.932203,1430.29114 509.644068,1429.52379 C508.754237,1429.14011 507.864407,1429.01222 506.974576,1429.01222 C504.813559,1428.88433 502.652542,1429.77957 501,1430.8027 C502.016949,1430.67481 503.033898,1430.54692 504.050847,1430.54692 Z M515,1460.16667 L515,1460 L514.7,1460 C514.4,1460 514.2,1460.5 514,1461 L514.2,1461 C514.5,1461 514.7,1460.5 514.9,1460.16667 L515,1460.16667 Z" id="Ω-Copy-2"></path>
        </g>
    </g>
</svg>