<?xml version="1.0" encoding="UTF-8"?>
<svg width="28px" height="32px" viewBox="0 0 28 32" version="1.1" xmlns="http://www.w3.org/2000/svg" xmlns:xlink="http://www.w3.org/1999/xlink">
    <!-- Generator: Sketch 60.1 (88133) - https://sketch.com -->
    <title>mainsite-icon-light</title>
    <desc>Created with Sketch.</desc>
    <g id="PL" stroke="none" stroke-width="1" fill="none" fill-rule="evenodd">
        <g id="Icons" transform="translate(-1103.000000, -1089.000000)" fill="#FFFFFF" fill-rule="nonzero">
            <g id="mainsite-icon-light" transform="translate(1103.000000, 1089.000000)">
                <path d="M28,14.6379082 C28,15.5456832 27.8850101,16.5101957 27.6550307,17.4747128 C26.9650925,20.7654026 25.2977415,23.6589446 22.3655031,25.9283845 C20.5831621,26.6092193 18.5133471,27.0063718 16.443532,27.0063718 C13.0513348,27.0063718 9.60164287,25.9283845 7.30184793,23.4319996 C5.11704293,21.6164449 5.8069816,18.6094328 4.54209467,16.3967255 C4.3121148,17.1342931 4.1396306,17.8151278 4.1396306,18.495958 C4.0821354,21.95686 6.7268992,24.7936645 8.9117042,27.5169944 C10.7515399,29.219079 13.6837783,28.2545665 15.5236139,29.9566465 C15.5811087,30.126854 15.6386039,30.2970616 15.5811087,30.4105363 C15.5811087,31.1481039 14.6611911,31.4885189 14.1437371,31.6019937 C13.3963041,31.8289386 12.7063655,31.9991462 12.0164273,31.9991462 C8.4517454,32.0558836 5.63449693,29.2758164 3.1622178,26.3822744 C1.78234093,23.4887324 0,20.3682501 0,17.0208229 C0,15.9428357 0.172484667,14.8648531 0.632443467,13.7301285 C2.184805,8.34020161 6.32443513,3.74457965 11.0965092,0.624097382 C12.4188913,0.226944924 13.7987682,0 15.1211499,0 C17.4209443,0 19.6632445,0.624097382 21.5605749,2.04249968 C25.1252568,5.6168718 27.9425053,9.70186652 27.9425053,14.6379082 L28,14.6379082 Z M11.5173333,12.5423905 C12.6373333,10.8525494 14.1493333,9.33169145 16.1653333,9.33169145 L16.3333333,9.33169145 C15.8293333,9.27536218 15.3813333,9.27536218 14.8773333,9.27536218 C14.2053333,9.27536218 13.4773333,9.33169145 12.8053333,9.33169145 C12.6373333,9.27536218 12.4693333,9.27536218 12.3013333,9.27536218 C10.0053333,11.0215326 9.33333333,13.7816114 9.33333333,16.6543441 C9.33333333,17.8372357 9.44533333,19.0764519 9.61333333,20.2593435 C11.1813333,21.5548889 12.5813333,23.1884054 14.6533333,23.1884054 C14.9893333,23.1884054 15.3813333,23.1320762 15.8293333,23.0194223 C12.6933333,21.7802014 10.4533333,19.0201272 10.1173333,15.696765 C10.4533333,14.5702027 10.5653333,13.3873157 11.5173333,12.5423905 Z M18.6666667,19.2007927 L18.6666667,19.1452983 L17.0848487,18.6458571 C16.5393937,17.7579591 15.1757578,17.3140079 15.1757578,16.2596311 C15.1757578,16.0931476 15.2303032,15.9266687 15.2848486,15.7601899 C15.5575756,14.2618618 17.0848487,14.5948241 17.8484847,13.8179105 C17.6303031,13.2629749 17.2484849,13.0410015 16.8121212,12.985507 C15.9393939,12.985507 14.9030303,13.873405 14.6848483,14.5948241 C14.5212121,14.9277818 14.4666667,15.3162386 14.4666667,15.7601899 C14.4666667,16.5925934 14.8484849,17.4249968 15.2848486,18.0909215 C15.9939393,18.6458571 16.8121212,19.4782606 17.7393939,19.4782606 C18.0121214,19.4782606 18.3393938,19.4227661 18.6666667,19.2007927 Z M14.4903953,4.89132514 C16.5666667,4.89132514 18.3463275,5.60307006 20.0666667,6.49275352 C19.2954804,5.7216973 18.1683614,4.77270254 17.1005651,4.41683008 C16.6853106,4.23889153 16.2700566,4.17958023 15.8548021,4.17958023 C14.8463275,4.12026892 13.8378529,4.53545268 13.0666667,5.00994775 C13.5412429,4.95063645 14.0158191,4.89132514 14.4903953,4.89132514 Z M19.6,18.6280206 L19.6,18.5507244 L19.46,18.5507244 C19.32,18.5507244 19.2266667,18.7826084 19.1333333,19.0144925 L19.2266667,19.0144925 C19.3666667,19.0144925 19.46,18.7826084 19.5533333,18.6280206 L19.6,18.6280206 Z" id="Ω-Copy-2"></path>
            </g>
        </g>
    </g>
</svg>