<?xml version="1.0" encoding="UTF-8"?>
<svg width="172px" height="184px" viewBox="0 0 172 184" version="1.1" xmlns="http://www.w3.org/2000/svg" xmlns:xlink="http://www.w3.org/1999/xlink">
    <!-- Generator: Sketch 60.1 (88133) - https://sketch.com -->
    <title>my-experiences-alt</title>
    <desc>Created with Sketch.</desc>
    <g id="PL" stroke="none" stroke-width="1" fill="none" fill-rule="evenodd">
        <g id="Icons" transform="translate(-1213.000000, -1616.000000)" fill-rule="nonzero">
            <g id="my-experiences-alt" transform="translate(1207.000000, 1616.000000)">
                <path d="M167,84.167967 C167,89.3876859 166.347022,94.9336372 165.041067,100.479589 C161.123203,119.40107 151.655031,136.038923 135.004106,149.088221 C124.882957,153.00301 113.129363,155.286637 101.37577,155.286637 C82.1129364,155.286637 62.523614,149.088221 49.4640657,134.733994 C37.0574949,124.294556 40.9753594,107.004237 33.7926078,94.2811724 C32.486653,98.522194 31.5071869,102.436983 31.5071869,106.351772 C31.1806982,126.251951 46.1991787,142.563572 58.6057495,158.222729 C69.0533881,168.009702 85.7043121,162.46375 96.1519507,172.250723 C96.4784394,173.229421 96.8049281,174.208118 96.4784394,174.860583 C96.4784394,179.101604 91.2546201,181.058999 88.3162218,181.711464 C84.0718686,183.016393 80.1540041,183.995091 76.2361396,183.995091 C55.9938399,184.321323 39.9958932,168.335934 25.9568789,151.69808 C18.1211499,135.060226 8,117.117443 8,97.8697291 C8,91.6713129 8.97946612,85.4728968 11.5913758,78.9482482 C20.4065709,47.9561673 43.9137577,21.5313404 71.0123203,3.58855673 C78.5215606,1.30492972 86.3572895,0 93.8665298,0 C106.926078,0 119.659137,3.58855673 130.433265,11.7443675 C150.675564,32.2970106 166.673511,55.7857456 166.673511,84.167967 L167,84.167967 Z M72.6447639,72.4235995 C79.174538,62.6366266 87.9897331,53.828351 99.7433265,53.828351 L100.722792,53.828351 C97.7843943,53.5021186 95.1724846,53.5021186 92.2340863,53.5021186 C88.3162218,53.5021186 84.0718686,53.828351 80.1540041,53.828351 C79.174538,53.5021186 78.1950719,53.5021186 77.2156058,53.5021186 C63.8295688,63.6153239 59.9117043,79.600713 59.9117043,96.238567 C59.9117043,103.089448 60.5646817,110.266561 61.5441479,117.117443 C70.6858316,124.620788 78.8480493,134.081529 90.9281314,134.081529 C92.8870637,134.081529 95.1724846,133.755296 97.7843943,133.102832 C79.5010267,125.925718 66.4414785,109.940329 64.4825462,90.6926156 C66.4414785,84.167967 67.0944559,77.317086 72.6447639,72.4235995 Z M113.455852,109.614097 L113.455852,109.287864 L103.987679,106.351772 C100.722792,101.132053 92.560575,98.522194 92.560575,92.3237778 C92.560575,91.3450805 92.8870637,90.3663832 93.2135524,89.3876859 C94.8459959,80.5794103 103.987679,82.5368049 108.558521,77.9695509 C107.252566,74.7072266 104.967146,73.4022968 102.355236,73.0760644 C97.1314169,73.0760644 90.9281314,78.2957833 89.6221766,82.5368049 C88.6427105,84.4941995 88.3162218,86.7778265 88.3162218,89.3876859 C88.3162218,94.2811724 90.6016427,99.1746588 93.2135524,103.089448 C97.4579056,106.351772 102.355236,111.245259 107.905544,111.245259 C109.537987,111.245259 111.49692,110.919026 113.455852,109.614097 Z M89.9486653,26.7510593 C101.37577,26.7510593 111.170431,30.6658485 120.638603,35.5593349 C116.39425,31.3183133 110.190965,26.0985944 104.314168,24.1411998 C102.028747,23.1625026 99.7433265,22.8362701 97.4579056,22.8362701 C91.9075976,22.5100377 86.3572895,24.7936647 82.1129364,27.4035242 C84.724846,27.0772917 87.3367557,26.7510593 89.9486653,26.7510593 Z M119.985626,106.678005 L119.985626,106.351772 L119.00616,106.351772 C118.026694,106.351772 117.373716,107.33047 116.720739,108.309167 L117.373716,108.309167 C118.353182,108.309167 119.00616,107.33047 119.659137,106.678005 L119.985626,106.678005 Z" id="Ω" fill="#FBFBFB"></path>
                <g id="Fill-14-Clipped" transform="translate(89.555003, 93.049525) rotate(-6.000000) translate(-89.555003, -93.049525) translate(7.055003, 30.549525)" fill="#858585">
                    <path d="M16.6251332,13.1565385 C16.332705,15.3246333 15.9306161,16.9179646 15.9452375,18.5040205 C16.0037232,25.4084564 16.2157337,32.2983413 16.3253943,39.1955017 C16.5008512,50.0359753 16.3765692,60.8255205 14.5854462,71.5932393 C13.4084225,78.6941133 13.2037227,85.9623235 12.7358375,93.1723298 C12.5165163,96.6136345 14.6439318,98.2360678 17.6924963,97.101092 C30.9321854,92.1683127 44.0695246,92.9104123 57.1849317,97.5739986 C61.1180917,98.9636163 65.0951159,100.258653 69.0355866,101.590067 C69.4669183,100.309581 69.8690071,99.6984404 69.8543857,99.0872996 C69.5107825,84.951031 69.6935502,70.8656907 71.6308873,56.8094525 C72.7494254,48.682735 73.0491643,40.4468852 73.9703133,32.2910658 C74.7818017,25.0592331 73.0491643,19.3625278 65.7823223,16.2704464 C63.9838885,15.5065204 62.3828439,14.2696878 60.6136529,13.4257315 C46.3212222,6.63770339 31.9556843,7.3434255 16.6251332,13.1565385 M80.4402884,103.670856 C86.5959031,103.656305 91.2162695,100.789763 95.931675,98.8908615 C104.806872,95.3113225 113.828284,94.4891927 123.090949,95.856984 C130.24082,96.9192049 137.398001,98.1414865 143.926462,101.590067 C145.286253,102.317615 146.931162,102.514053 149.248656,103.190673 C149.248656,99.9458069 149.533773,97.341183 149.197481,94.8311405 C147.274765,80.1492104 146.609491,65.4090765 147.179726,50.6325651 C147.523329,41.7782991 146.039256,34.2045185 136.740037,30.4503679 C123.602698,19.0642329 97.525409,19.500762 83.1964247,27.2709807 C82.2825864,52.487814 76.8945958,77.7119227 80.4402884,103.670856 M4.6136428,6.94327379 C18.2773528,1.46483309 31.5974597,-0.12122278 45.2392376,0.700907099 C54.7504665,1.27567047 62.8945933,5.72826769 70.8632632,10.4427824 C73.977624,12.2762048 76.9384601,14.3569937 80.2136565,16.488711 C85.353083,15.3100823 90.4120918,13.6803735 95.5880718,13.0546817 C112.797474,10.9593419 129.129592,13.0110288 143.319673,24.1643483 C147.187037,27.2127768 151.346829,29.8756046 155.331164,32.7857988 C157.597483,34.4446096 158.599049,36.5108475 158.262757,39.5665515 C157.714454,44.4193004 157.524375,49.3520797 157.634036,54.2339305 C157.999571,70.989374 159.308188,87.6866136 161.903489,104.252894 C162.510277,108.130728 163.753097,111.906705 164.703489,115.726335 C165.822027,120.237136 163.007405,124.238653 158.131164,124.493295 C156.749441,124.56605 154.804793,123.627513 153.964062,122.514363 C145.556749,111.492003 133.567191,107.410455 120.590687,105.416972 C116.050739,104.718525 111.437683,104.820382 106.868492,106.311857 C99.0387252,108.872828 91.1724052,111.106402 84.1468165,115.777264 C77.5598701,120.164382 72.2596081,119.851536 66.9958995,114.97696 C56.0225294,104.849484 42.7682189,103.707233 29.0533339,105.577033 C22.978137,106.406438 16.6689975,107.672373 11.3979782,111.542931 C9.59954449,112.867069 9.40946613,112.605152 3.47317262,112.088592 C1.34575709,105.249636 0.695104234,98.105109 1.03139672,90.9096537 C1.3530678,84.0124933 1.74053523,77.0644045 2.91024824,70.2909274 C4.86951752,58.8465884 4.81834258,47.3876985 4.59171068,35.8778802 C4.45280726,28.9807198 4.28466102,22.0762839 4.23348608,15.1645726 C4.21155396,12.5599487 4.46742868,9.94804936 4.6136428,6.94327379" id="Fill-14"></path>
                </g>
                <path d="M128.103863,72.9424203 C131.173443,69.8386085 134.270866,70.4996054 135.711689,74.6020975 C136.372937,76.4916866 135.86482,78.000484 134.514483,79.4158797 C131.876454,82.1676388 129.328911,85.0127997 126.760486,87.8292215 C125.925226,88.7488695 125.13869,89.7116259 124.233825,90.7677841 C125.820819,92.5424173 127.22684,94.2667572 128.792952,95.8330326 C131.13168,98.1680762 131.326574,101.257518 131.632836,104.246374 C131.82077,106.028192 131.312653,107.838749 129.433318,108.693734 C127.477418,109.570274 126.078357,108.420714 124.936835,107.069981 C122.716436,104.433178 120.642207,101.659864 118.289558,98.6638239 C115.073807,99.3104514 114.663137,103.484791 111.447386,105.094175 C110.368509,104.598427 108.962488,103.958984 107.556467,103.333911 C104.709622,102.069395 104.500807,98.1321525 105.663211,96.2138243 C106.714246,94.4822996 107.946255,92.7938835 109.400999,91.4215963 C110.848783,90.0708634 111.148085,88.9644119 110.006563,87.29755 C108.600542,85.2498964 107.201481,83.1735037 106.032117,80.9749704 C104.67482,78.4459385 105.106371,76.5779036 107.04139,75.1265842 C108.537897,74.0057632 111.628359,74.3434465 112.992617,75.9959389 C114.684019,78.0435925 116.208368,80.2421259 118.150348,82.8430053 C121.651479,79.3655864 124.895072,76.1683729 128.103863,72.9424203 Z" id="Fill-12" fill="#E8E8E8"></path>
            </g>
        </g>
    </g>
</svg>