<?xml version="1.0" encoding="UTF-8"?>
<svg width="159px" height="184px" viewBox="0 0 159 184" version="1.1" xmlns="http://www.w3.org/2000/svg" xmlns:xlink="http://www.w3.org/1999/xlink">
    <!-- Generator: Sketch 58 (84663) - https://sketch.com -->
    <title>Group 2</title>
    <desc>Created with Sketch.</desc>
    <g id="PL" stroke="none" stroke-width="1" fill="none" fill-rule="evenodd">
        <g id="Icons" transform="translate(-456.000000, -1649.000000)">
            <g id="Group-2" transform="translate(456.000000, 1649.000000)">
                <path d="M159,84.167967 C159,89.3876859 158.347023,94.9336372 157.041068,100.479589 C153.123203,119.40107 143.655031,136.038923 127.004107,149.088221 C116.882957,153.00301 105.129363,155.286637 93.37577,155.286637 C74.1129363,155.286637 54.523614,149.088221 41.4640657,134.733994 C29.0574949,124.294556 32.9753593,107.004237 25.7926078,94.2811724 C24.486653,98.522194 23.5071869,102.436983 23.5071869,106.351772 C23.1806982,126.251951 38.1991786,142.563572 50.6057495,158.222729 C61.0533881,168.009702 77.7043121,162.46375 88.1519507,172.250723 C88.4784394,173.229421 88.8049281,174.208118 88.4784394,174.860583 C88.4784394,179.101604 83.2546201,181.058999 80.3162218,181.711464 C76.0718686,183.016393 72.1540041,183.995091 68.2361396,183.995091 C47.9938398,184.321323 31.9958932,168.335934 17.9568789,151.69808 C10.1211499,135.060226 0,117.117443 0,97.8697291 C0,91.6713129 0.979466119,85.4728968 3.59137577,78.9482482 C12.4065708,47.9561673 35.9137577,21.5313404 63.0123203,3.58855673 C70.5215606,1.30492972 78.3572895,0 85.8665298,0 C98.926078,0 111.659138,3.58855673 122.433265,11.7443675 C142.675565,32.2970106 158.673511,55.7857456 158.673511,84.167967 L159,84.167967 Z M64.6447639,72.4235995 C71.174538,62.6366266 79.9897331,53.828351 91.7433265,53.828351 L92.7227926,53.828351 C89.7843943,53.5021186 87.1724846,53.5021186 84.2340862,53.5021186 C80.3162218,53.5021186 76.0718686,53.828351 72.1540041,53.828351 C71.174538,53.5021186 70.1950719,53.5021186 69.2156057,53.5021186 C55.8295688,63.6153239 51.9117043,79.600713 51.9117043,96.238567 C51.9117043,103.089448 52.5646817,110.266561 53.5441478,117.117443 C62.6858316,124.620788 70.8480493,134.081529 82.9281314,134.081529 C84.8870637,134.081529 87.1724846,133.755296 89.7843943,133.102832 C71.5010267,125.925718 58.4414784,109.940329 56.4825462,90.6926156 C58.4414784,84.167967 59.0944559,77.317086 64.6447639,72.4235995 Z M105.455852,109.614097 L105.455852,109.287864 L95.9876797,106.351772 C92.7227926,101.132053 84.5605749,98.522194 84.5605749,92.3237778 C84.5605749,91.3450805 84.8870637,90.3663832 85.2135524,89.3876859 C86.8459959,80.5794103 95.9876797,82.5368049 100.558522,77.9695509 C99.2525667,74.7072266 96.9671458,73.4022968 94.3552361,73.0760644 C89.1314168,73.0760644 82.9281314,78.2957833 81.6221766,82.5368049 C80.6427105,84.4941995 80.3162218,86.7778265 80.3162218,89.3876859 C80.3162218,94.2811724 82.6016427,99.1746588 85.2135524,103.089448 C89.4579055,106.351772 94.3552361,111.245259 99.9055441,111.245259 C101.537988,111.245259 103.49692,110.919026 105.455852,109.614097 Z M81.9486653,26.7510593 C93.37577,26.7510593 103.170431,30.6658485 112.638604,35.5593349 C108.394251,31.3183133 102.190965,26.0985944 96.3141684,24.1411998 C94.0287474,23.1625026 91.7433265,22.8362701 89.4579055,22.8362701 C83.9075975,22.5100377 78.3572895,24.7936647 74.1129363,27.4035242 C76.724846,27.0772917 79.3367556,26.7510593 81.9486653,26.7510593 Z M111.985626,106.678005 L111.985626,106.351772 L111.00616,106.351772 C110.026694,106.351772 109.373717,107.33047 108.720739,108.309167 L109.373717,108.309167 C110.353183,108.309167 111.00616,107.33047 111.659138,106.678005 L111.985626,106.678005 Z" id="Ω" fill="#FBFBFB" fill-rule="nonzero"></path>
                <g id="Group-5" transform="translate(11.000000, 39.000000)">
                    <path d="M96.1038627,30.4424203 C99.1734431,27.3386085 102.270866,27.9996054 103.711689,32.1020975 C104.372937,33.9916866 103.86482,35.500484 102.514483,36.9158797 C99.8764536,39.6676388 97.3289106,42.5127997 94.7604862,45.3292215 C93.9252262,46.2488695 93.1386897,47.2116259 92.2338247,48.2677841 C93.8208187,50.0424173 95.2268397,51.7667572 96.7929521,53.3330326 C99.1316801,55.6680762 99.3265741,58.7575185 99.6328361,61.7463744 C99.8207696,63.5281923 99.3126531,65.3387492 97.4333181,66.1937344 C95.4774177,67.0702739 94.0783572,65.9207139 92.9368352,64.569981 C90.7164357,61.9331779 88.6422067,59.1598645 86.2895577,56.1638239 C83.0738068,56.8104514 82.6631373,60.9847909 79.4473863,62.5941748 C78.3685088,62.0984271 76.9624878,61.4589844 75.5564668,60.8339112 C72.7096224,59.5693952 72.5008074,55.6321525 73.6632108,53.7138243 C74.7142463,51.9822996 75.9462548,50.2938835 77.4009993,48.9215963 C78.8487833,47.5708634 79.1480848,46.4644119 78.0065628,44.79755 C76.6005418,42.7498964 75.2014813,40.6735037 74.0321173,38.4749704 C72.6748199,35.9459385 73.1063708,34.0779036 75.0413898,32.6265842 C76.5378973,31.5057632 79.6283593,31.8434465 80.9926173,33.4959389 C82.6840188,35.5435925 84.2083683,37.7421259 86.1503477,40.3430053 C89.6514792,36.8655864 92.8950722,33.6683729 96.1038627,30.4424203 Z" id="Fill-12" fill="#E8E8E8"></path>
                    <path d="M53.6474077,47.6200161 C54.1467408,52.0986136 54.6171271,59.0350655 55.7822378,65.8425338 C57.1427397,73.8108546 61.9189699,79.3356526 69.9879042,81.2202464 C77.3331672,82.9400279 84.8014543,82.9400279 91.9657996,80.0880569 C99.0794878,77.2575833 105.802394,73.8610149 111.649657,68.7016705 C117.395607,63.6354809 121.61461,57.9172076 123.083663,50.3501691 C124.748107,41.7799248 125.587565,33.2383436 119.233732,26.0725875 C115.962738,22.3822231 112.033203,19.2436219 108.248402,16.0261974 C107.459601,15.3597821 105.990548,15.4959314 104.854384,15.1878039 C100.52683,14.0341172 96.25717,12.5794687 91.8572489,11.7554068 C86.4658982,10.7378694 81.1758615,12.2426782 75.8713513,13.2100553 C71.601691,13.9839569 68.2293831,16.4561428 64.4880028,18.3335709 C61.6077913,19.7738878 59.726246,21.3790172 58.5466619,24.1378333 C55.6592137,30.8664783 53.7053014,37.8100959 53.6474077,47.6200161 M61.086748,88.2355216 C51.4040268,95.2722941 41.4897309,101.750138 32.4366038,109.245519 C23.5354476,116.619082 15.7994021,125.339807 6.85482563,133 C3.7285659,130.320007 1.45623822,127.955308 0.349021229,124.322269 C-0.497674116,121.549122 0.218760407,120.087308 2.25227658,118.561001 C6.78245851,115.18593 11.6961862,112.161981 15.625721,108.192152 C20.329584,103.448422 26.1044805,99.5860793 29.1945567,93.3447057 C29.7373101,92.2483451 30.8807106,91.3741228 31.8721402,90.5643924 C36.3878487,86.8596965 40.9325041,83.1979951 45.5061063,79.5649568 C48.7481534,76.9852846 48.7481534,76.7201516 47.4238351,72.6929966 C44.2613918,63.0837177 43.9429764,53.144814 43.9719233,43.1414185 C44.0008701,33.7112835 46.5843764,24.8687404 51.8599397,17.2802047 C55.6664504,11.7912355 61.1446417,7.44162159 66.0149491,2.70505681 C66.8761179,1.86666334 68.330697,1.34356315 69.5681748,1.21457954 C77.6226357,0.383351829 85.7060434,-1.02830212 93.7315574,1.18591651 C97.4657009,2.21778539 101.0334,3.86590929 104.796491,4.74729729 C114.21869,6.96151593 120.927122,12.5006454 127.128985,19.7452248 C132.650596,26.1872396 133.74334,33.4819793 134.973581,41.070515 C135.096605,41.8229194 134.75648,42.6469813 134.640692,43.4352145 C134.155833,46.946435 133.620316,50.4576555 133.200587,53.9760417 C132.578229,59.1497176 129.792095,63.399011 127.013197,67.5336523 C120.782388,76.7631461 111.866759,82.8540388 101.909042,87.5834378 C99.904473,88.5364834 97.4729377,88.8947712 95.8157305,90.2347676 C93.5723497,92.0548696 91.0467371,92.3558314 88.5283612,92.4346547 C81.2192817,92.6639589 73.8740187,92.7284507 66.7748039,90.4927348 C64.9439157,89.9123086 63.1709211,89.0739151 61.086748,88.2355216" id="Fill-3" fill="#858585"></path>
                </g>
            </g>
        </g>
    </g>
</svg>