<?xml version="1.0" encoding="UTF-8"?>
<svg width="37px" height="40px" viewBox="0 0 37 40" version="1.1" xmlns="http://www.w3.org/2000/svg" xmlns:xlink="http://www.w3.org/1999/xlink">
    <!-- Generator: Sketch 60.1 (88133) - https://sketch.com -->
    <title>pencil</title>
    <desc>Created with Sketch.</desc>
    <g id="PL" stroke="none" stroke-width="1" fill="none" fill-rule="evenodd">
        <g id="Icons" transform="translate(-480.000000, -1246.000000)" fill="currentColor" fill-rule="nonzero">
            <g id="pencil" transform="translate(480.000000, 1246.000000)">
                <path d="M6.29322481,27.3853007 C5.90477765,28.8098665 5.54679694,30.1150768 5.26688648,31.1488496 C5.93333994,31.7687282 6.44555703,32.174922 6.87208725,32.6619695 C7.46999121,33.3473012 8.02981211,33.6091133 8.63914099,33.2664475 C9.78163263,32.6215427 10.8936578,31.9227354 12.0856575,31.2085274 C9.97966452,30.2787094 8.6829365,28.1745871 6.29322481,27.3853007 M12.4512548,28.453725 C12.7806732,28.7136121 13.0796252,28.9523231 13.3823855,29.189109 C14.1059635,29.7570103 14.2202127,29.7550852 14.8619121,29.1332814 C15.4350621,28.5769307 15.9929789,28.0032542 16.5699372,27.4526788 C17.0002757,27.0426348 17.5086845,26.7057443 17.8857067,26.2552734 C19.0129651,24.9192617 20.107853,23.5524485 21.1856034,22.1740848 C21.7625617,21.4387008 22.2500248,20.6320886 22.8307914,19.9005548 C23.9466249,18.5010151 25.0091421,17.0417976 26.254458,15.7654636 C28.6041825,13.3552523 30.679709,10.7178804 32.7514272,8.07665831 C32.9399383,7.83602219 33.023721,7.2584955 32.8713888,7.05058589 C32.6276572,6.71947059 32.1649481,6.62321614 31.7536511,7.00438375 C31.1900219,7.52993304 30.5445141,7.97270351 30.0227763,8.5329044 C28.1757481,10.5099708 26.3648989,12.5236138 24.5388164,14.5199311 C24.483596,14.583459 24.4036215,14.6238859 24.3388803,14.6797135 C22.9469447,15.8963697 21.5988046,17.1534528 20.4715461,18.6376964 C19.9003003,19.3961814 19.2890673,20.1373407 18.6073806,20.7918709 C16.3909468,22.9190943 14.7457588,25.5218145 12.7768649,27.8511722 C12.6454784,28.0071044 12.5769289,28.2207893 12.4512548,28.453725 M8.37636791,25.6199941 C8.86573517,25.9896112 9.24656571,26.3342021 9.67690423,26.5940891 C10.4138113,27.0368596 10.6765844,26.9579309 11.1735683,26.2841498 C11.8285968,25.3986088 12.4722005,24.5015174 13.1557913,23.6390775 C13.7898742,22.8440158 14.4620401,22.0797555 15.1303977,21.3154951 C16.0748574,20.2335951 17.0326463,19.1632457 17.9809143,18.0851959 C18.2893871,17.7309795 18.5464477,17.3228606 18.8891952,17.0090711 C20.631495,15.4170225 22.2785871,13.7537457 23.7314556,11.8652334 C24.6302157,10.7024797 25.8545859,9.78421222 26.8123748,8.6368592 C27.7892051,7.46640511 28.7717479,6.30172628 29.8342652,5.03309265 C28.9278885,4.53834479 28.1814606,4.13215101 27.3131669,3.65857913 C26.9380488,4.20145422 26.6448093,4.72122824 26.2601705,5.15629834 C24.4740752,7.18726721 22.4785231,9.03920279 21.0466003,11.3724106 C20.9799549,11.4802156 20.8676099,11.5591443 20.7800189,11.6553987 C17.77717,14.972327 14.7609921,18.2796298 11.7771847,21.6138839 C10.6308848,22.8902179 9.55503846,24.2281548 8.37636791,25.6199941 M0,38.9223589 C0.573149975,37.4265647 1.18819131,36.0077742 1.6642295,34.5408564 C2.33639541,32.4656105 2.91525785,30.3557129 3.51316181,28.2554409 C3.79497641,27.2659451 3.97967923,26.245648 4.32623503,25.2811784 C4.47095064,24.8788348 4.90319331,24.5650453 5.2421325,24.2570311 C5.84384476,23.7180062 6.50077746,23.2444343 7.08535235,22.6880836 C8.90953068,20.9401028 10.2424376,18.7628272 11.9904498,16.9436181 C13.464264,15.4073971 14.860008,13.7980227 16.2957392,12.225225 C17.6191253,10.7698578 19.0015402,9.36454283 20.2658976,7.85527308 C21.7092454,6.13424354 23.0497689,4.32465991 24.4321838,2.54972788 C24.683532,2.22631293 24.9482092,1.90674817 25.1614743,1.55445688 C25.7708032,0.559185888 26.5438892,0.168392827 27.6292563,0.372452258 C27.7815885,0.399403503 27.9186875,0.526459375 28.0576907,0.616938557 C29.7638115,1.75081596 31.4642199,2.89046863 33.1760532,4.01664567 C34.0005514,4.55759568 34.8612284,5.04079301 35.6743016,5.59521863 C36.6206655,6.24204852 36.7253939,6.77144799 36.0303782,7.71281649 C34.0176887,10.4406676 32.1021111,13.2339717 29.7352492,15.7000106 C27.8349048,17.6732268 26.2811161,19.9775583 24.496925,22.0682049 C21.9853476,25.0078158 19.8031885,28.2400402 16.8079563,30.7484311 C16.2976433,31.1758008 15.9149086,31.7802788 15.5359822,32.34818 C15.1780015,32.8852798 14.7419505,33.2953238 14.0945386,33.2818482 C13.1234207,33.2587471 12.3827053,33.7708208 11.6229483,34.2443927 C9.91301917,35.3012665 8.23736476,36.4101177 6.51601068,37.4496658 C5.27069479,38.2004505 4.00443322,38.9319843 2.69437613,39.5595633 C1.26054912,40.2506702 1.23579513,40.1929176 0,38.9223589" id="Fill-10"></path>
            </g>
        </g>
    </g>
</svg>