<?xml version="1.0" encoding="UTF-8"?>
<svg width="159px" height="184px" viewBox="0 0 159 184" version="1.1" xmlns="http://www.w3.org/2000/svg" xmlns:xlink="http://www.w3.org/1999/xlink">
    <!-- Generator: Sketch 58 (84663) - https://sketch.com -->
    <title>Group 17</title>
    <desc>Created with Sketch.</desc>
    <defs>
        <polygon id="path-1" points="42 6 154 6 154 127 42 127"></polygon>
    </defs>
    <g id="PL" stroke="none" stroke-width="1" fill="none" fill-rule="evenodd">
        <g id="Icons" transform="translate(-949.000000, -1933.000000)">
            <g id="Group-17" transform="translate(949.000000, 1933.000000)">
                <g id="Group-11">
                    <path d="M159,84.167967 C159,89.3876859 158.347023,94.9336372 157.041068,100.479589 C153.123203,119.40107 143.655031,136.038923 127.004107,149.088221 C116.882957,153.00301 105.129363,155.286637 93.37577,155.286637 C74.1129363,155.286637 54.523614,149.088221 41.4640657,134.733994 C29.0574949,124.294556 32.9753593,107.004237 25.7926078,94.2811724 C24.486653,98.522194 23.5071869,102.436983 23.5071869,106.351772 C23.1806982,126.251951 38.1991786,142.563572 50.6057495,158.222729 C61.0533881,168.009702 77.7043121,162.46375 88.1519507,172.250723 C88.4784394,173.229421 88.8049281,174.208118 88.4784394,174.860583 C88.4784394,179.101604 83.2546201,181.058999 80.3162218,181.711464 C76.0718686,183.016393 72.1540041,183.995091 68.2361396,183.995091 C47.9938398,184.321323 31.9958932,168.335934 17.9568789,151.69808 C10.1211499,135.060226 0,117.117443 0,97.8697291 C0,91.6713129 0.979466119,85.4728968 3.59137577,78.9482482 C12.4065708,47.9561673 35.9137577,21.5313404 63.0123203,3.58855673 C70.5215606,1.30492972 78.3572895,0 85.8665298,0 C98.926078,0 111.659138,3.58855673 122.433265,11.7443675 C142.675565,32.2970106 158.673511,55.7857456 158.673511,84.167967 L159,84.167967 Z M64.6447639,72.4235995 C71.174538,62.6366266 79.9897331,53.828351 91.7433265,53.828351 L92.7227926,53.828351 C89.7843943,53.5021186 87.1724846,53.5021186 84.2340862,53.5021186 C80.3162218,53.5021186 76.0718686,53.828351 72.1540041,53.828351 C71.174538,53.5021186 70.1950719,53.5021186 69.2156057,53.5021186 C55.8295688,63.6153239 51.9117043,79.600713 51.9117043,96.238567 C51.9117043,103.089448 52.5646817,110.266561 53.5441478,117.117443 C62.6858316,124.620788 70.8480493,134.081529 82.9281314,134.081529 C84.8870637,134.081529 87.1724846,133.755296 89.7843943,133.102832 C71.5010267,125.925718 58.4414784,109.940329 56.4825462,90.6926156 C58.4414784,84.167967 59.0944559,77.317086 64.6447639,72.4235995 Z M105.455852,109.614097 L105.455852,109.287864 L95.9876797,106.351772 C92.7227926,101.132053 84.5605749,98.522194 84.5605749,92.3237778 C84.5605749,91.3450805 84.8870637,90.3663832 85.2135524,89.3876859 C86.8459959,80.5794103 95.9876797,82.5368049 100.558522,77.9695509 C99.2525667,74.7072266 96.9671458,73.4022968 94.3552361,73.0760644 C89.1314168,73.0760644 82.9281314,78.2957833 81.6221766,82.5368049 C80.6427105,84.4941995 80.3162218,86.7778265 80.3162218,89.3876859 C80.3162218,94.2811724 82.6016427,99.1746588 85.2135524,103.089448 C89.4579055,106.351772 94.3552361,111.245259 99.9055441,111.245259 C101.537988,111.245259 103.49692,110.919026 105.455852,109.614097 Z M81.9486653,26.7510593 C93.37577,26.7510593 103.170431,30.6658485 112.638604,35.5593349 C108.394251,31.3183133 102.190965,26.0985944 96.3141684,24.1411998 C94.0287474,23.1625026 91.7433265,22.8362701 89.4579055,22.8362701 C83.9075975,22.5100377 78.3572895,24.7936647 74.1129363,27.4035242 C76.724846,27.0772917 79.3367556,26.7510593 81.9486653,26.7510593 Z M111.985626,106.678005 L111.985626,106.351772 L111.00616,106.351772 C110.026694,106.351772 109.373717,107.33047 108.720739,108.309167 L109.373717,108.309167 C110.353183,108.309167 111.00616,107.33047 111.659138,106.678005 L111.985626,106.678005 Z" id="Ω" fill="#F4FBFA" fill-rule="nonzero"></path>
                    <mask id="mask-2" fill="white">
                        <use xlink:href="#path-1"></use>
                    </mask>
                    <g id="Clip-11"></g>
                    <path d="M61.3213042,88.5327969 C60.1287033,92.8768611 59.0296397,96.8569631 58.1702655,100.009345 C60.2163946,101.8996 61.7889909,103.138245 63.0985135,104.623445 C64.9341835,106.713292 66.6529319,107.511661 68.5236785,106.466737 C72.0313283,104.500168 75.4454407,102.369228 79.1050887,100.191326 C72.6393209,97.3559434 68.6581384,90.9396432 61.3213042,88.5327969 M80.2275366,91.790845 C81.238909,92.5833432 82.156744,93.3112675 83.0862712,94.0333214 C85.3077827,95.7650767 85.6585477,95.7592063 87.6286777,93.863081 C89.3883486,92.1665479 91.1012509,90.4171815 92.8726141,88.7382594 C94.1938288,87.4878733 95.754733,86.4605609 96.9122574,85.0868973 C100.373139,81.0128696 103.734636,76.8449161 107.043519,72.6417405 C108.814882,70.3992642 110.31148,67.9395846 112.094535,65.7088489 C115.52034,61.4410994 118.782454,56.9913688 122.605792,53.0993221 C129.819859,45.7496352 136.192089,37.7072461 142.552627,29.6531163 C143.131389,28.9193217 143.388617,27.1582146 142.92093,26.524216 C142.172632,25.5145146 140.752034,25.2209968 139.48928,26.3833275 C137.758839,27.9859349 135.777017,29.336117 134.17519,31.0443909 C128.50449,37.0732475 122.944865,43.213641 117.338471,49.3012011 C117.168935,49.4949229 116.923399,49.6182004 116.724633,49.7884408 C112.451146,53.4985064 108.312119,57.3318495 104.851238,61.8578947 C103.097413,64.1708154 101.220821,66.4309028 99.1279229,68.4268242 C92.3230823,74.9135687 87.2720666,82.8502913 81.2272168,89.9534233 C80.8238371,90.4289222 80.6133781,91.0805318 80.2275366,91.790845 M67.716919,83.1496795 C69.2193624,84.2767881 70.3885789,85.327582 71.7097937,86.1200802 C73.9722278,87.4702623 74.7789873,87.2295776 76.3048149,85.1749527 C78.3158675,82.4745885 80.2918435,79.7390021 82.3905873,77.1090822 C84.3373329,74.6846248 86.4010002,72.354093 88.4529754,70.0235613 C91.3526325,66.7244207 94.2932122,63.4605022 97.2045616,60.1731023 C98.151627,59.0929566 98.9408482,57.8484409 99.9931432,56.8915727 C105.342309,52.0367875 110.399171,46.9647991 114.859732,41.2059789 C117.619083,37.6602832 121.378115,34.860123 124.318694,31.3613902 C127.317735,27.7922132 130.334314,24.2406472 133.596428,20.3720819 C130.813693,18.8634002 128.522028,17.6247549 125.856214,16.180647 C124.704536,17.8360877 123.804239,19.4210841 122.62333,20.7477848 C117.139705,26.9410114 111.01301,32.5882948 106.616755,39.7031675 C106.412142,40.0319075 106.067223,40.2725921 105.798304,40.56611 C96.5790307,50.680735 87.3188353,60.7660083 78.1580232,70.9334666 C74.6386813,74.8255133 71.3356444,78.9054114 67.716919,83.1496795 M42,123.713846 C43.759671,119.152579 45.6479558,114.826126 47.1094765,110.352914 C49.1731438,104.024669 50.950353,97.5907577 52.7860231,91.1861982 C53.6512434,88.1688348 54.2183134,85.0575455 55.2823005,82.1164967 C55.7266028,80.8895921 57.0536637,79.9327239 58.0942664,78.9934668 C59.9416287,77.3497668 61.9585273,75.905659 63.7532748,74.2091258 C69.3538223,68.8788417 73.4460803,62.2394679 78.8127845,56.6919806 C83.3376527,52.0074357 87.6228316,47.0998173 92.0307781,42.3037356 C96.0938058,37.8657457 100.338062,33.5803851 104.219861,28.9780253 C108.651192,23.7299261 112.766834,18.2117906 117.011091,12.7993214 C117.782774,11.8131014 118.595379,10.8386222 119.25014,9.76434685 C121.120887,6.72937229 123.494397,5.53768982 126.826664,6.15994766 C127.294351,6.24213266 127.715269,6.62957622 128.142033,6.905483 C133.380123,10.3631233 138.600675,13.8383746 143.856304,17.2725334 C146.387658,18.9221037 149.030087,20.3955634 151.526365,22.0862262 C154.431868,24.0586661 154.753402,25.6730143 152.619582,28.5436188 C146.440272,36.8619147 140.559113,45.3798027 133.292432,52.89973 C127.458041,58.9168459 122.687637,65.9436632 117.209858,72.3188709 C109.498874,81.282906 102.799263,91.1392354 93.6033745,98.7883105 C92.0366242,100.09153 90.8615615,101.934822 89.698191,103.666577 C88.5991274,105.304407 87.2603744,106.554793 85.2727062,106.5137 C82.2912039,106.443256 80.0170776,108.004771 77.6844905,109.448879 C72.434708,112.671705 67.290155,116.05303 62.005296,119.223023 C58.1819577,121.512462 54.2943125,123.743198 50.2722074,125.656934 C45.8701069,127.764393 45.7941079,127.588282 42,123.713846" id="Fill-10" fill="#149F84" mask="url(#mask-2)"></path>
                </g>
                <g id="Group-12" transform="translate(42.000000, 6.000000)"></g>
            </g>
        </g>
    </g>
</svg>