<?xml version="1.0" encoding="UTF-8"?>
<svg width="159px" height="184px" viewBox="0 0 159 184" version="1.1" xmlns="http://www.w3.org/2000/svg" xmlns:xlink="http://www.w3.org/1999/xlink">
    <!-- Generator: Sketch 58 (84663) - https://sketch.com -->
    <title>public</title>
    <desc>Created with Sketch.</desc>
    <g id="PL" stroke="none" stroke-width="1" fill="none" fill-rule="evenodd">
        <g id="Icons" transform="translate(-454.000000, -2177.000000)" fill-rule="nonzero">
            <g id="public" transform="translate(454.000000, 2177.000000)">
                <path d="M159,84.167967 C159,89.3876859 158.347023,94.9336372 157.041068,100.479589 C153.123203,119.40107 143.655031,136.038923 127.004107,149.088221 C116.882957,153.00301 105.129363,155.286637 93.37577,155.286637 C74.1129363,155.286637 54.523614,149.088221 41.4640657,134.733994 C29.0574949,124.294556 32.9753593,107.004237 25.7926078,94.2811724 C24.486653,98.522194 23.5071869,102.436983 23.5071869,106.351772 C23.1806982,126.251951 38.1991786,142.563572 50.6057495,158.222729 C61.0533881,168.009702 77.7043121,162.46375 88.1519507,172.250723 C88.4784394,173.229421 88.8049281,174.208118 88.4784394,174.860583 C88.4784394,179.101604 83.2546201,181.058999 80.3162218,181.711464 C76.0718686,183.016393 72.1540041,183.995091 68.2361396,183.995091 C47.9938398,184.321323 31.9958932,168.335934 17.9568789,151.69808 C10.1211499,135.060226 0,117.117443 0,97.8697291 C0,91.6713129 0.979466119,85.4728968 3.59137577,78.9482482 C12.4065708,47.9561673 35.9137577,21.5313404 63.0123203,3.58855673 C70.5215606,1.30492972 78.3572895,0 85.8665298,0 C98.926078,0 111.659138,3.58855673 122.433265,11.7443675 C142.675565,32.2970106 158.673511,55.7857456 158.673511,84.167967 L159,84.167967 Z M64.6447639,72.4235995 C71.174538,62.6366266 79.9897331,53.828351 91.7433265,53.828351 L92.7227926,53.828351 C89.7843943,53.5021186 87.1724846,53.5021186 84.2340862,53.5021186 C80.3162218,53.5021186 76.0718686,53.828351 72.1540041,53.828351 C71.174538,53.5021186 70.1950719,53.5021186 69.2156057,53.5021186 C55.8295688,63.6153239 51.9117043,79.600713 51.9117043,96.238567 C51.9117043,103.089448 52.5646817,110.266561 53.5441478,117.117443 C62.6858316,124.620788 70.8480493,134.081529 82.9281314,134.081529 C84.8870637,134.081529 87.1724846,133.755296 89.7843943,133.102832 C71.5010267,125.925718 58.4414784,109.940329 56.4825462,90.6926156 C58.4414784,84.167967 59.0944559,77.317086 64.6447639,72.4235995 Z M105.455852,109.614097 L105.455852,109.287864 L95.9876797,106.351772 C92.7227926,101.132053 84.5605749,98.522194 84.5605749,92.3237778 C84.5605749,91.3450805 84.8870637,90.3663832 85.2135524,89.3876859 C86.8459959,80.5794103 95.9876797,82.5368049 100.558522,77.9695509 C99.2525667,74.7072266 96.9671458,73.4022968 94.3552361,73.0760644 C89.1314168,73.0760644 82.9281314,78.2957833 81.6221766,82.5368049 C80.6427105,84.4941995 80.3162218,86.7778265 80.3162218,89.3876859 C80.3162218,94.2811724 82.6016427,99.1746588 85.2135524,103.089448 C89.4579055,106.351772 94.3552361,111.245259 99.9055441,111.245259 C101.537988,111.245259 103.49692,110.919026 105.455852,109.614097 Z M81.9486653,26.7510593 C93.37577,26.7510593 103.170431,30.6658485 112.638604,35.5593349 C108.394251,31.3183133 102.190965,26.0985944 96.3141684,24.1411998 C94.0287474,23.1625026 91.7433265,22.8362701 89.4579055,22.8362701 C83.9075975,22.5100377 78.3572895,24.7936647 74.1129363,27.4035242 C76.724846,27.0772917 79.3367556,26.7510593 81.9486653,26.7510593 Z M111.985626,106.678005 L111.985626,106.351772 L111.00616,106.351772 C110.026694,106.351772 109.373717,107.33047 108.720739,108.309167 L109.373717,108.309167 C110.353183,108.309167 111.00616,107.33047 111.659138,106.678005 L111.985626,106.678005 Z" id="Ω" fill="#F4FBFA"></path>
                <path d="M105.304934,24.9380549 C115.488866,27.0520242 123.57365,32.3209325 130.489147,39.8159145 C137.694182,47.6151801 142.465986,56.3860173 144.810128,66.4700779 C147.928226,79.8959183 144.659791,92.211391 138.017128,104.041078 C132.799881,113.335069 125.344284,120.14141 115.076832,123.95296 C107.7493,126.670158 100.098823,127.962028 93.5118397,128 C81.596249,128.042103 71.6907183,125.826706 63.7005909,118.68939 C56.0445455,111.845682 49.9976616,103.934312 47.7481763,93.850251 C46.5955935,88.6881088 44.6356458,83.6701009 45.0588164,78.2250284 C45.843909,68.231719 47.703632,58.6494592 55.0422996,50.855532 C56.2171545,49.6063683 57.3808734,48.2557768 58.1381259,46.761051 C62.8375458,37.5204428 71.6127658,32.5291264 80.3490096,27.8794616 C88.005055,23.8063339 96.6689144,23.1497222 105.304934,24.9380549 Z M129.705958,54.7366834 C126.294028,51.8500153 122.425958,53.3471382 119.743853,53.7236601 C112.883502,61.7830222 95.3895368,80.8386823 88.9579579,88.3960151 C84.9439229,86.1996373 79.6980378,72.481019 78.4482133,69.1550754 C77.23488,65.8918854 74.5527747,64.5202698 71.2047046,65.2553841 C66.0776871,66.3939146 64.3625994,70.2577467 67.7654064,75.6187017 C70.8306695,80.495557 77.6091861,95.532002 78.6948001,101.072253 C78.8498879,101.870121 78.9684843,102.703848 79.3333966,103.412068 C80.6653264,106.029792 83.803572,107.05178 86.8779579,106.997991 C91.0105895,106.935237 92.5523439,104.308549 94.8512912,101.601177 C100.817607,94.554838 111.366831,83.6049476 118.09034,77.248899 C122.715603,72.8740729 131.740344,60.8865414 129.705958,54.7366834 Z" id="Combined-Shape-Copy-2" fill="#149F84"></path>
            </g>
        </g>
    </g>
</svg>