<?xml version="1.0" encoding="UTF-8"?>
<svg width="35px" height="45px" viewBox="0 0 35 45" version="1.1" xmlns="http://www.w3.org/2000/svg" xmlns:xlink="http://www.w3.org/1999/xlink">
    <!-- Generator: Sketch 59.1 (86144) - https://sketch.com -->
    <title>Group 6 Copy 7</title>
    <desc>Created with Sketch.</desc>
    <g id="PL" stroke="none" stroke-width="1" fill="none" fill-rule="evenodd">
        <g id="Icons" transform="translate(-758.000000, -1238.000000)" fill="#858585">
            <g id="Group-6-Copy-7" transform="translate(758.000000, 1238.000000)">
                <g id="Group-3">
                    <path d="M22.480187,16.2482643 C22.5586098,15.5087506 22.6611626,14.9765399 22.6631734,14.4483158 C22.6631734,13.3260888 22.6511084,12.2038617 22.5726856,11.0856213 C22.3977425,8.64582396 21.6597642,6.34755083 20.6020623,4.15093593 C20.4834228,3.90376692 20.1636992,3.70443707 19.8902249,3.58085257 C17.9537859,2.69782135 14.9133957,3.45926136 13.8375962,5.28312945 C13.0996179,6.53292759 12.5546802,7.9421896 12.1967507,9.34945832 C11.7463225,11.1254873 11.7443117,12.9732749 11.9574607,14.8091028 C12.0821328,15.885484 12.2570759,16.092787 13.3972222,16.1226865 C15.5287127,16.1765056 17.6581924,16.2103916 19.7876721,16.246271 C20.6261924,16.2602241 21.4667236,16.2482643 22.480187,16.2482643 M3.14394851,18.4807586 C3.07759079,18.8794183 2.97704878,19.178413 2.98710298,19.4714279 C3.03134146,20.8129178 3.12987263,22.1544076 3.16405691,23.4958975 C3.20427371,25.0825631 3.14797019,26.671222 3.22840379,28.2539009 C3.30481572,29.7867475 3.73312466,31.279728 3.58633333,32.8504472 C3.49584553,33.8072305 3.70095122,34.8078663 3.88192683,35.7666429 C4.03676152,36.595855 4.3665393,37.3931744 4.57767751,38.2164067 C4.83506504,39.2250157 4.95571545,39.3784997 6.05162331,39.4283321 C7.32046341,39.4881311 8.5933252,39.5519166 9.85814363,39.5040775 C16.5281003,39.2429554 23.1558293,39.5937759 29.7292656,40.7857684 C30.201813,40.8714802 30.7025122,40.7937416 31.2635366,40.7937416 C31.2635366,40.4588674 31.2856558,40.1977453 31.2595149,39.9406098 C31.0343008,37.6204104 30.7185989,35.3022043 30.5899051,32.976025 C30.4612114,30.6398792 30.4953957,28.2917736 30.4933848,25.9496479 C30.491374,24.6500173 30.5778401,23.3503867 30.5939268,22.0487628 C30.6120244,20.4900034 30.5637642,20.4042916 29.1782954,19.9438397 C28.6735745,19.7783959 28.126626,19.692684 27.5937534,19.658798 C26.3329566,19.579066 25.0701491,19.5710928 23.8093523,19.5073073 C20.1898401,19.3239238 16.5723388,19.1305739 12.9548374,18.9392172 C11.7382791,18.8734384 10.5257425,18.7917131 9.30918428,18.7359008 C7.27823577,18.6442091 5.25130894,18.5664704 3.14394851,18.4807586 M21.1570542,0.846047074 C22.1483984,1.17494132 22.6993686,1.93239474 23.1136016,2.78153988 C23.5680515,3.70443707 23.7791897,4.76088526 24.3221165,5.6180036 C25.0359648,6.74621053 24.8630325,8.11560657 25.5386748,9.23783361 C25.7156287,9.53483508 25.5788916,10.0192066 25.5829133,10.415873 C25.5949783,12.0144984 25.6331843,13.6111304 25.6050325,15.2077625 C25.5849241,16.3339761 25.6351951,16.4814802 26.7351247,16.5671921 C28.1024959,16.6748302 29.471878,16.7565554 30.8412602,16.7944281 C31.7320623,16.820341 32.2830325,17.2847795 32.6429729,18.0143267 C33.308561,19.3617965 33.622252,20.7989647 33.610187,22.3019117 C33.5900786,25.1204358 33.509645,27.9409531 33.571981,30.7574838 C33.610187,32.5175664 33.8776287,34.271669 34.0103442,36.0297583 C34.0847453,37.016441 34.0425176,38.0110969 34.1490921,38.9917998 C34.2355583,39.781146 34.3722954,40.5864385 34.6477805,41.3259523 C35.245,42.9425173 35.0016883,43.8853475 33.4814932,44.9936214 C32.6811789,44.5251963 32.0115691,44.1544428 31.1107127,44.790305 C30.7005014,45.0813266 29.9786098,44.9856483 29.3954661,44.9816617 C27.0870217,44.9657153 24.7785772,44.9457823 22.4721436,44.8680436 C20.9318401,44.8162179 19.3935474,44.7145597 17.8653089,44.5291829 C17.2258618,44.4474577 16.632664,44.0308583 15.9891951,43.8813609 C15.2029566,43.6999707 14.3885664,43.5504734 13.5822195,43.5425002 C11.0445393,43.5185806 8.51088076,43.5504734 5.97521138,43.5943259 C5.32973171,43.6062857 4.68425203,43.7378434 4.03877236,43.8155821 C3.99855556,43.915247 3.95431707,44.0169052 3.91410027,44.1165701 C3.36111924,43.628212 2.75786721,43.187693 2.27928726,42.6355494 C2.04401897,42.3644608 1.87108672,41.8521831 1.95755285,41.5232888 C2.19483198,40.6243112 1.84695664,39.8608779 1.63984011,39.0356523 C0.972241192,36.3765922 0.531867209,33.6876326 0.598224932,30.9269142 C0.616322493,30.1754407 0.397140921,29.4179873 0.270457995,28.6665137 C0.0271463415,27.2034327 0.0955149051,25.7323784 0.121655827,24.2573375 C0.141764228,23.0952445 -0.0231246612,21.9291649 0.00301626016,20.7670719 C0.037200542,19.331897 0.139753388,17.8947288 0.300620596,16.4675271 C0.437357724,15.2416486 1.30604065,15.1280306 2.29537398,15.4150655 C2.71161789,15.5346635 3.13389431,15.6821675 3.56019241,15.712067 C5.00397561,15.8157185 6.44775881,15.8795041 7.89355285,15.9452829 C8.38218699,15.9672092 8.87283198,15.9492695 9.50222493,15.9492695 C9.45195393,15.2994542 9.43787805,14.7752167 9.36749864,14.2569591 C9.03369919,11.8091886 9.21668564,9.41922377 10.0692818,7.08905786 C10.4372656,6.08244214 10.746935,5.05390013 11.1772547,4.07519059 C12.2872385,1.55366803 14.3925881,0.463333769 17.0388537,0.198225074 C18.468561,0.0567008826 19.8178347,0.405528114 21.1570542,0.846047074 Z M17.0917084,21.0000818 L16.7911426,21.0067541 C14.9891775,21.0992197 13.485425,21.8882597 12.5421429,23.5546956 C11.6876899,25.0670223 11.9414878,26.5279791 12.6246272,27.919073 C13.2316271,29.1519479 13.5848292,30.4053708 13.724418,31.7409854 C13.7751776,32.2423545 14.0184006,32.8526276 13.8153623,33.2245449 C13.1618327,34.4142692 13.5552194,35.3409802 14.3969825,36.3437185 C14.8453587,36.3848144 15.3381496,36.5820744 15.6871217,36.4402937 C17.1189649,35.8587877 18.4408289,36.4649512 19.7077034,36.8430329 C20.3950727,37.0464573 21.0147625,37.0957723 21.3891144,36.723855 C21.7930761,36.3272802 22.0807137,35.6163223 22.0616788,35.0553642 C21.9876545,33.0437232 21.7655813,31.0382466 21.6281074,29.3923586 C22.2266475,28.4964694 22.8949819,27.9231826 22.9732363,27.2841424 C23.0789854,26.410856 22.8569122,25.4451039 22.5608147,24.5923654 C22.1251283,23.3512713 21.3362399,22.2190811 20.0947452,21.6807257 C19.0816686,21.2430551 17.8845885,20.9512747 16.7911426,21.0067541 Z M18.0347523,24.1485304 C19.0182191,24.1197633 19.9636163,25.0238716 19.8642121,25.9649662 C19.8303724,26.2814041 19.5533097,26.6738693 19.267787,26.8464718 C18.187031,27.5019503 17.8528638,27.9478401 18.4788986,28.7615375 C19.3291215,29.871125 19.155693,31.00537 19.0837836,32.1950943 C19.0520588,32.7437237 19.0795536,33.2944078 19.0795536,34.0074205 C18.3752644,33.9067357 17.8697836,33.7875578 17.3621878,33.7772838 C16.738268,33.7649551 16.5161949,33.4135857 16.4569754,32.9122166 C16.3258464,31.8046839 16.3554562,30.7259183 16.9349614,29.6964677 C17.467937,28.747154 17.3706478,28.4964694 16.5140799,27.7546897 C16.0910834,27.386882 15.6723169,27.0170195 15.2218256,26.6204447 C15.2662402,26.4231847 15.3508395,26.2074316 15.3550695,25.9916785 C15.3825643,24.695105 15.410059,24.6231873 16.626174,24.3129137 C17.0808952,24.1978454 17.5631112,24.1608592 18.0347523,24.1485304 Z" id="Fill-1"></path>
                </g>
            </g>
        </g>
    </g>
</svg>