<?xml version="1.0" encoding="UTF-8"?>
<svg width="73px" height="72px" viewBox="0 0 73 72" version="1.1" xmlns="http://www.w3.org/2000/svg" xmlns:xlink="http://www.w3.org/1999/xlink">
    <!-- Generator: Sketch 58 (84663) - https://sketch.com -->
    <title>try-later copy</title>
    <desc>Created with Sketch.</desc>
    <defs>
        <polygon id="path-1" points="0 0.310157276 72.566811 0.310157276 72.566811 71.6210526 0 71.6210526"></polygon>
    </defs>
    <g id="PL" stroke="none" stroke-width="1" fill="none" fill-rule="evenodd">
        <g id="Maintenance" transform="translate(-1060.000000, -465.000000)">
            <g id="try-later-copy" transform="translate(1060.000000, 465.000000)">
                <g id="Group-20">
                    <g id="Group-3">
                        <g id="Fill-1-Clipped">
                            <mask id="mask-2" fill="white">
                                <use xlink:href="#path-1"></use>
                            </mask>
                            <g id="path-1"></g>
                            <path d="M46.6310641,12.1223346 C46.4725434,12.0384758 46.3272328,11.9413761 46.1863255,11.8310356 C41.6112421,8.03973402 36.2083284,6.5346888 30.4443398,6.84805596 C27.361993,7.02018726 23.8569242,7.45713588 21.3910468,9.07252158 C17.1065846,11.883999 12.9982567,15.2251111 10.8714373,20.2963631 C9.58125498,23.3638306 8.3439129,26.373921 7.5072759,29.6620696 C6.5033115,33.6034343 5.87803543,37.3682541 6.90401658,41.2743098 C8.39234976,46.9502281 9.59006172,52.5246331 14.3280691,56.9823916 C18.2690698,60.6898344 22.5271118,63.1305672 27.5029003,64.6047174 C29.4623921,65.182902 31.5627914,65.4300648 33.6103504,65.5183368 C37.5865778,65.6904684 41.2457638,64.7106444 44.9798068,63.0864312 C49.5945204,61.0870602 54.2444608,59.2289253 58.4232424,56.4174479 C59.8675421,55.4420374 61.0652538,54.091469 62.3466294,52.8821365 C64.345752,51.006347 64.4558358,48.3052102 65.4157662,45.9615767 C67.7979804,40.1179408 66.4593612,34.7112535 64.1035674,29.3089798 C61.4527488,23.2225947 56.8424389,18.7957315 51.7521632,14.8367123 C50.2462166,13.6715161 48.3483716,13.0138863 46.6310641,12.1223346 M72.566811,41.8127717 C72.2101398,43.013277 71.6024766,44.7963805 71.157738,46.62362 C70.6249326,48.8260176 70.2066138,51.0151742 69.3083304,53.1513674 C67.9476942,56.3733117 66.0454458,58.765495 63.0555696,60.7472112 C57.1286567,64.675335 50.6645351,67.5088806 44.107943,69.8613414 C38.9119869,71.7238902 33.1876285,72.3859332 27.5689505,70.4704212 C24.491007,69.419979 21.2985764,68.7137994 18.1942127,67.7428026 C17.273912,67.4515038 16.3404013,66.9262824 15.6314615,66.268653 C12.8221225,63.6602022 9.97315338,61.0738194 7.40159544,58.2446876 C6.13783326,56.8499829 5.31880965,55.0006752 4.52180282,53.2528807 C3.36372108,50.7327024 2.1439924,48.1860424 1.45266604,45.5246281 C0.818583258,43.083895 0.0523998964,40.700539 0.00396301738,38.012643 C-0.110524151,31.6393724 1.76970742,25.6809823 2.93219252,19.5681154 C3.79965299,15.0132572 6.59578194,11.650077 10.0788338,8.89156308 C12.7076354,6.80833338 15.5169743,4.91930303 18.4143804,3.23329932 C19.8939069,2.37264297 21.7697351,2.22257981 23.416589,1.61791356 C26.4284822,0.514507988 29.4139553,-0.324080248 32.606386,0.951456594 C33.0863514,1.14565598 33.7600643,0.894079506 34.3325002,0.79256619 C34.6935751,0.721948236 35.0986835,0.368858452 35.3849015,0.46154452 C37.2034861,1.03531542 38.9516171,1.95776248 40.8098319,2.28437053 C44.7288157,2.96848198 47.5689782,5.61665536 50.8142491,7.4880312 C58.4540659,11.8928263 64.447029,18.0321749 68.709474,25.7869092 C71.3206626,30.5359668 72.2321562,35.721973 72.566811,41.8127717" id="Fill-1" fill="#149F84" fill-rule="nonzero" mask="url(#mask-2)"></path>
                        </g>
                    </g>
                    <path d="M46.5562924,12.2978795 C48.921223,15.0213549 47.2250275,17.6515301 46.3392857,20.2728196 C44.9619572,24.3380398 43.5093406,28.3766027 42.1364408,32.4418229 C41.9238628,33.0771524 41.9681498,33.7968963 41.8884331,34.5344116 C45.3915419,34.7565548 48.7617895,34.9609265 52.1276084,35.1786269 C52.7254841,35.2186126 53.3366459,35.2541555 53.9123781,35.4052129 C56.1533049,35.9783423 56.7113222,36.964658 56.2507365,39.4171187 C55.9407269,41.065421 54.5501122,42.140594 52.7830573,41.9850938 C51.8973155,41.9051223 50.9540005,41.7896078 50.1612616,41.425293 C48.6067847,40.7055491 47.0567365,41.8784651 45.3782558,41.0698639 C44.0850728,40.4389773 42.2958743,40.7766349 40.73254,40.8299493 C40.0726624,40.8521636 39.439357,41.3897501 38.7661932,41.4608359 C36.0026788,41.749622 33.2303069,41.3186643 30.7280863,40.3279057 C28.465016,39.4304473 28.3055825,37.7288305 29.6696249,35.6762276 C29.8910603,35.3430128 30.3870757,35.076441 30.4092193,34.752112 C30.6793705,31.0512066 33.2834514,30.9712351 35.9052472,31.1400639 C37.9690256,25.6353559 40.1612366,20.2994768 41.9415776,14.8258689 C42.6988868,12.4844798 44.0496431,11.9424505 46.1089928,12.0046505 C46.2507115,12.1157221 46.3968589,12.2134651 46.5562924,12.2978795" id="Fill-4" fill="#4DB39F" fill-rule="nonzero"></path>
                    <path d="M36,55.2854151 C36.2888902,54.7783258 36.6280222,53.3937516 37.4067697,53.0101276 C38.5162756,52.4677625 39.9732871,53.0013086 40.517573,54.3109218 C41.3674964,56.3480979 42.0164527,58.4955108 42.5816727,60.638514 C42.7952002,61.4498568 41.0869798,63.4605762 40.3668477,63.5664036 C38.8177263,63.795696 37.0760114,62.8256124 36.8248025,61.441038 C36.4940441,59.6111072 36.3223847,57.7459005 36,55.2854151" id="Fill-6" fill="#4DB39F" fill-rule="nonzero"></path>
                    <path d="M22.4582949,58.2 C19.9961459,58.103697 18.4280985,55.424722 19.5917784,53.7000224 C20.4948659,52.3561575 21.7618841,51.2486728 22.8401975,50.0098657 C23.7073412,49.020571 24.7901476,49.0993644 25.8909259,49.4014057 C27.3601279,49.8085048 28.007116,50.7540254 27.3331701,52.0541162 C26.3042794,54.0502152 25.0192892,55.9281242 23.7208202,57.7753912 C23.4647207,58.1387162 22.6559857,58.1387162 22.4582949,58.2" id="Fill-8" fill="#4DB39F" fill-rule="nonzero"></path>
                    <path d="M58.4143679,48.5906748 C59.102906,50.7744393 58.8990625,51.8055364 57.5627552,52.8231256 C56.4937094,53.6380975 54.3963864,53.6426001 53.1687956,52.4944352 C51.8913765,51.3057469 49.8937103,50.8734967 49.3863665,48.829313 C48.8609033,46.7040824 49.3999561,45.9071209 51.6014657,46.2943451 C53.0691388,46.5554963 54.4733939,47.190364 55.9002983,47.6721429 C56.6522543,47.9287915 57.3996804,48.2169584 58.4143679,48.5906748" id="Fill-10" fill="#4DB39F" fill-rule="nonzero"></path>
                    <path d="M29.1553088,19.1054375 C25.4855195,19.5687128 24.0974195,18.3587998 24.041028,14.8325104 C24.0323524,14.2298028 23.9108936,13.5461345 24.132122,13.037881 C24.4964983,12.1922912 25.0517383,10.8609371 25.6113161,10.8114611 C26.6220263,10.7260025 28.1619497,11.1218105 28.6477847,11.8864396 C30.0141956,14.027401 30.6128137,16.4832097 29.1553088,19.1054375" id="Fill-12" fill="#4DB39F" fill-rule="nonzero"></path>
                    <path d="M9,37.713322 C13.4100713,35.4890339 16.6891211,35.4421619 18.6,37.5045286 C18.1485035,39.5796786 16.2102613,40.5000736 14.6368646,41.6079566 C13.3827079,42.4857407 11.3669359,41.7997055 10.5004276,40.4404184 C9.93947742,39.5583731 9.48798102,38.6166727 9,37.713322" id="Fill-14" fill="#4DB39F" fill-rule="nonzero"></path>
                    <path d="M18.6,25.1753101 C18.3996427,26.2348754 18.224863,27.1339005 17.9818765,28.4182221 C16.9886159,28.5374806 15.8035239,28.8952558 14.6610611,28.7759974 C13.3352927,28.6429784 10.8755873,25.4046532 10.8031177,23.8864016 C10.7391739,22.5241034 11.6684906,22.1066989 12.7043804,22.2167836 C14.9125734,22.4507135 17.035508,22.9782028 18.6,25.1753101" id="Fill-16" fill="#4DB39F" fill-rule="nonzero"></path>
                    <path d="M53.2659155,29.2378996 C51.0229679,25.7222002 51.0229679,25.7222002 53.3991599,23.296674 C54.9314707,21.7336544 55.526629,21.7905712 58.8,23.7957895 C57.3254285,27.9244378 57.107796,30.0215984 53.2659155,29.2378996" id="Fill-18" fill="#4DB39F" fill-rule="nonzero"></path>
                </g>
            </g>
        </g>
    </g>
</svg>