<?xml version="1.0" encoding="UTF-8"?>
<svg width="24px" height="32px" viewBox="0 0 24 32" version="1.1" xmlns="http://www.w3.org/2000/svg" xmlns:xlink="http://www.w3.org/1999/xlink">
    <!-- Generator: Sketch 54.1 (76490) - https://sketchapp.com -->
    <title>Underline</title>
    <desc>Created with Sketch.</desc>
    <g id="PL" stroke="none" stroke-width="1" fill="none" fill-rule="evenodd">
        <g id="Icons" transform="translate(-767.000000, -1995.000000)" fill="#000000">
            <g id="Underline" transform="translate(767.000000, 1995.000000)">
                <path d="M16.8203704,13.4712006 L16.8203704,0 L20,0 L20,13.4712006 C20,16.4080646 19.2392051,18.7330472 17.7175926,20.4462179 C16.19598,22.1487478 14.1234699,23 11.5,23 C8.87653009,23 6.80401995,22.1487478 5.28240741,20.4462179 C3.76079486,18.7330472 3,16.4080646 3,13.4712006 L3,0 L6.19537037,0 L6.19537037,13.4712006 C6.19537037,14.1734941 6.25308584,14.8332146 6.36851852,15.4503817 C6.52592671,16.2378018 6.77252919,16.9188035 7.10833333,17.4934074 C8.0003131,19.0044027 9.46418735,19.759889 11.5,19.759889 C13.5463065,19.759889 15.0101808,19.0044027 15.8916667,17.4934074 C16.2379647,16.9188035 16.4845672,16.2378018 16.6314815,15.4503817 C16.757408,14.8332146 16.8203704,14.1734941 16.8203704,13.4712006 Z" id="U" fill-rule="nonzero"></path>
                <rect id="Line-Copy-6" x="0" y="29" width="24" height="3"></rect>
            </g>
        </g>
    </g>
</svg>