<?xml version="1.0" encoding="UTF-8"?>
<svg width="232px" height="78px" viewBox="0 0 232 78" version="1.1" xmlns="http://www.w3.org/2000/svg" xmlns:xlink="http://www.w3.org/1999/xlink">
    <!-- Generator: Sketch 54.1 (76490) - https://sketchapp.com -->
    <title>CΩNNECTINGVΩICES 2 Copy</title>
    <desc>Created with Sketch.</desc>
    <g id="PL" stroke="none" stroke-width="1" fill="none" fill-rule="evenodd">
        <g id="Icons" transform="translate(-821.000000, -432.000000)" fill="#000000" fill-rule="nonzero">
            <g id="CΩNNECTINGVΩICES-2-Copy" transform="translate(821.000000, 432.000000)">
                <path d="M20.64,26.688 C20.64,27.6 19.488,28.08 19.104,28.656 C18.048,29.904 17.28,30.144 15.648,31.056 C14.064,31.824 11.28,32.352 9.456,32.4 C8.592,32.4 7.728,32.304 6.912,32.112 C4.896,31.392 3.168,29.856 2.064,27.936 C0.816,25.728 0.528,22.848 0.528,20.4 C0.528,17.568 1.104,14.88 2.064,12.384 C2.88,10.272 3.936,8.256 5.136,6.336 C6.528,4.752 8.112,3.264 9.936,2.304 C10.944,1.776 12,1.392 13.2,1.248 C14.88,1.536 16.224,2.4 17.28,3.6 C18.192,4.656 18.864,5.952 19.344,7.248 C19.44,8.016 19.776,8.928 19.776,9.744 C19.776,10.32 19.584,10.848 18.96,11.184 C18.576,11.28 18.24,11.328 17.952,11.328 C15.888,11.328 16.272,8.304 15.264,7.008 C14.64,6.192 13.824,5.04 12.624,5.04 C12.432,5.04 12.24,5.088 12.048,5.136 C9.024,7.056 6.864,9.696 5.52,12.768 C4.464,15.168 3.936,17.808 3.936,20.544 C3.936,22.032 4.08,23.52 4.368,25.008 C5.28,27.072 6.768,28.848 9.216,28.848 C11.376,28.848 14.112,28.704 15.696,27.264 C16.608,26.544 16.512,25.104 17.808,24.768 C18,24.72 18.192,24.672 18.384,24.72 C19.296,24.72 20.112,25.296 20.496,26.16 C20.592,26.352 20.64,26.544 20.64,26.688 Z M48.016,17.04 C48.016,17.808 47.92,18.624 47.728,19.44 C47.152,22.224 45.76,24.672 43.312,26.592 C41.824,27.168 40.096,27.504 38.368,27.504 C35.536,27.504 32.656,26.592 30.736,24.48 C28.912,22.944 29.488,20.4 28.432,18.528 C28.24,19.152 28.096,19.728 28.096,20.304 C28.048,23.232 30.256,25.632 32.08,27.936 C33.616,29.376 36.064,28.56 37.6,30 C37.648,30.144 37.696,30.288 37.648,30.384 C37.648,31.008 36.88,31.296 36.448,31.392 C35.824,31.584 35.248,31.728 34.672,31.728 C31.696,31.776 29.344,29.424 27.28,26.976 C26.128,24.528 24.64,21.888 24.64,19.056 C24.64,18.144 24.784,17.232 25.168,16.272 C26.464,11.712 29.92,7.824 33.904,5.184 C35.008,4.848 36.16,4.656 37.264,4.656 C39.184,4.656 41.056,5.184 42.64,6.384 C45.616,9.408 47.968,12.864 47.968,17.04 L48.016,17.04 Z M34.144,15.312 C35.104,13.872 36.4,12.576 38.128,12.576 L38.272,12.576 C37.84,12.528 37.456,12.528 37.024,12.528 C36.448,12.528 35.824,12.576 35.248,12.576 C35.104,12.528 34.96,12.528 34.816,12.528 C32.848,14.016 32.272,16.368 32.272,18.816 C32.272,19.824 32.368,20.88 32.512,21.888 C33.856,22.992 35.056,24.384 36.832,24.384 C37.12,24.384 37.456,24.336 37.84,24.24 C35.152,23.184 33.232,20.832 32.944,18 C33.232,17.04 33.328,16.032 34.144,15.312 Z M40.144,20.784 L40.144,20.736 L38.752,20.304 C38.272,19.536 37.072,19.152 37.072,18.24 C37.072,18.096 37.12,17.952 37.168,17.808 C37.408,16.512 38.752,16.8 39.424,16.128 C39.232,15.648 38.896,15.456 38.512,15.408 C37.744,15.408 36.832,16.176 36.64,16.8 C36.496,17.088 36.448,17.424 36.448,17.808 C36.448,18.528 36.784,19.248 37.168,19.824 C37.792,20.304 38.512,21.024 39.328,21.024 C39.568,21.024 39.856,20.976 40.144,20.784 Z M36.688,8.592 C38.368,8.592 39.808,9.168 41.2,9.888 C40.576,9.264 39.664,8.496 38.8,8.208 C38.464,8.064 38.128,8.016 37.792,8.016 C36.976,7.968 36.16,8.304 35.536,8.688 C35.92,8.64 36.304,8.592 36.688,8.592 Z M41.104,20.352 L41.104,20.304 L40.96,20.304 C40.816,20.304 40.72,20.448 40.624,20.592 L40.72,20.592 C40.864,20.592 40.96,20.448 41.056,20.352 L41.104,20.352 Z M75.776,1.872 L75.728,1.872 C74.96,5.616 72.944,8.688 72.56,12.672 C71.696,15.648 71.888,19.584 71.6,23.04 C71.696,23.856 71.888,24.864 71.888,25.824 C71.888,26.688 71.696,27.504 71.12,28.128 C70.736,28.464 70.256,28.8 69.776,28.752 C69.536,28.752 69.296,28.704 69.056,28.56 C65.072,23.232 63.536,16.848 60.128,11.28 C59.264,18.192 58.784,25.296 58.016,32.256 C57.488,32.736 56.912,32.928 56.144,32.928 L55.712,32.928 C54.944,32.304 54.752,31.344 54.752,30.384 C54.752,29.28 54.944,28.128 55.04,27.216 C55.664,20.4 56.768,13.296 57.2,6.48 C57.008,5.856 56.912,5.184 56.912,4.512 C56.912,3.312 57.2,2.16 57.728,1.152 C57.92,1.104 58.112,1.104 58.304,1.152 C59.264,1.152 59.936,1.872 60.32,2.592 C60.176,2.976 60.128,3.36 60.128,3.744 C60.128,5.568 61.616,6.768 62.384,8.304 C64.4,12.432 66.032,16.8 68.384,20.496 C68.912,15.696 70.064,11.184 70.688,6.48 C71.84,5.136 72.032,0.48 73.808,0.48 C74.336,0.48 74.96,0.864 75.776,1.872 Z M99.4560001,1.872 L99.4080001,1.872 C98.6400001,5.616 96.6240001,8.688 96.2400001,12.672 C95.3760001,15.648 95.5680001,19.584 95.2800001,23.04 C95.3760001,23.856 95.5680001,24.864 95.5680001,25.824 C95.5680001,26.688 95.3760001,27.504 94.8000001,28.128 C94.4160001,28.464 93.9360001,28.8 93.4560001,28.752 C93.2160001,28.752 92.9760001,28.704 92.7360001,28.56 C88.7520001,23.232 87.2160001,16.848 83.8080001,11.28 C82.9440001,18.192 82.4640001,25.296 81.6960001,32.256 C81.1680001,32.736 80.5920001,32.928 79.8240001,32.928 L79.3920001,32.928 C78.6240001,32.304 78.4320001,31.344 78.4320001,30.384 C78.4320001,29.28 78.6240001,28.128 78.7200001,27.216 C79.3440001,20.4 80.4480001,13.296 80.8800001,6.48 C80.6880001,5.856 80.5920001,5.184 80.5920001,4.512 C80.5920001,3.312 80.8800001,2.16 81.4080001,1.152 C81.6000001,1.104 81.7920001,1.104 81.9840001,1.152 C82.9440001,1.152 83.6160001,1.872 84.0000001,2.592 C83.8560001,2.976 83.8080001,3.36 83.8080001,3.744 C83.8080001,5.568 85.2960001,6.768 86.0640001,8.304 C88.0800001,12.432 89.7120001,16.8 92.0640001,20.496 C92.5920001,15.696 93.7440001,11.184 94.3680001,6.48 C95.5200001,5.136 95.7120001,0.48 97.4880001,0.48 C98.0160001,0.48 98.6400001,0.864 99.4560001,1.872 Z M122.272,23.328 C122.512,23.76 122.704,24.384 122.704,24.912 C122.704,25.248 122.656,25.584 122.512,25.872 C122.032,26.88 121.168,27.024 120.208,27.024 C119.728,27.024 119.248,26.976 118.768,26.976 C116.992,27.024 114.688,28.32 112.768,29.088 C111.136,29.856 107.632,31.584 105.904,32.304 L105.616,32.304 C104.752,32.304 103.984,31.92 103.456,31.104 C103.36,30.432 103.312,29.76 103.312,29.088 C103.312,25.824 103.888,23.088 103.888,19.92 L103.888,19.488 C103.408,19.008 103.168,18.432 103.216,17.712 L103.216,17.28 C104.32,16.272 104.608,15.024 104.608,13.68 C104.608,12 104.224,10.704 104.272,9.024 L104.272,8.304 C103.312,7.872 101.92,8.208 101.488,7.104 L101.488,6.864 C101.488,4.752 103.6,3.888 104.992,2.448 C105.616,2.688 106.192,2.784 106.72,2.784 C109.696,2.784 112.24,0.384 115.36,0.432 L116.08,0.432 C116.848,0.432 117.712,2.84217094e-14 118.48,2.84217094e-14 C119.056,2.84217094e-14 119.536,0.24 119.872,1.152 C119.872,1.296 119.872,1.44 119.824,1.584 C119.824,2.688 119.248,3.6 118.336,4.128 C117.712,4.032 117.088,3.984 116.464,3.984 C113.248,3.984 110.368,5.376 107.728,6.912 L108.256,14.64 C108.496,14.688 108.832,14.352 108.976,14.304 C111.616,13.392 114.784,11.952 117.76,11.664 L118.336,11.664 C119.2,11.664 120.112,11.808 120.496,12.672 C120.544,12.864 120.544,13.056 120.544,13.296 C120.544,14.304 120.064,15.216 119.104,15.6 C118.72,15.504 118.384,15.456 118.048,15.456 C114.832,15.456 111.616,17.088 108.496,18.384 L107.824,19.104 C107.344,21.504 107.296,23.664 107.344,26.208 C107.344,26.784 107.344,27.36 107.392,27.984 C107.488,27.984 107.584,27.984 107.68,27.936 C109.984,26.832 112.432,26.064 114.688,25.008 C116.464,24.432 118.192,23.04 120.112,23.04 C120.88,23.04 121.696,23.232 122.272,23.328 Z M146,26.688 C146,27.6 144.848,28.08 144.464,28.656 C143.408,29.904 142.64,30.144 141.008,31.056 C139.424,31.824 136.64,32.352 134.816,32.4 C133.952,32.4 133.088,32.304 132.272,32.112 C130.256,31.392 128.528,29.856 127.424,27.936 C126.176,25.728 125.888,22.848 125.888,20.4 C125.888,17.568 126.464,14.88 127.424,12.384 C128.24,10.272 129.296,8.256 130.496,6.336 C131.888,4.752 133.472,3.264 135.296,2.304 C136.304,1.776 137.36,1.392 138.56,1.248 C140.24,1.536 141.584,2.4 142.64,3.6 C143.552,4.656 144.224,5.952 144.704,7.248 C144.8,8.016 145.136,8.928 145.136,9.744 C145.136,10.32 144.944,10.848 144.32,11.184 C143.936,11.28 143.6,11.328 143.312,11.328 C141.248,11.328 141.632,8.304 140.624,7.008 C140,6.192 139.184,5.04 137.984,5.04 C137.792,5.04 137.6,5.088 137.408,5.136 C134.384,7.056 132.224,9.696 130.88,12.768 C129.824,15.168 129.296,17.808 129.296,20.544 C129.296,22.032 129.44,23.52 129.728,25.008 C130.64,27.072 132.128,28.848 134.576,28.848 C136.736,28.848 139.472,28.704 141.056,27.264 C141.968,26.544 141.872,25.104 143.168,24.768 C143.36,24.72 143.552,24.672 143.744,24.72 C144.656,24.72 145.472,25.296 145.856,26.16 C145.952,26.352 146,26.544 146,26.688 Z M173.664,5.088 C173.664,5.76 172.8,6.144 172.464,6.384 C171.216,6 169.872,5.904 168.48,5.904 C167.376,5.904 166.272,5.952 165.12,5.952 C164.64,5.952 164.16,5.952 163.68,5.904 L163.2,6.384 C163.152,11.424 161.52,18.72 161.52,23.856 C161.52,25.392 161.664,26.928 162.048,28.512 C161.712,29.424 161.904,30.672 160.704,31.008 C160.56,31.056 160.416,31.056 160.272,31.056 C159.408,31.056 158.736,30.576 158.352,29.856 C158.112,28.416 158.016,26.976 158.016,25.536 C158.016,20.256 159.312,12.768 159.312,7.632 L159.312,6.336 C158.352,6.768 157.248,6.816 156.048,6.816 L154.944,6.816 C154.08,6.816 153.216,6.864 152.4,7.056 C151.296,6.576 149.664,7.152 149.184,5.664 L149.184,5.28 C149.184,3.984 150,3.696 151.104,3.696 C151.968,3.696 152.976,3.888 153.84,3.888 C154.368,3.888 154.848,3.84 155.184,3.648 C159.552,2.976 164.4,2.928 169.008,2.928 L172.176,2.928 L173.616,4.8 C173.664,4.896 173.664,4.992 173.664,5.088 Z M179.968,0.48 C181.072,0.48 181.552,1.536 181.84,2.4 C180.64,12.384 180.4,23.04 180.256,33.12 C179.776,33.696 179.248,33.936 178.672,33.984 C178.144,33.984 177.568,33.744 177.04,33.408 C176.992,31.488 176.992,29.568 176.992,27.648 C176.992,18.912 177.424,10.08 178.384,1.68 C178.48,0.96 179.296,0.96 179.776,0.48 L179.968,0.48 Z M208.688,1.872 L208.64,1.872 C207.872,5.616 205.856,8.688 205.472,12.672 C204.608,15.648 204.8,19.584 204.512,23.04 C204.608,23.856 204.8,24.864 204.8,25.824 C204.8,26.688 204.608,27.504 204.032,28.128 C203.648,28.464 203.168,28.8 202.688,28.752 C202.448,28.752 202.208,28.704 201.968,28.56 C197.984,23.232 196.448,16.848 193.04,11.28 C192.176,18.192 191.696,25.296 190.928,32.256 C190.4,32.736 189.824,32.928 189.056,32.928 L188.624,32.928 C187.856,32.304 187.664,31.344 187.664,30.384 C187.664,29.28 187.856,28.128 187.952,27.216 C188.576,20.4 189.68,13.296 190.112,6.48 C189.92,5.856 189.824,5.184 189.824,4.512 C189.824,3.312 190.112,2.16 190.64,1.152 C190.832,1.104 191.024,1.104 191.216,1.152 C192.176,1.152 192.848,1.872 193.232,2.592 C193.088,2.976 193.04,3.36 193.04,3.744 C193.04,5.568 194.528,6.768 195.296,8.304 C197.312,12.432 198.944,16.8 201.296,20.496 C201.824,15.696 202.976,11.184 203.6,6.48 C204.752,5.136 204.944,0.48 206.72,0.48 C207.248,0.48 207.872,0.864 208.688,1.872 Z M230.736,16.224 C230.736,16.224 231.216,18.432 231.024,19.92 C230.784,21.696 230.592,23.952 230.496,25.152 C230.064,29.568 229.44,32.928 229.104,37.392 C228.624,37.92 228,38.544 227.328,38.544 C227.088,38.544 226.848,38.496 226.608,38.304 C226.032,37.824 225.888,37.152 225.888,36.384 C225.888,35.616 226.08,34.8 226.128,34.176 C226.272,32.736 226.608,31.152 226.608,29.76 L226.608,28.896 C224.352,29.808 221.808,31.152 219.168,31.152 C217.824,31.152 216.48,30.864 215.28,30.048 C212.784,28.368 211.92,25.392 211.536,22.704 C211.776,18.768 213.216,15.168 215.328,11.904 C217.632,8.256 220.8,5.04 224.016,2.208 C225.696,0.864 228.384,0.144 228.384,0.144 C229.008,0.192 229.488,0.816 230.016,1.248 C230.208,1.44 230.256,1.632 230.256,1.824 C230.256,2.304 229.824,2.832 229.824,3.312 C228.384,4.08 226.464,4.56 224.928,5.664 C222.288,8.208 219.216,11.232 217.728,14.688 C218.4,14.784 218.88,14.496 219.792,14.4 C221.088,14.256 222.24,14.544 223.248,14.448 C224.592,14.304 225.648,14.016 227.184,13.968 C228.048,13.968 228.816,14.112 229.44,14.544 C230.016,14.88 230.448,15.408 230.736,16.224 Z M227.04,22.8 C227.04,22.128 227.04,20.64 226.32,19.776 C225.696,18.528 223.008,17.904 221.088,17.856 C219.36,17.808 217.968,18.24 216.576,17.28 C215.76,18.72 215.184,21.36 215.232,23.088 C215.232,25.392 216.768,27.888 219.552,27.6 C220.752,27.6 221.904,27.312 222.96,26.832 C224.4,26.112 225.072,25.776 226.176,24.528 C226.944,23.472 227.04,23.136 227.04,22.8 Z M21.36,47.84 L21.12,49.472 C16.128,57.584 13.872,66.704 9.888,75.2 C9.072,76.304 7.968,76.688 6.864,77.024 C5.088,76.016 4.224,74.144 3.648,72.464 L0.48,51.728 C0.144,51.44 -5.68434189e-14,50.96 -5.68434189e-14,50.48 C-5.68434189e-14,50.144 0.096,49.808 0.24,49.568 C0.576,48.992 1.152,48.656 1.728,48.656 C2.016,48.656 2.304,48.752 2.544,48.896 C4.656,52.496 4.608,59.792 5.472,63.92 C6,66.368 5.952,69.104 6.672,71.552 L7.296,72.272 C10.272,67.088 11.664,61.232 14.304,55.904 C15.696,53.12 17.184,50.384 18.144,47.36 C18.432,46.736 19.056,46.448 19.68,46.448 C20.496,46.448 21.312,46.928 21.36,47.84 Z M48.928,61.04 C48.928,61.808 48.832,62.624 48.64,63.44 C48.064,66.224 46.672,68.672 44.224,70.592 C42.736,71.168 41.008,71.504 39.28,71.504 C36.448,71.504 33.568,70.592 31.648,68.48 C29.824,66.944 30.4,64.4 29.344,62.528 C29.152,63.152 29.008,63.728 29.008,64.304 C28.96,67.232 31.168,69.632 32.992,71.936 C34.528,73.376 36.976,72.56 38.512,74 C38.56,74.144 38.608,74.288 38.56,74.384 C38.56,75.008 37.792,75.296 37.36,75.392 C36.736,75.584 36.16,75.728 35.584,75.728 C32.608,75.776 30.256,73.424 28.192,70.976 C27.04,68.528 25.552,65.888 25.552,63.056 C25.552,62.144 25.696,61.232 26.08,60.272 C27.376,55.712 30.832,51.824 34.816,49.184 C35.92,48.848 37.072,48.656 38.176,48.656 C40.096,48.656 41.968,49.184 43.552,50.384 C46.528,53.408 48.88,56.864 48.88,61.04 L48.928,61.04 Z M35.056,59.312 C36.016,57.872 37.312,56.576 39.04,56.576 L39.184,56.576 C38.752,56.528 38.368,56.528 37.936,56.528 C37.36,56.528 36.736,56.576 36.16,56.576 C36.016,56.528 35.872,56.528 35.728,56.528 C33.76,58.016 33.184,60.368 33.184,62.816 C33.184,63.824 33.28,64.88 33.424,65.888 C34.768,66.992 35.968,68.384 37.744,68.384 C38.032,68.384 38.368,68.336 38.752,68.24 C36.064,67.184 34.144,64.832 33.856,62 C34.144,61.04 34.24,60.032 35.056,59.312 Z M41.056,64.784 L41.056,64.736 L39.664,64.304 C39.184,63.536 37.984,63.152 37.984,62.24 C37.984,62.096 38.032,61.952 38.08,61.808 C38.32,60.512 39.664,60.8 40.336,60.128 C40.144,59.648 39.808,59.456 39.424,59.408 C38.656,59.408 37.744,60.176 37.552,60.8 C37.408,61.088 37.36,61.424 37.36,61.808 C37.36,62.528 37.696,63.248 38.08,63.824 C38.704,64.304 39.424,65.024 40.24,65.024 C40.48,65.024 40.768,64.976 41.056,64.784 Z M37.6,52.592 C39.28,52.592 40.72,53.168 42.112,53.888 C41.488,53.264 40.576,52.496 39.712,52.208 C39.376,52.064 39.04,52.016 38.704,52.016 C37.888,51.968 37.072,52.304 36.448,52.688 C36.832,52.64 37.216,52.592 37.6,52.592 Z M42.016,64.352 L42.016,64.304 L41.872,64.304 C41.728,64.304 41.632,64.448 41.536,64.592 L41.632,64.592 C41.776,64.592 41.872,64.448 41.968,64.352 L42.016,64.352 Z M59.264,44.48 C60.368,44.48 60.848,45.536 61.136,46.4 C59.936,56.384 59.696,67.04 59.552,77.12 C59.072,77.696 58.544,77.936 57.968,77.984 C57.44,77.984 56.864,77.744 56.336,77.408 C56.288,75.488 56.288,73.568 56.288,71.648 C56.288,62.912 56.72,54.08 57.68,45.68 C57.776,44.96 58.592,44.96 59.072,44.48 L59.264,44.48 Z M86.0640001,70.688 C86.0640001,71.6 84.9120001,72.08 84.5280001,72.656 C83.4720001,73.904 82.7040001,74.144 81.0720001,75.056 C79.4880001,75.824 76.7040001,76.352 74.8800001,76.4 C74.0160001,76.4 73.1520001,76.304 72.3360001,76.112 C70.3200001,75.392 68.5920001,73.856 67.4880001,71.936 C66.2400001,69.728 65.9520001,66.848 65.9520001,64.4 C65.9520001,61.568 66.5280001,58.88 67.4880001,56.384 C68.3040001,54.272 69.3600001,52.256 70.5600001,50.336 C71.9520001,48.752 73.5360001,47.264 75.3600001,46.304 C76.3680001,45.776 77.4240001,45.392 78.6240001,45.248 C80.3040001,45.536 81.6480001,46.4 82.7040001,47.6 C83.6160001,48.656 84.2880001,49.952 84.7680001,51.248 C84.8640001,52.016 85.2000001,52.928 85.2000001,53.744 C85.2000001,54.32 85.0080001,54.848 84.3840001,55.184 C84.0000001,55.28 83.6640001,55.328 83.3760001,55.328 C81.3120001,55.328 81.6960001,52.304 80.6880001,51.008 C80.0640001,50.192 79.2480001,49.04 78.0480001,49.04 C77.8560001,49.04 77.6640001,49.088 77.4720001,49.136 C74.4480001,51.056 72.2880001,53.696 70.9440001,56.768 C69.8880001,59.168 69.3600001,61.808 69.3600001,64.544 C69.3600001,66.032 69.5040001,67.52 69.7920001,69.008 C70.7040001,71.072 72.1920001,72.848 74.6400001,72.848 C76.8000001,72.848 79.5360001,72.704 81.1200001,71.264 C82.0320001,70.544 81.9360001,69.104 83.2320001,68.768 C83.4240001,68.72 83.6160001,68.672 83.8080001,68.72 C84.7200001,68.72 85.5360001,69.296 85.9200001,70.16 C86.0160001,70.352 86.0640001,70.544 86.0640001,70.688 Z M109.648,67.328 C109.888,67.76 110.08,68.384 110.08,68.912 C110.08,69.248 110.032,69.584 109.888,69.872 C109.408,70.88 108.544,71.024 107.584,71.024 C107.104,71.024 106.624,70.976 106.144,70.976 C104.368,71.024 102.064,72.32 100.144,73.088 C98.5120001,73.856 95.0080001,75.584 93.2800001,76.304 L92.9920001,76.304 C92.1280001,76.304 91.3600001,75.92 90.8320001,75.104 C90.7360001,74.432 90.6880001,73.76 90.6880001,73.088 C90.6880001,69.824 91.2640001,67.088 91.2640001,63.92 L91.2640001,63.488 C90.7840001,63.008 90.5440001,62.432 90.5920001,61.712 L90.5920001,61.28 C91.6960001,60.272 91.9840001,59.024 91.9840001,57.68 C91.9840001,56 91.6000001,54.704 91.6480001,53.024 L91.6480001,52.304 C90.6880001,51.872 89.2960001,52.208 88.8640001,51.104 L88.8640001,50.864 C88.8640001,48.752 90.9760001,47.888 92.3680001,46.448 C92.9920001,46.688 93.5680001,46.784 94.0960001,46.784 C97.0720001,46.784 99.6160001,44.384 102.736,44.432 L103.456,44.432 C104.224,44.432 105.088,44 105.856,44 C106.432,44 106.912,44.24 107.248,45.152 C107.248,45.296 107.248,45.44 107.2,45.584 C107.2,46.688 106.624,47.6 105.712,48.128 C105.088,48.032 104.464,47.984 103.84,47.984 C100.624,47.984 97.7440001,49.376 95.1040001,50.912 L95.6320001,58.64 C95.8720001,58.688 96.2080001,58.352 96.3520001,58.304 C98.9920001,57.392 102.16,55.952 105.136,55.664 L105.712,55.664 C106.576,55.664 107.488,55.808 107.872,56.672 C107.92,56.864 107.92,57.056 107.92,57.296 C107.92,58.304 107.44,59.216 106.48,59.6 C106.096,59.504 105.76,59.456 105.424,59.456 C102.208,59.456 98.9920001,61.088 95.8720001,62.384 L95.2000001,63.104 C94.7200001,65.504 94.6720001,67.664 94.7200001,70.208 C94.7200001,70.784 94.7200001,71.36 94.7680001,71.984 C94.8640001,71.984 94.9600001,71.984 95.0560001,71.936 C97.3600001,70.832 99.8080001,70.064 102.064,69.008 C103.84,68.432 105.568,67.04 107.488,67.04 C108.256,67.04 109.072,67.232 109.648,67.328 Z M128.96,70.592 C128.96,72.512 126.656,73.136 125.408,73.904 C124.112,74.192 122.816,74.336 121.568,74.336 C118.112,74.336 114.8,73.328 111.776,71.84 C111.104,71.36 110.192,70.592 110.192,69.824 C110.192,69.536 110.288,69.248 110.576,68.96 C111.008,68.336 111.44,68.096 111.872,68.048 C113.024,68.048 114.176,69.632 115.328,69.92 C117.248,70.4 119.408,71.168 121.52,71.168 C122.72,71.168 123.92,70.928 125.024,70.208 C124.352,68.576 122.432,67.424 120.944,66.416 C117.296,63.92 112.064,61.04 112.016,56.096 C112.016,53.024 113.6,50.192 116.144,48.128 C117.104,47.36 118.064,47.168 119.072,47.168 C120.08,47.168 121.136,47.36 122.24,47.36 L122.768,47.36 L125.168,48.512 C126.656,49.76 127.712,51.296 128.384,53.072 C128.192,54.032 127.328,54.368 126.464,54.368 C126.128,54.368 125.792,54.32 125.456,54.224 C124.4,52.736 123.44,50.336 121.232,50.24 C118.976,50.528 116.768,51.872 116,54.176 C115.808,54.8 115.712,55.52 115.712,56.24 C115.712,57.776 116.24,59.36 117.44,60.272 C121.184,63.776 126.704,65.36 128.912,70.112 C128.96,70.256 128.96,70.4 128.96,70.544 L128.96,70.592 Z" id="CΩNNECTINGVΩICES"></path>
            </g>
        </g>
    </g>
</svg>