<?xml version="1.0" encoding="UTF-8"?>
<svg width="1440px" height="15px" viewBox="0 0 1440 15" version="1.1" xmlns="http://www.w3.org/2000/svg" xmlns:xlink="http://www.w3.org/1999/xlink">
    <!-- Generator: Sketch 54.1 (76490) - https://sketchapp.com -->
    <title>Line1-green</title>
    <desc>Created with Sketch.</desc>
    <g id="PL" stroke="none" stroke-width="1" fill="none" fill-rule="evenodd">
        <g id="Icons" transform="translate(0.000000, -2377.000000)" fill="#4DB39F" fill-rule="nonzero">
            <path d="M1434.30806,2378.88455 C1434.31815,2378.88369 1434.32849,2378.8841 1434.40437,2378.88706 C1434.47921,2378.89283 1434.47921,2378.89283 1434.66188,2378.94524 C1434.94339,2379.05068 1434.99444,2379.0698 1435.16909,2379.51439 C1434.81514,2379.59255 1434.45604,2379.6718 1434.09177,2379.75216 C1433.90055,2379.79435 1433.70885,2379.8363 1433.51665,2379.87803 L1433.3072,2379.87803 C1433.31253,2379.89226 1433.31777,2379.90624 1433.32291,2379.91998 C1412.64774,2384.38456 1386.31925,2386.21581 1350.68536,2386.42362 C1339.87393,2386.48667 1330.66214,2386.42522 1312.44231,2386.22116 C1288.33191,2385.95113 1279.31592,2385.91111 1268.42668,2386.13722 C1257.03775,2386.3737 1240.50837,2386.09589 1214.48468,2385.30602 C1201.26342,2384.90473 1144.05089,2382.96344 1131.09877,2382.5483 C1055.76431,2380.13367 993.520863,2378.87803 927.862433,2378.87803 C743.359972,2378.87803 625.914789,2379.61406 458.34055,2382.10712 C407.521535,2382.86317 390.920961,2383.06433 297.043518,2384.13132 C281.736027,2384.3053 270.069986,2384.44136 258.715298,2384.57975 C165.765421,2385.71266 91.9876774,2387.11271 -15.0269739,2390.00036 L-14.9730261,2391.99964 C92.0313331,2389.11226 165.799285,2387.71239 258.739673,2386.57961 C270.093719,2386.44122 281.759258,2386.30517 297.066248,2386.13119 C390.946256,2385.06417 407.548033,2384.86299 458.370301,2384.10689 C625.933737,2381.614 743.369255,2380.87803 927.862433,2380.87803 C993.496165,2380.87803 1055.71979,2382.13327 1131.0347,2384.54727 C1143.9835,2384.96231 1201.19841,2386.90368 1214.424,2387.3051 C1240.48085,2388.09598 1257.03464,2388.37419 1268.46819,2388.13678 C1279.32774,2387.9113 1288.33306,2387.95127 1312.41992,2388.22104 C1330.65078,2388.42522 1339.87073,2388.48672 1350.69702,2388.42358 C1386.90495,2388.21243 1413.56011,2386.32973 1434.52263,2381.7052 C1442.0262,2380.04984 1447.33597,2378.86376 1450.6968,2378.09367 C1452.28332,2377.73014 1453.43756,2377.45886 1454.18899,2377.27326 C1454.55812,2377.18208 1454.83276,2377.11093 1455.01998,2377.05789 C1455.12469,2377.02823 1455.20675,2377.00299 1455.27371,2376.97913 C1456.08648,2376.68958 1456,2376.73302 1456,2376.00613 C1455.69728,2375.19797 1455.69728,2375.19797 1455.34714,2375.0661 C1455.15571,2375.01113 1455.15571,2375.01113 1455.06717,2375.00386 C1454.94459,2374.99903 1454.94459,2374.99903 1454.87713,2375.00316 C1454.80922,2375.00748 1454.73061,2375.01631 1454.6323,2375.02973 C1454.46939,2375.05198 1454.23984,2375.08888 1453.94062,2375.14057 C1453.39375,2375.23505 1452.60888,2375.37989 1451.57994,2375.57555 C1449.9606,2375.88348 1448.34313,2376.19894 1444.46102,2376.9608 C1440.58333,2377.72179 1438.96755,2378.03692 1437.35364,2378.34382 C1436.33485,2378.53755 1435.55943,2378.68064 1435.02611,2378.77278 C1434.74819,2378.82079 1434.53888,2378.85444 1434.40428,2378.87282 C1434.35558,2378.87947 1434.32095,2378.88349 1434.30713,2378.88471 L1434.30806,2378.88455 Z" id="Line1-green"></path>
        </g>
    </g>
</svg>