<?xml version="1.0" encoding="UTF-8"?>
<svg width="1219px" height="36px" viewBox="0 0 1219 36" version="1.1" xmlns="http://www.w3.org/2000/svg" xmlns:xlink="http://www.w3.org/1999/xlink">
    <!-- Generator: Sketch 54.1 (76490) - https://sketchapp.com -->
    <title>Line3-green-popup</title>
    <desc>Created with Sketch.</desc>
    <g id="PL" stroke="none" stroke-width="1" fill="none" fill-rule="evenodd">
        <g id="Icons" transform="translate(-221.000000, -3300.000000)" fill="#4DB39F" fill-rule="nonzero">
            <path d="M222.054612,3335.99851 C280.775933,3332.78683 351.538304,3327.01995 434.343109,3318.69794 C495.005997,3312.60123 563.669627,3309.53858 641.151096,3308.9792 C716.385601,3308.43603 788.970356,3310.03118 895.684429,3313.79333 C906.990145,3314.19191 944.003075,3315.52238 946.064059,3315.59584 C965.187278,3316.27752 979.198828,3316.75704 992.261997,3317.1684 C1024.87482,3318.19537 1049.14198,3318.70296 1069.04675,3318.70296 C1144.19398,3318.70296 1268.52909,3313.13453 1442.06404,3301.99795 L1441.93596,3300.00205 C1268.44075,3311.13608 1144.14036,3316.70296 1069.04675,3316.70296 C1049.16727,3316.70296 1024.91855,3316.19576 992.324946,3315.16939 C979.265084,3314.75813 965.255995,3314.27869 946.135306,3313.59711 C944.074937,3313.52367 907.061437,3312.19318 895.754894,3311.79457 C789.014654,3308.0315 716.406226,3306.43583 641.136657,3306.97925 C563.597816,3307.53905 494.874714,3310.60435 434.143114,3316.70797 C351.36645,3325.02715 280.633414,3330.79164 221.945388,3334.00149 L222.054612,3335.99851 Z" id="Line3-green-popup"></path>
        </g>
    </g>
</svg>