<?xml version="1.0" encoding="UTF-8"?>
<svg width="865px" height="46px" viewBox="0 0 865 46" version="1.1" xmlns="http://www.w3.org/2000/svg" xmlns:xlink="http://www.w3.org/1999/xlink">
    <!-- Generator: Sketch 54.1 (76490) - https://sketchapp.com -->
    <title>Line3-grey-mobile</title>
    <desc>Created with Sketch.</desc>
    <g id="PL" stroke="none" stroke-width="1" fill="none" fill-rule="evenodd">
        <g id="Icons" transform="translate(-478.000000, -3397.000000)" fill="#525252" fill-rule="nonzero">
            <path d="M478.969357,3442.84011 C522.384338,3444.17112 588.774783,3437.19047 678.168572,3421.90236 C715.114467,3415.58387 756.942172,3412.40913 804.146715,3411.82921 C849.993339,3411.26597 894.230817,3412.92029 959.27345,3416.82228 C966.165387,3417.23574 988.729542,3418.61594 989.986328,3418.69218 C1001.64593,3419.39943 1010.18923,3419.89696 1018.15482,3420.3238 C1038.04729,3421.38974 1052.8515,3421.91667 1065,3421.91667 C1117.71592,3421.91667 1210.07878,3414.27534 1342.11497,3398.99337 L1341.88503,3397.00663 C1209.92122,3412.28022 1117.61741,3419.91667 1065,3419.91667 C1052.89453,3419.91667 1038.12165,3419.39086 1018.26184,3418.32666 C1010.30186,3417.90013 1001.76273,3417.40284 990.107422,3416.69585 C988.851677,3416.61967 966.286557,3415.23941 959.393217,3414.82587 C894.306131,3410.92121 850.028425,3409.26538 804.122146,3409.82936 C756.82052,3410.41047 714.892145,3413.59286 677.831428,3419.93098 C588.55855,3435.19842 522.282329,3442.16705 479.030643,3440.84105 L478.969357,3442.84011 Z" id="Line3-grey-mobile"></path>
        </g>
    </g>
</svg>