<?xml version="1.0" encoding="UTF-8"?>
<svg width="752px" height="28px" viewBox="0 0 752 28" version="1.1" xmlns="http://www.w3.org/2000/svg" xmlns:xlink="http://www.w3.org/1999/xlink">
    <!-- Generator: Sketch 54.1 (76490) - https://sketchapp.com -->
    <title>Line2-purple-mobile</title>
    <desc>Created with Sketch.</desc>
    <g id="PL" stroke="none" stroke-width="1" fill="none" fill-rule="evenodd">
        <g id="Icons" transform="translate(-480.000000, -2972.000000)" fill="#A36ECE" fill-rule="nonzero">
            <path d="M1207.90854,2981.27914 C1203.98468,2980.88721 1199.73328,2980.38605 1194.04539,2979.66042 C1192.08695,2979.41057 1181.68086,2978.05534 1178.58825,2977.66297 C1154.27783,2974.57856 1136.36704,2973.10646 1116.2192,2973.10646 C1092.80407,2973.10646 1067.84194,2974.06881 1025.14222,2976.31334 C1022.29926,2976.46278 1019.4943,2976.61124 1015.33841,2976.83194 C961.654994,2979.68277 941.061896,2980.55461 917.945606,2980.55461 C895.883748,2980.55461 863.989199,2979.54645 814.797122,2977.49938 C809.531489,2977.28025 804.017571,2977.04749 797.700483,2976.77821 C711.385555,2973.09882 698.021723,2972.60587 686.900549,2973.10748 C641.487,2975.15579 606.274976,2978.11368 573.206099,2982.48203 C546.741852,2985.97792 527.429642,2989.30539 480.81629,2998.01702 L481.18371,2999.98298 C527.762966,2991.27773 547.050059,2987.95458 573.468021,2984.46481 C606.476694,2980.10441 641.631976,2977.15128 686.990664,2975.10544 C698.016215,2974.60815 711.502017,2975.1056 797.615305,2978.7764 C803.933019,2979.04571 809.447589,2979.27849 814.713966,2979.49765 C863.93433,2981.54589 895.846354,2982.55461 917.945606,2982.55461 C941.111721,2982.55461 961.720807,2981.68209 1015.44447,2978.82913 C1019.60003,2978.60845 1022.40469,2978.46 1025.24721,2978.31058 C1067.91296,2976.06783 1092.84987,2975.10646 1116.2192,2975.10646 C1136.26734,2975.10646 1154.10241,2976.57233 1178.33651,2979.64706 C1181.42496,2980.03891 1191.83014,2981.39402 1193.79229,2981.64434 C1199.49671,2982.37208 1203.7644,2982.87516 1207.70976,2983.26923 C1217.42723,2984.23985 1224.73893,2984.47462 1230.94344,2983.88441 C1231.7031,2983.81214 1232,2983.24069 1232,2982.62742 C1232,2982.41302 1231.97676,2982.26337 1231.90591,2981.89977 C1231.86331,2981.68114 1231.84874,2981.5873 1231.84874,2981.55461 L1229.84874,2981.55461 C1229.84874,2981.69474 1229.85867,2981.80722 1229.88533,2981.96985 C1224.0153,2982.44545 1217.05284,2982.1925 1207.90854,2981.27914 Z" id="Line2-purple-mobile"></path>
        </g>
    </g>
</svg>