<?xml version="1.0" encoding="UTF-8"?>
<svg width="1440px" height="45px" viewBox="0 0 1440 45" version="1.1" xmlns="http://www.w3.org/2000/svg" xmlns:xlink="http://www.w3.org/1999/xlink">
    <!-- Generator: Sketch 54.1 (76490) - https://sketchapp.com -->
    <title>Line3-purple</title>
    <desc>Created with Sketch.</desc>
    <g id="PL" stroke="none" stroke-width="1" fill="none" fill-rule="evenodd">
        <g id="Icons" transform="translate(0.000000, -3211.000000)" fill="#A36ECE" fill-rule="nonzero">
            <path d="M-16.017971,3255.84042 C57.9426942,3257.16978 171.119831,3250.19306 323.529661,3234.91168 C386.611104,3228.58681 458.011884,3225.40957 538.581805,3224.82926 C616.814762,3224.26577 692.292149,3225.92059 803.258786,3229.82346 C815.014995,3230.23694 853.502714,3231.61716 855.645804,3231.69338 C875.530933,3232.40054 890.10072,3232.898 903.68432,3233.32474 C937.596194,3234.39011 962.829887,3234.91667 983.527231,3234.91667 C1073.38852,3234.91667 1230.89687,3227.27693 1456.0677,3211.99771 L1455.9323,3210.00229 C1230.80417,3225.27862 1073.33068,3232.91667 983.527231,3232.91667 C962.855117,3232.91667 937.639824,3232.39049 903.747121,3231.32572 C890.16682,3230.89909 875.599489,3230.40172 855.716884,3229.69464 C853.574407,3229.61845 815.086119,3228.2382 803.329086,3227.82469 C692.336342,3223.92091 616.835339,3222.26557 538.5674,3222.82931 C457.940241,3223.41003 386.480128,3226.58992 323.330131,3232.92166 C170.992181,3248.19583 57.882721,3255.16838 -15.982029,3253.84074 L-16.017971,3255.84042 Z" id="Line3-purple"></path>
        </g>
    </g>
</svg>