<?xml version="1.0" encoding="UTF-8"?>
<svg width="767px" height="17px" viewBox="0 0 767 17" version="1.1" xmlns="http://www.w3.org/2000/svg" xmlns:xlink="http://www.w3.org/1999/xlink">
    <!-- Generator: Sketch 54.1 (76490) - https://sketchapp.com -->
    <title>Line1-grey-mobile</title>
    <desc>Created with Sketch.</desc>
    <g id="PL" stroke="none" stroke-width="1" fill="none" fill-rule="evenodd">
        <g id="Icons" transform="translate(-481.000000, -2500.000000)" fill="#858585" fill-rule="nonzero">
            <path d="M1234.24537,2504.87803 C1234.27017,2504.93315 1234.29349,2504.98498 1234.3155,2505.03371 C1223.69313,2509.4126 1210.12899,2511.21773 1191.77658,2511.42366 C1186.16801,2511.48659 1181.38613,2511.42522 1171.92452,2511.22133 C1159.37716,2510.95094 1154.68378,2510.91086 1149.00351,2511.1378 C1143.11568,2511.37303 1134.54203,2511.09578 1121.04001,2510.30726 C1114.17158,2509.90614 1084.4383,2507.96496 1077.7044,2507.54968 C1038.5373,2505.13421 1006.17375,2503.87803 972.031904,2503.87803 C876.134312,2503.87803 815.08799,2504.61414 727.987404,2507.10742 C701.577626,2507.8634 692.950689,2508.06454 644.161763,2509.13149 C636.205681,2509.30548 630.142161,2509.44155 624.240364,2509.57996 C575.925067,2510.71301 537.573855,2512.11331 481.948151,2515.00135 L482.051849,2516.99865 C537.657794,2514.11165 575.990196,2512.71204 624.287254,2511.57941 C630.187819,2511.44103 636.250372,2511.30498 644.20549,2511.13102 C692.999348,2510.06395 701.628599,2509.86276 728.044631,2509.1066 C815.124442,2506.61392 876.15217,2505.87803 972.031904,2505.87803 C1006.12625,2505.87803 1038.45172,2507.13273 1077.58129,2509.54589 C1084.30882,2509.96078 1114.04668,2511.90226 1120.92341,2512.30386 C1134.48911,2513.09609 1143.10969,2513.37486 1149.08335,2513.1362 C1154.70653,2512.91155 1159.37933,2512.95146 1171.88143,2513.22087 C1181.36427,2513.42521 1186.16187,2513.48679 1191.79902,2513.42354 C1210.7032,2513.21142 1224.63766,2511.31771 1235.6361,2506.64919 C1249.75724,2500.65517 1247,2501.87078 1247,2501.00613 C1246.58572,2500.08533 1246.58572,2500.08533 1246.14888,2500.01283 C1245.93897,2499.99704 1245.93897,2499.99704 1245.84761,2500.00855 C1245.77297,2500.01769 1245.70482,2500.03241 1245.62508,2500.05337 C1245.52268,2500.08027 1245.39101,2500.121 1245.22246,2500.17703 C1244.93017,2500.27418 1244.51672,2500.42099 1243.97599,2500.61883 C1243.13122,2500.92791 1242.28963,2501.24373 1240.26943,2502.00655 C1238.25664,2502.76658 1237.41783,2503.08135 1236.58218,2503.3871 C1236.05865,2503.57865 1235.66118,2503.71977 1235.39206,2503.80923 C1235.26066,2503.85291 1235.16423,2503.88273 1235.11202,2503.89645 L1235.15468,2503.89043 C1235.21798,2503.88164 1235.21798,2503.88164 1235.40985,2503.89602 C1235.72136,2503.94672 1235.80393,2503.96016 1235.98922,2504.32614 C1235.62235,2504.48216 1235.2442,2504.64282 1234.85465,2504.80818 C1234.79962,2504.83153 1234.74452,2504.85482 1234.68934,2504.87803 L1234.24537,2504.87803 Z" id="Line1-grey-mobile"></path>
        </g>
    </g>
</svg>