<?xml version="1.0" encoding="UTF-8"?>
<svg width="1440px" height="28px" viewBox="0 0 1440 28" version="1.1" xmlns="http://www.w3.org/2000/svg" xmlns:xlink="http://www.w3.org/1999/xlink">
    <!-- Generator: Sketch 54.1 (76490) - https://sketchapp.com -->
    <title>Line2-grey</title>
    <desc>Created with Sketch.</desc>
    <g id="PL" stroke="none" stroke-width="1" fill="none" fill-rule="evenodd">
        <g id="Icons" transform="translate(0.000000, -2790.000000)" fill="#525252" fill-rule="nonzero">
            <path d="M1396.43265,2799.27553 C1388.86812,2798.88282 1380.67706,2798.38096 1369.72202,2797.65457 C1365.95138,2797.40455 1345.9307,2796.04937 1339.98342,2795.65718 C1293.26357,2792.57629 1258.85623,2791.10646 1220.16175,2791.10646 C1175.14318,2791.10646 1127.13374,2792.06845 1045.00332,2794.31233 C1039.53377,2794.46176 1034.13723,2794.61022 1026.14153,2794.83091 C922.8264,2797.68252 883.194067,2798.55461 838.683347,2798.55461 C796.210078,2798.55461 734.832701,2797.54625 640.16729,2795.49874 C630.035691,2795.27961 619.426454,2795.04684 607.271938,2794.77755 C441.343552,2791.10129 415.545928,2790.6067 394.21591,2791.10674 C306.878681,2793.15415 239.170473,2796.1103 175.588006,2800.47577 C124.703011,2803.96944 87.5637293,2807.29536 -2.09668175,2816.00468 L-1.90331825,2817.99532 C87.7388503,2809.28776 124.864626,2805.96306 175.725,2802.47107 C239.275741,2798.10778 306.954231,2795.15293 394.262783,2793.10619 C415.543063,2792.60732 441.404137,2793.10313 607.227637,2796.77706 C619.38248,2797.04636 629.992056,2797.27913 640.124042,2797.49828 C734.804167,2799.5461 796.190638,2800.55461 838.683347,2800.55461 C883.219972,2800.55461 922.860641,2799.68234 1026.19671,2796.83015 C1034.19224,2796.60947 1039.58862,2796.46101 1045.05794,2796.31158 C1127.17069,2794.06819 1175.167,2793.10646 1220.16175,2793.10646 C1258.80432,2793.10646 1293.17202,2794.5746 1339.85182,2797.65285 C1345.79689,2798.04489 1365.81709,2799.40004 1369.58969,2799.65019 C1380.55346,2800.37716 1388.75311,2800.87954 1396.32896,2801.27284 C1414.94275,2802.23917 1428.92856,2802.47257 1440.75836,2801.88768 C1441.48301,2801.85185 1442,2801.33467 1442,2800.62742 C1442,2800.33194 1441.94986,2800.16413 1441.79085,2799.73999 C1441.73159,2799.5819 1441.70898,2799.50622 1441.70898,2799.55461 L1439.70898,2799.55461 C1439.70898,2799.69604 1439.72047,2799.80823 1439.74988,2799.93328 C1428.19157,2800.45863 1414.50827,2800.21392 1396.43265,2799.27553 Z" id="Line2-grey"></path>
        </g>
    </g>
</svg>