<?xml version="1.0" encoding="UTF-8"?>
<svg width="767px" height="17px" viewBox="0 0 767 17" version="1.1" xmlns="http://www.w3.org/2000/svg" xmlns:xlink="http://www.w3.org/1999/xlink">
    <!-- Generator: Sketch 54.1 (76490) - https://sketchapp.com -->
    <title>Line1-green-mobile</title>
    <desc>Created with Sketch.</desc>
    <g id="PL" stroke="none" stroke-width="1" fill="none" fill-rule="evenodd">
        <g id="Icons" transform="translate(-481.000000, -2535.000000)" fill="#4DB39F" fill-rule="nonzero">
            <path d="M1234.19633,2539.84917 C1234.2201,2539.90168 1234.24251,2539.95121 1234.26373,2539.99794 C1223.64205,2544.34302 1210.07945,2546.13427 1191.73045,2546.33864 C1186.12215,2546.4011 1181.34051,2546.34019 1171.87944,2546.13781 C1159.33306,2545.86944 1154.64007,2545.82966 1148.96037,2546.0549 C1143.07262,2546.28839 1134.49935,2546.01319 1120.99798,2545.23053 C1114.12997,2544.8324 1084.3986,2542.90567 1077.66517,2542.49348 C1038.50075,2540.09599 1006.13945,2538.84917 972,2538.84917 C876.108717,2538.84917 815.066437,2539.5798 727.971597,2542.05451 C701.563516,2542.80487 692.937132,2543.00452 644.151365,2544.06353 C636.195804,2544.23622 630.132683,2544.37128 624.231275,2544.50865 C575.919189,2545.63328 537.570543,2547.02315 481.948532,2549.88968 L482.051468,2551.88703 C537.653864,2549.02151 575.983838,2547.63231 624.277819,2546.50811 C630.178004,2546.37076 636.240166,2546.23573 644.19477,2546.06306 C692.985433,2545.00394 701.614113,2544.80424 728.028403,2544.05371 C815.10262,2541.57958 876.126443,2540.84917 972,2540.84917 C1006.0923,2540.84917 1038.4158,2542.09454 1077.54296,2544.48974 C1084.27008,2544.90155 1114.00598,2546.82857 1120.88224,2547.22718 C1134.44682,2548.01351 1143.06667,2548.29019 1149.03963,2548.05332 C1154.66265,2547.83033 1159.33522,2547.86995 1171.83667,2548.13735 C1181.31881,2548.34018 1186.11604,2548.4013 1191.75273,2548.33851 C1210.65491,2548.12798 1224.58766,2546.24848 1235.58461,2541.61503 C1249.77437,2535.63633 1246.95026,2536.87222 1246.95026,2536.00608 C1246.53236,2535.08261 1246.53236,2535.08261 1246.09802,2535.01265 C1245.88955,2534.99708 1245.88955,2534.99708 1245.79875,2535.00844 C1245.72449,2535.01746 1245.65659,2535.03202 1245.57711,2535.05275 C1245.47485,2535.07942 1245.34329,2535.11982 1245.17484,2535.1754 C1244.88264,2535.27181 1244.46925,2535.41751 1243.92859,2535.61386 C1243.08391,2535.92064 1242.24237,2536.2341 1240.22233,2536.99124 C1238.20965,2537.74562 1237.37088,2538.05804 1236.53527,2538.36153 C1236.01173,2538.55166 1235.61425,2538.69175 1235.34508,2538.78057 C1235.21359,2538.82395 1235.11708,2538.85358 1235.06472,2538.86724 L1235.10652,2538.86142 C1235.16926,2538.85277 1235.16926,2538.85277 1235.35968,2538.86694 C1235.6693,2538.91579 1235.75142,2538.92874 1235.93794,2539.29545 C1235.57253,2539.4497 1235.19595,2539.60851 1234.80805,2539.77195 C1234.74675,2539.79778 1234.68536,2539.82352 1234.62386,2539.84917 L1234.19633,2539.84917 Z" id="Line1-green-mobile"></path>
        </g>
    </g>
</svg>