<?xml version="1.0" encoding="UTF-8"?>
<svg width="865px" height="46px" viewBox="0 0 865 46" version="1.1" xmlns="http://www.w3.org/2000/svg" xmlns:xlink="http://www.w3.org/1999/xlink">
    <!-- Generator: Sketch 54.1 (76490) - https://sketchapp.com -->
    <title>Line3-green-mobile</title>
    <desc>Created with Sketch.</desc>
    <g id="PL" stroke="none" stroke-width="1" fill="none" fill-rule="evenodd">
        <g id="Icons" transform="translate(-479.000000, -3429.000000)" fill="#4DB39F" fill-rule="nonzero">
            <path d="M479.969357,3474.84011 C523.384338,3476.17112 589.774783,3469.19047 679.168572,3453.90236 C716.114467,3447.58387 757.942172,3444.40913 805.146715,3443.82921 C850.993339,3443.26597 895.230817,3444.92029 960.27345,3448.82228 C967.165387,3449.23574 989.729542,3450.61594 990.986328,3450.69218 C1002.64593,3451.39943 1011.18923,3451.89696 1019.15482,3452.3238 C1039.04729,3453.38974 1053.8515,3453.91667 1066,3453.91667 C1118.71592,3453.91667 1211.07878,3446.27534 1343.11497,3430.99337 L1342.88503,3429.00663 C1210.92122,3444.28022 1118.61741,3451.91667 1066,3451.91667 C1053.89453,3451.91667 1039.12165,3451.39086 1019.26184,3450.32666 C1011.30186,3449.90013 1002.76273,3449.40284 991.107422,3448.69585 C989.851677,3448.61967 967.286557,3447.23941 960.393217,3446.82587 C895.306131,3442.92121 851.028425,3441.26538 805.122146,3441.82936 C757.82052,3442.41047 715.892145,3445.59286 678.831428,3451.93098 C589.55855,3467.19842 523.282329,3474.16705 480.030643,3472.84105 L479.969357,3474.84011 Z" id="Line3-green-mobile"></path>
        </g>
    </g>
</svg>