<?xml version="1.0" encoding="UTF-8"?>
<svg width="172px" height="184px" viewBox="0 0 172 184" version="1.1" xmlns="http://www.w3.org/2000/svg" xmlns:xlink="http://www.w3.org/1999/xlink">
    <!-- Generator: Sketch 59.1 (86144) - https://sketch.com -->
    <title>my-experiences</title>
    <desc>Created with Sketch.</desc>
    <g id="PL" stroke="none" stroke-width="1" fill="none" fill-rule="evenodd">
        <g id="Icons" transform="translate(-478.000000, -1898.000000)" fill-rule="nonzero">
            <g id="my-experiences" transform="translate(473.000000, 1898.000000)">
                <path d="M166,84.167967 C166,89.3876859 165.347022,94.9336372 164.041067,100.479589 C160.123203,119.40107 150.655031,136.038923 134.004106,149.088221 C123.882957,153.00301 112.129363,155.286637 100.37577,155.286637 C81.1129361,155.286637 61.5236137,149.088221 48.4640654,134.733994 C36.0574946,124.294556 39.9753591,107.004237 32.7926075,94.2811724 C31.4866527,98.522194 30.5071866,102.436983 30.5071866,106.351772 C30.1806979,126.251951 45.1991784,142.563572 57.6057492,158.222729 C68.0533878,168.009702 84.7043118,162.46375 95.1519504,172.250723 C95.4784391,173.229421 95.8049278,174.208118 95.4784391,174.860583 C95.4784391,179.101604 90.2546198,181.058999 87.3162215,181.711464 C83.0718683,183.016393 79.1540038,183.995091 75.2361393,183.995091 C54.9938396,184.321323 38.9958929,168.335934 24.9568786,151.69808 C17.1211496,135.060226 6.99999972,117.117443 6.99999972,97.8697291 C6.99999972,91.6713129 7.97946584,85.4728968 10.5913755,78.9482482 C19.4065706,47.9561673 42.9137574,21.5313404 70.01232,3.58855673 C77.5215603,1.30492972 85.3572892,0 92.8665295,0 C105.926078,0 118.659137,3.58855673 129.433265,11.7443675 C149.675564,32.2970106 165.673511,55.7857456 165.673511,84.167967 L166,84.167967 Z M71.6447636,72.4235995 C78.1745377,62.6366266 86.9897328,53.828351 98.7433262,53.828351 L99.722792,53.828351 C96.784394,53.5021186 94.1724843,53.5021186 91.234086,53.5021186 C87.3162215,53.5021186 83.0718683,53.828351 79.1540038,53.828351 C78.1745377,53.5021186 77.1950716,53.5021186 76.2156055,53.5021186 C62.8295685,63.6153239 58.911704,79.600713 58.911704,96.238567 C58.911704,103.089448 59.5646814,110.266561 60.5441476,117.117443 C69.6858313,124.620788 77.848049,134.081529 89.9281311,134.081529 C91.8870634,134.081529 94.1724843,133.755296 96.784394,133.102832 C78.5010264,125.925718 65.4414782,109.940329 63.4825459,90.6926156 C65.4414782,84.167967 66.0944556,77.317086 71.6447636,72.4235995 Z M112.455852,109.614097 L112.455852,109.287864 L102.987679,106.351772 C99.722792,101.132053 91.5605747,98.522194 91.5605747,92.3237778 C91.5605747,91.3450805 91.8870634,90.3663832 92.2135521,89.3876859 C93.8459956,80.5794103 102.987679,82.5368049 107.558521,77.9695509 C106.252566,74.7072266 103.967146,73.4022968 101.355236,73.0760644 C96.1314166,73.0760644 89.9281311,78.2957833 88.6221763,82.5368049 C87.6427102,84.4941995 87.3162215,86.7778265 87.3162215,89.3876859 C87.3162215,94.2811724 89.6016424,99.1746588 92.2135521,103.089448 C96.4579053,106.351772 101.355236,111.245259 106.905544,111.245259 C108.537987,111.245259 110.49692,110.919026 112.455852,109.614097 Z M88.948665,26.7510593 C100.37577,26.7510593 110.170431,30.6658485 119.638603,35.5593349 C115.39425,31.3183133 109.190965,26.0985944 103.314168,24.1411998 C101.028747,23.1625026 98.7433262,22.8362701 96.4579053,22.8362701 C90.9075973,22.5100377 85.3572892,24.7936647 81.1129361,27.4035242 C83.7248457,27.0772917 86.3367554,26.7510593 88.948665,26.7510593 Z M118.985626,106.678005 L118.985626,106.351772 L118.00616,106.351772 C117.026694,106.351772 116.373716,107.33047 115.720739,108.309167 L116.373716,108.309167 C117.353182,108.309167 118.00616,107.33047 118.659137,106.678005 L118.985626,106.678005 Z" id="Ω" fill="#F4FBFA"></path>
                <path d="M22.6773971,43.6592774 C22.3849689,45.8273722 21.98288,47.4207035 21.9975014,49.0067594 C22.0559871,55.9111953 22.2679976,62.8010802 22.3776582,69.6982406 C22.5531151,80.5387142 22.4288331,91.3282594 20.6377101,102.095978 C19.4606864,109.196852 19.2559866,116.465062 18.7881014,123.675069 C18.5687802,127.116373 20.6961957,128.738807 23.7447602,127.603831 C36.9844493,122.671052 50.1217885,123.413151 63.2371956,128.076737 C67.1703556,129.466355 71.1473798,130.761392 75.0878505,132.092806 C75.5191822,130.81232 75.921271,130.201179 75.9066496,129.590038 C75.5630464,115.45377 75.7458141,101.36843 77.6831512,87.3121914 C78.8016893,79.1854739 79.1014282,70.9496241 80.0225772,62.7938047 C80.8340656,55.561972 79.1014282,49.8652667 71.8345862,46.7731853 C70.0361524,46.0092593 68.4351078,44.7724267 66.6659168,43.9284704 C52.3734861,37.1404423 38.0079482,37.8461644 22.6773971,43.6592774 M86.4925523,134.173595 C92.648167,134.159044 97.2685334,131.292502 101.983939,129.3936 C110.859136,125.814061 119.880548,124.991932 129.143213,126.359723 C136.293084,127.421944 143.450265,128.644225 149.978726,132.092806 C151.338517,132.820354 152.983426,133.016792 155.30092,133.693412 C155.30092,130.448546 155.586037,127.843922 155.249745,125.333879 C153.327029,110.651949 152.661755,95.9118154 153.23199,81.135304 C153.575593,72.281038 152.09152,64.7072574 142.792301,60.9531068 C129.654962,49.5669718 103.577673,50.0035009 89.2486886,57.7737196 C88.3348503,82.9905529 82.9468597,108.214662 86.4925523,134.173595 M10.6659067,37.4460127 C24.3296167,31.967572 37.6497236,30.3815161 51.2915015,31.203646 C60.8027304,31.7784093 68.9468572,36.2310066 76.9155271,40.9455213 C80.0298879,42.7789437 82.990724,44.8597326 86.2659204,46.9914499 C91.4053469,45.8128212 96.4643557,44.1831124 101.640336,43.5574206 C118.849738,41.4620808 135.181856,43.5137677 149.371937,54.6670872 C153.239301,57.7155157 157.399093,60.3783435 161.383428,63.2885377 C163.649747,64.9473485 164.651313,67.0135864 164.315021,70.0692904 C163.766718,74.9220393 163.576639,79.8548186 163.6863,84.7366694 C164.051835,101.492113 165.360452,118.189352 167.955753,134.755633 C168.562541,138.633467 169.805361,142.409444 170.755753,146.229074 C171.874291,150.739875 169.059669,154.741392 164.183428,154.996034 C162.801705,155.068789 160.857057,154.130252 160.016326,153.017102 C151.609013,141.994742 139.619455,137.913194 126.642951,135.919711 C122.103003,135.221264 117.489947,135.323121 112.920756,136.814596 C105.090989,139.375567 97.2246691,141.609141 90.1990804,146.280003 C83.612134,150.667121 78.311872,150.354275 73.0481634,145.479699 C62.0747933,135.352223 48.8204828,134.209972 35.1055978,136.079772 C29.0304009,136.909177 22.7212614,138.175112 17.4502421,142.04567 C15.6518084,143.369808 15.4617301,143.107891 9.52543654,142.591331 C7.39802101,135.752375 6.74736816,128.607848 7.08366064,121.412393 C7.40533172,114.515232 7.79279915,107.567143 8.96251216,100.793666 C10.9217814,89.3493273 10.8706065,77.8904374 10.6439746,66.3806191 C10.5050712,59.4834587 10.3369249,52.5790228 10.28575,45.6673115 C10.2638179,43.0626876 10.5196926,40.4507882 10.6659067,37.4460127" id="Fill-14" fill="#4DB39F" transform="translate(89.000000, 93.000000) rotate(-6.000000) translate(-89.000000, -93.000000) "></path>
            </g>
        </g>
    </g>
</svg>