<?xml version="1.0" encoding="UTF-8"?>
<svg width="175px" height="184px" viewBox="0 0 175 184" version="1.1" xmlns="http://www.w3.org/2000/svg" xmlns:xlink="http://www.w3.org/1999/xlink">
    <!-- Generator: Sketch 58 (84663) - https://sketch.com -->
    <title>Group 4</title>
    <desc>Created with Sketch.</desc>
    <g id="Design-Ideas" stroke="none" stroke-width="1" fill="none" fill-rule="evenodd">
        <g id="404-Page" transform="translate(-295.000000, -396.000000)">
            <g id="Group-4" transform="translate(295.000000, 396.000000)">
                <path d="M159,84.167967 C159,89.3876859 158.347023,94.9336372 157.041068,100.479589 C153.123203,119.40107 143.655031,136.038923 127.004107,149.088221 C116.882957,153.00301 105.129363,155.286637 93.37577,155.286637 C74.1129363,155.286637 54.523614,149.088221 41.4640657,134.733994 C29.0574949,124.294556 32.9753593,107.004237 25.7926078,94.2811724 C24.486653,98.522194 23.5071869,102.436983 23.5071869,106.351772 C23.1806982,126.251951 38.1991786,142.563572 50.6057495,158.222729 C61.0533881,168.009702 77.7043121,162.46375 88.1519507,172.250723 C88.4784394,173.229421 88.8049281,174.208118 88.4784394,174.860583 C88.4784394,179.101604 83.2546201,181.058999 80.3162218,181.711464 C76.0718686,183.016393 72.1540041,183.995091 68.2361396,183.995091 C47.9938398,184.321323 31.9958932,168.335934 17.9568789,151.69808 C10.1211499,135.060226 0,117.117443 0,97.8697291 C0,91.6713129 0.979466119,85.4728968 3.59137577,78.9482482 C12.4065708,47.9561673 35.9137577,21.5313404 63.0123203,3.58855673 C70.5215606,1.30492972 78.3572895,0 85.8665298,0 C98.926078,0 111.659138,3.58855673 122.433265,11.7443675 C142.675565,32.2970106 158.673511,55.7857456 158.673511,84.167967 L159,84.167967 Z M64.6447639,72.4235995 C71.174538,62.6366266 79.9897331,53.828351 91.7433265,53.828351 L92.7227926,53.828351 C89.7843943,53.5021186 87.1724846,53.5021186 84.2340862,53.5021186 C80.3162218,53.5021186 76.0718686,53.828351 72.1540041,53.828351 C71.174538,53.5021186 70.1950719,53.5021186 69.2156057,53.5021186 C55.8295688,63.6153239 51.9117043,79.600713 51.9117043,96.238567 C51.9117043,103.089448 52.5646817,110.266561 53.5441478,117.117443 C62.6858316,124.620788 70.8480493,134.081529 82.9281314,134.081529 C84.8870637,134.081529 87.1724846,133.755296 89.7843943,133.102832 C71.5010267,125.925718 58.4414784,109.940329 56.4825462,90.6926156 C58.4414784,84.167967 59.0944559,77.317086 64.6447639,72.4235995 Z M105.455852,109.614097 L105.455852,109.287864 L95.9876797,106.351772 C92.7227926,101.132053 84.5605749,98.522194 84.5605749,92.3237778 C84.5605749,91.3450805 84.8870637,90.3663832 85.2135524,89.3876859 C86.8459959,80.5794103 95.9876797,82.5368049 100.558522,77.9695509 C99.2525667,74.7072266 96.9671458,73.4022968 94.3552361,73.0760644 C89.1314168,73.0760644 82.9281314,78.2957833 81.6221766,82.5368049 C80.6427105,84.4941995 80.3162218,86.7778265 80.3162218,89.3876859 C80.3162218,94.2811724 82.6016427,99.1746588 85.2135524,103.089448 C89.4579055,106.351772 94.3552361,111.245259 99.9055441,111.245259 C101.537988,111.245259 103.49692,110.919026 105.455852,109.614097 Z M81.9486653,26.7510593 C93.37577,26.7510593 103.170431,30.6658485 112.638604,35.5593349 C108.394251,31.3183133 102.190965,26.0985944 96.3141684,24.1411998 C94.0287474,23.1625026 91.7433265,22.8362701 89.4579055,22.8362701 C83.9075975,22.5100377 78.3572895,24.7936647 74.1129363,27.4035242 C76.724846,27.0772917 79.3367556,26.7510593 81.9486653,26.7510593 Z M111.985626,106.678005 L111.985626,106.351772 L111.00616,106.351772 C110.026694,106.351772 109.373717,107.33047 108.720739,108.309167 L109.373717,108.309167 C110.353183,108.309167 111.00616,107.33047 111.659138,106.678005 L111.985626,106.678005 Z" id="Ω" fill="#F4FBFA" fill-rule="nonzero"></path>
                <g id="Group-7" transform="translate(1.000000, 7.000000)">
                    <g id="Group-3-Copy-2" transform="translate(45.000000, 40.000000) scale(-1, 1) translate(-45.000000, -40.000000) translate(0.000000, 14.500000)" fill="#4DB39F">
                        <path d="M6.81103571,4.80270193 C19.5614658,6.02511151 27.6125825,6.66788766 39.5996714,7.93434804 C47.5384198,8.77376042 54.6327196,9.1870338 60.882571,9.17416817 L67.6227933,10.4852038 L75.1119292,15.9915532 L81.1032379,20.1868671 C85.5252362,22.4554522 87.7719769,24.4657068 87.8434602,26.2176308 C87.9149435,27.9695549 86.5419352,30.2420165 83.7244355,33.0350159 L79.8830286,37.4447103 L77.7331267,39.5901938 L74.7374724,43.5233006 C72.2203591,45.2860316 70.0984373,46.1600553 68.3717069,46.1453717 C59.3800741,46.0719537 57.9648869,45.1195348 48.9785185,45.0204205 C45.4776779,44.9873824 25.9923187,43.6099818 22.0218989,43.1926739 C14.0657237,42.3564462 2.43654635,42.6279057 2.23598941,40.1075827 C2.05699906,38.0004863 2.64342893,34.2400149 2.72239526,32.114564 C2.77503948,30.6425332 2.46443859,29.1668316 2.31703477,27.6911299 C1.96958292,24.3249149 2.59559527,21.0668993 2.2902588,17.7006844 C2.14987421,16.163801 2.66118825,12.7617813 3.8242009,7.49462508 L6.81103571,4.80270193 Z" id="Fill-1" transform="translate(45.024152, 25.474128) rotate(-6.000000) translate(-45.024152, -25.474128) "></path>
                    </g>
                    <g id="Group-6" transform="translate(16.000000, 0.500000)">
                        <g id="Group-3" transform="translate(37.000000, 80.500000) scale(-1, 1) translate(-37.000000, -80.500000) translate(0.000000, 64.000000)" fill="#4DB39F">
                            <path d="M5,0.5 C15.7219526,1.50981661 20,1.5 31,1.5 C38.3333333,1.5 45.108704,1.65220321 51.3261121,1.95660964 L56.9940263,3.03963904 L63.2917088,7.58836251 L68.3298548,11.0540566 C72.0483533,12.9281051 73.937658,14.5887502 73.997769,16.0359918 C74.0578799,17.4832334 72.9033048,19.3604844 70.5340436,21.6677447 L67.3037696,25.3105357 L65.4958976,27.0828917 L62.9768247,30.3319799 C60.8601612,31.788149 59.0758179,32.5102187 57.6237946,32.498189 C50.0626488,32.437389 53.562671,32.3004075 46.0059522,32.2185304 C43.0620635,32.1912381 40.1226017,32.0001917 37.178713,31.8819249 C36.7847188,31.8667625 36.3818709,31.8243077 35.9834499,31.8455351 C32.6057249,32.033549 29.2682586,32.4250989 25.850275,32.4459666 C17,32.5 7,32.5 3,31.5 C-1,30.5 2.14422381,28.6796236 1.9405864,26.1656957 C1.79007179,24.4250509 2.35228813,22.6631787 2.41869163,20.9073714 C2.46296064,19.691346 2.20177352,18.4722881 2.07782031,17.2532302 C1.78564489,14.4724439 1.47576186,11.6946901 1.21900165,8.91390385 C1.10095097,7.64430459 2.36128375,4.83966997 5,0.5 Z" id="Fill-1"></path>
                        </g>
                        <path d="M77.6815555,153.237573 C77.6233825,156.116539 78.6923108,159.082747 77.2089001,162.066404 C74.8528949,166.812336 70.9480345,167.885406 67.733978,161.795955 C66.2069376,158.89954 65.8869863,154.773022 65.7488255,151.161227 C65.4725039,143.789328 65.7051958,136.382532 65.6906525,128.993184 C65.6615661,120.173077 65.6979242,111.352971 65.5161336,102.541588 C65.2252688,88.6004103 64.0618095,74.7115774 61.5821867,61.1106412 C58.7826126,45.7823251 60.4571631,30.6546642 57.2794647,15.4397618 C56.7704512,12.9882782 56.2614378,10.5106221 56.0287459,8.01551766 C55.7087946,4.63055086 58.1084295,0.91406669 60.7989293,0.242307814 C63.2640088,-0.377106213 69.456654,0.0406494649 70.0238404,3.27730586 C70.87462,8.18027324 69.0885771,15.8410723 70.1066041,20.6829707 C71.6554593,28.0984908 73.6596509,35.681259 74.6984539,45.6517062 C77.1626733,69.303322 75.3546368,72.4345765 76.2999475,87.5884099 C76.8744056,96.7836547 77.2379866,105.996348 77.8197163,117.529663 C77.8197163,127.893942 77.9869636,140.57012 77.6815555,153.237573 Z" id="Fill-4" fill="#149F84"></path>
                        <g id="Group-3" transform="translate(111.253829, 36.855286) rotate(-3.000000) translate(-111.253829, -36.855286) translate(64.253829, 13.355286)" fill="#149F84">
                            <path d="M3.21280113,0.00137046524 C16.7044379,1.35665065 29.4329227,2.53285478 42.1168438,3.9369739 C50.5170867,4.86762676 58.0237916,5.32582116 64.6369587,5.31155709 L71.7690029,6.76509654 L79.6934965,12.8699623 L86.0330913,17.5212885 C90.7121487,20.0364589 93.0894968,22.2652194 93.1651356,24.20757 C93.2407743,26.1499206 91.7879505,28.669389 88.8066641,31.7659752 L84.7419489,36.6549842 L82.4670692,39.0336725 L79.2972718,43.3942908 C76.633834,45.3486231 74.3885608,46.3176494 72.5614522,46.3013697 C63.0471188,46.2199715 67.4512633,46.0361279 57.9425003,45.9262403 C54.2381492,45.8896111 50.5393685,45.6332067 46.8350173,45.4744802 C46.339247,45.4541307 45.8323358,45.3971519 45.3309951,45.4256413 C41.0807396,45.6779757 29.5309776,46.26165 22.5405709,45.8952983 C19.8017055,45.7517605 3.38903863,46.8616834 2.62031614,43.8499496 C1.77360731,40.5248328 2.75045355,41.1766548 2.49421272,37.802699 C2.30481732,35.4665704 3.01226483,33.1019524 3.09582162,30.7454742 C3.15152615,29.1134401 2.82286943,27.4773361 2.66689675,25.8412321 C2.29924687,22.1091242 1.90931517,18.3810862 1.5862289,14.6489783 C1.43768349,12.9450424 0.926385845,9.05734765 0.0523359562,2.98589396 L3.21280113,0.00137046524 Z" id="Fill-1"></path>
                        </g>
                    </g>
                </g>
            </g>
        </g>
    </g>
</svg>