<?xml version="1.0" encoding="UTF-8"?>
<svg width="104px" height="100px" viewBox="0 0 104 100" version="1.1" xmlns="http://www.w3.org/2000/svg" xmlns:xlink="http://www.w3.org/1999/xlink">
    <!-- Generator: Sketch 58 (84663) - https://sketch.com -->
    <title>page-404</title>
    <desc>Created with Sketch.</desc>
    <g id="PL" stroke="none" stroke-width="1" fill="none" fill-rule="evenodd">
        <g id="404-and-'not-found'" transform="translate(-917.000000, -454.000000)" fill-rule="nonzero">
            <g id="page-404" transform="translate(916.000000, 454.000000)">
                <g id="Group-7">
                    <g id="Group-3-Copy-2" transform="translate(27.000000, 24.200000) scale(-1, 1) translate(-27.000000, -24.200000) translate(0.000000, 8.700000)" fill="#4DB39F">
                        <path d="M4.08662141,2.88162116 C11.7368795,3.61506691 16.5675495,4.0007326 23.7598028,4.76060883 C28.5230519,5.26425625 32.7796317,5.51222028 36.5295426,5.5045009 L40.573676,6.29112228 L45.0671575,9.59493192 L48.6619427,12.1121203 C51.3151417,13.4732713 52.6631861,14.6794241 52.7060761,15.7305785 C52.7489661,16.7817329 51.9251611,18.1452099 50.2346613,19.8210095 L47.9298171,22.4668262 L46.639876,23.7541163 L44.8424834,26.1139804 C43.3322154,27.171619 42.0590624,27.6960332 41.0230241,27.6873322 C35.6280444,27.6431722 34.7789321,27.0717209 29.3871111,27.0122523 C27.2866067,26.9924294 15.5953912,26.1659891 13.2131393,25.9156043 C8.43943421,25.4138677 1.4619278,25.5767434 1.34159363,24.0645496 C1.23419942,22.8002918 1.58605735,20.5440089 1.63343714,19.2687384 C1.66502368,18.3855199 1.47866314,17.500099 1.39022085,16.6146779 C1.18174974,14.5949489 1.55735715,12.6401396 1.37415527,10.6204106 C1.28992451,9.6982806 1.59671294,7.65706878 2.29452053,4.49677505 L4.08662141,2.88162116 Z" id="Fill-1" transform="translate(27.014491, 15.284477) rotate(-6.000000) translate(-27.014491, -15.284477) "></path>
                    </g>
                    <g id="Group-6" transform="translate(8.600000, 0.300000)">
                        <g id="Group-3" transform="translate(22.900000, 48.400000) scale(-1, 1) translate(-22.900000, -48.400000) translate(0.400000, 38.400000)" fill="#4DB39F">
                            <path d="M3,0.3 C9.43317156,0.905889966 12,0.9 18.6,0.9 C23,0.9 27.0652224,0.991321926 30.7956673,1.17396578 L34.1964158,1.82378342 L37.9750253,4.55301751 L40.9979129,6.63243396 C43.229012,7.75686306 44.3625948,8.75325012 44.3986614,9.62159508 C44.4347279,10.48994 43.7419829,11.6162906 42.3204262,13.0006468 L40.3822618,15.1863214 L39.2975386,16.249735 L37.7860948,18.1991879 C36.5160967,19.0728894 35.4454907,19.5061312 34.5742768,19.4990021 C30.0375893,19.4624334 32.1376026,19.3802445 27.6035713,19.3311182 C25.8372381,19.3147429 24.073561,19.200115 22.3072278,19.1291549 C22.0708313,19.1200575 21.8291225,19.0945846 21.5900699,19.1073211 C19.5634349,19.2201294 17.5609552,19.4550593 15.510165,19.46758 C10.2,19.5 4.2,19.5 1.8,18.9 C-0.6,18.3 1.28653429,17.2077742 1.16435184,15.6994174 C1.07404307,14.6550305 1.41137288,13.5979072 1.45121498,12.5444228 C1.47777638,11.8148076 1.32106411,11.0833729 1.24669219,10.3519381 C1.07138693,8.68346634 0.885457116,7.01681406 0.73140099,5.34834231 C0.660570582,4.58658275 1.41677025,2.90380198 3,0.3 Z" id="Fill-1"></path>
                        </g>
                        <path d="M47.6089333,91.9425438 C47.5740295,93.6699234 48.2153865,95.4496482 47.3253401,97.2398424 C45.9117369,100.087402 43.5688207,100.731244 41.6403868,97.077573 C40.7241626,95.339724 40.5321918,92.8638132 40.4492953,90.6967362 C40.2835023,86.2735968 40.4231175,81.8295192 40.4143915,77.3959104 C40.3969397,72.1038462 40.4187545,66.8117826 40.3096802,61.5249528 C40.1351613,53.1602462 39.4370857,44.8269464 37.949312,36.6663847 C36.2695676,27.4693951 37.2742979,18.3927985 35.3676788,9.26385708 C35.0622707,7.79296692 34.7568627,6.30637326 34.6172475,4.8093106 C34.4252768,2.77833052 35.8650577,0.548440014 37.4793576,0.145384688 C38.9584053,-0.226263728 42.6739924,0.0243896789 43.0143042,1.96638352 C43.524772,4.90816394 42.4531463,9.50464338 43.0639625,12.4097824 C43.9932756,16.8590945 45.1957905,21.4087554 45.8190723,27.3910237 C47.297604,41.5819932 46.2127821,43.4607459 46.7799685,52.5530459 C47.1246434,58.0701928 47.342792,63.5978088 47.6918298,70.5177978 C47.6918298,76.7363652 47.7921782,84.342072 47.6089333,91.9425438 Z" id="Fill-4" fill="#149F84"></path>
                        <g id="Group-3" transform="translate(67.547338, 22.023776) rotate(-3.000000) translate(-67.547338, -22.023776) translate(39.547338, 8.023776)" fill="#149F84">
                            <path d="M1.92768068,0.000822279144 C10.0226627,0.81399039 17.6597536,1.51971287 25.2701063,2.36218434 C30.310252,2.92057606 34.814275,3.1954927 38.7821752,3.18693425 L43.0614017,4.05905792 L47.8160979,7.72197738 L51.6198548,10.5127731 C54.4272892,12.0218753 55.8536981,13.3591316 55.8990814,14.524542 C55.9444646,15.6899524 55.0727703,17.2016334 53.2839985,19.0595851 L50.8451693,21.9929905 L49.4802415,23.4202035 L47.5783631,26.0365745 C45.9803004,27.2091739 44.6331365,27.7905896 43.5368713,27.7809429 C37.8282713,27.7319829 40.470758,27.6216767 34.7655002,27.5557442 C32.5428895,27.5337667 30.3236211,27.379924 28.1010104,27.2846881 C27.8035482,27.2724784 27.4994015,27.2382911 27.1985971,27.2553848 C24.6484438,27.4067854 17.7185866,27.75699 13.5243425,27.537179 C11.8810233,27.4510563 2.03342318,28.11701 1.57218968,26.3099698 C1.06416439,24.3148997 1.65027213,24.7059929 1.49652763,22.6816194 C1.38289039,21.2799422 1.8073589,19.8611714 1.85749297,18.4472845 C1.89091569,17.4680641 1.69372166,16.4864017 1.60013805,15.5047393 C1.37954812,13.2654745 1.1455891,11.0286517 0.95173734,8.78938698 C0.862610094,7.76702544 0.555831507,5.43440859 0.0314015737,1.79153638 L1.92768068,0.000822279144 Z" id="Fill-1"></path>
                        </g>
                    </g>
                </g>
            </g>
        </g>
    </g>
</svg>