<?xml version="1.0" encoding="UTF-8"?>
<svg width="159px" height="184px" viewBox="0 0 159 184" version="1.1" xmlns="http://www.w3.org/2000/svg" xmlns:xlink="http://www.w3.org/1999/xlink">
    <!-- Generator: Sketch 59.1 (86144) - https://sketch.com -->
    <title>pencil</title>
    <desc>Created with Sketch.</desc>
    <g id="PL" stroke="none" stroke-width="1" fill="none" fill-rule="evenodd">
        <g id="Icons" transform="translate(-953.000000, -1917.000000)" fill-rule="nonzero">
            <g id="pencil" transform="translate(953.000000, 1917.000000)">
                <path d="M159,84.167967 C159,89.3876859 158.347023,94.9336372 157.041068,100.479589 C153.123203,119.40107 143.655031,136.038923 127.004107,149.088221 C116.882957,153.00301 105.129363,155.286637 93.37577,155.286637 C74.1129363,155.286637 54.523614,149.088221 41.4640657,134.733994 C29.0574949,124.294556 32.9753593,107.004237 25.7926078,94.2811724 C24.486653,98.522194 23.5071869,102.436983 23.5071869,106.351772 C23.1806982,126.251951 38.1991786,142.563572 50.6057495,158.222729 C61.0533881,168.009702 77.7043121,162.46375 88.1519507,172.250723 C88.4784394,173.229421 88.8049281,174.208118 88.4784394,174.860583 C88.4784394,179.101604 83.2546201,181.058999 80.3162218,181.711464 C76.0718686,183.016393 72.1540041,183.995091 68.2361396,183.995091 C47.9938398,184.321323 31.9958932,168.335934 17.9568789,151.69808 C10.1211499,135.060226 0,117.117443 0,97.8697291 C0,91.6713129 0.979466119,85.4728968 3.59137577,78.9482482 C12.4065708,47.9561673 35.9137577,21.5313404 63.0123203,3.58855673 C70.5215606,1.30492972 78.3572895,0 85.8665298,0 C98.926078,0 111.659138,3.58855673 122.433265,11.7443675 C142.675565,32.2970106 158.673511,55.7857456 158.673511,84.167967 L159,84.167967 Z M64.6447639,72.4235995 C71.174538,62.6366266 79.9897331,53.828351 91.7433265,53.828351 L92.7227926,53.828351 C89.7843943,53.5021186 87.1724846,53.5021186 84.2340862,53.5021186 C80.3162218,53.5021186 76.0718686,53.828351 72.1540041,53.828351 C71.174538,53.5021186 70.1950719,53.5021186 69.2156057,53.5021186 C55.8295688,63.6153239 51.9117043,79.600713 51.9117043,96.238567 C51.9117043,103.089448 52.5646817,110.266561 53.5441478,117.117443 C62.6858316,124.620788 70.8480493,134.081529 82.9281314,134.081529 C84.8870637,134.081529 87.1724846,133.755296 89.7843943,133.102832 C71.5010267,125.925718 58.4414784,109.940329 56.4825462,90.6926156 C58.4414784,84.167967 59.0944559,77.317086 64.6447639,72.4235995 Z M105.455852,109.614097 L105.455852,109.287864 L95.9876797,106.351772 C92.7227926,101.132053 84.5605749,98.522194 84.5605749,92.3237778 C84.5605749,91.3450805 84.8870637,90.3663832 85.2135524,89.3876859 C86.8459959,80.5794103 95.9876797,82.5368049 100.558522,77.9695509 C99.2525667,74.7072266 96.9671458,73.4022968 94.3552361,73.0760644 C89.1314168,73.0760644 82.9281314,78.2957833 81.6221766,82.5368049 C80.6427105,84.4941995 80.3162218,86.7778265 80.3162218,89.3876859 C80.3162218,94.2811724 82.6016427,99.1746588 85.2135524,103.089448 C89.4579055,106.351772 94.3552361,111.245259 99.9055441,111.245259 C101.537988,111.245259 103.49692,110.919026 105.455852,109.614097 Z M81.9486653,26.7510593 C93.37577,26.7510593 103.170431,30.6658485 112.638604,35.5593349 C108.394251,31.3183133 102.190965,26.0985944 96.3141684,24.1411998 C94.0287474,23.1625026 91.7433265,22.8362701 89.4579055,22.8362701 C83.9075975,22.5100377 78.3572895,24.7936647 74.1129363,27.4035242 C76.724846,27.0772917 79.3367556,26.7510593 81.9486653,26.7510593 Z M111.985626,106.678005 L111.985626,106.351772 L111.00616,106.351772 C110.026694,106.351772 109.373717,107.33047 108.720739,108.309167 L109.373717,108.309167 C110.353183,108.309167 111.00616,107.33047 111.659138,106.678005 L111.985626,106.678005 Z" id="Ω" fill="#F4FBFA"></path>
                <g id="Fill-10-Clipped" transform="translate(42.000000, 6.000000)" fill="#149F84">
                    <path d="M19.3213042,82.5327969 C18.1287033,86.8768611 17.0296397,90.8569631 16.1702655,94.009345 C18.2163946,95.8996 19.7889909,97.138245 21.0985135,98.623445 C22.9341835,100.713292 24.6529319,101.511661 26.5236785,100.466737 C30.0313283,98.500168 33.4454407,96.369228 37.1050887,94.191326 C30.6393209,91.3559434 26.6581384,84.9396432 19.3213042,82.5327969 M38.2275366,85.790845 C39.238909,86.5833432 40.156744,87.3112675 41.0862712,88.0333214 C43.3077827,89.7650767 43.6585477,89.7592063 45.6286777,87.863081 C47.3883486,86.1665479 49.1012509,84.4171815 50.8726141,82.7382594 C52.1938288,81.4878733 53.754733,80.4605609 54.9122574,79.0868973 C58.373139,75.0128696 61.734636,70.8449161 65.043519,66.6417405 C66.814882,64.3992642 68.31148,61.9395846 70.094535,59.7088489 C73.52034,55.4410994 76.782454,50.9913688 80.605792,47.0993221 C87.819859,39.7496352 94.192089,31.7072461 100.552627,23.6531163 C101.131389,22.9193217 101.388617,21.1582146 100.92093,20.524216 C100.172632,19.5145146 98.752034,19.2209968 97.48928,20.3833275 C95.758839,21.9859349 93.777017,23.336117 92.17519,25.0443909 C86.50449,31.0732475 80.944865,37.213641 75.338471,43.3012011 C75.168935,43.4949229 74.923399,43.6182004 74.724633,43.7884408 C70.451146,47.4985064 66.312119,51.3318495 62.851238,55.8578947 C61.097413,58.1708154 59.220821,60.4309028 57.1279229,62.4268242 C50.3230823,68.9135687 45.2720666,76.8502913 39.2272168,83.9534233 C38.8238371,84.4289222 38.6133781,85.0805318 38.2275366,85.790845 M25.716919,77.1496795 C27.2193624,78.2767881 28.3885789,79.327582 29.7097937,80.1200802 C31.9722278,81.4702623 32.7789873,81.2295776 34.3048149,79.1749527 C36.3158675,76.4745885 38.2918435,73.7390021 40.3905873,71.1090822 C42.3373329,68.6846248 44.4010002,66.354093 46.4529754,64.0235613 C49.3526325,60.7244207 52.2932122,57.4605022 55.2045616,54.1731023 C56.151627,53.0929566 56.9408482,51.8484409 57.9931432,50.8915727 C63.342309,46.0367875 68.399171,40.9647991 72.859732,35.2059789 C75.619083,31.6602832 79.378115,28.860123 82.318694,25.3613902 C85.317735,21.7922132 88.334314,18.2406472 91.596428,14.3720819 C88.813693,12.8634002 86.522028,11.6247549 83.856214,10.180647 C82.704536,11.8360877 81.804239,13.4210841 80.62333,14.7477848 C75.139705,20.9410114 69.01301,26.5882948 64.616755,33.7031675 C64.412142,34.0319075 64.067223,34.2725921 63.798304,34.56611 C54.5790307,44.680735 45.3188353,54.7660083 36.1580232,64.9334666 C32.6386813,68.8255133 29.3356444,72.9054114 25.716919,77.1496795 M0,117.713846 C1.759671,113.152579 3.6479558,108.826126 5.1094765,104.352914 C7.1731438,98.024669 8.950353,91.5907577 10.7860231,85.1861982 C11.6512434,82.1688348 12.2183134,79.0575455 13.2823005,76.1164967 C13.7266028,74.8895921 15.0536637,73.9327239 16.0942664,72.9934668 C17.9416287,71.3497668 19.9585273,69.905659 21.7532748,68.2091258 C27.3538223,62.8788417 31.4460803,56.2394679 36.8127845,50.6919806 C41.3376527,46.0074357 45.6228316,41.0998173 50.0307781,36.3037356 C54.0938058,31.8657457 58.338062,27.5803851 62.219861,22.9780253 C66.651192,17.7299261 70.766834,12.2117906 75.011091,6.7993214 C75.782774,5.8131014 76.595379,4.8386222 77.25014,3.76434685 C79.120887,0.72937229 81.494397,-0.46231018 84.826664,0.15994766 C85.294351,0.24213266 85.715269,0.62957622 86.142033,0.905483 C91.380123,4.3631233 96.600675,7.8383746 101.856304,11.2725334 C104.387658,12.9221037 107.030087,14.3955634 109.526365,16.0862262 C112.431868,18.0586661 112.753402,19.6730143 110.619582,22.5436188 C104.440272,30.8619147 98.559113,39.3798027 91.292432,46.89973 C85.458041,52.9168459 80.687637,59.9436632 75.209858,66.3188709 C67.498874,75.282906 60.799263,85.1392354 51.6033745,92.7883105 C50.0366242,94.09153 48.8615615,95.934822 47.698191,97.666577 C46.5991274,99.304407 45.2603744,100.554793 43.2727062,100.5137 C40.2912039,100.443256 38.0170776,102.004771 35.6844905,103.448879 C30.434708,106.671705 25.290155,110.05303 20.005296,113.223023 C16.1819577,115.512462 12.2943125,117.743198 8.2722074,119.656934 C3.8701069,121.764393 3.7941079,121.588282 0,117.713846" id="Fill-10"></path>
                </g>
            </g>
        </g>
    </g>
</svg>