<?xml version="1.0" encoding="UTF-8"?>
<svg width="33px" height="35px" viewBox="0 0 33 35" version="1.1" xmlns="http://www.w3.org/2000/svg" xmlns:xlink="http://www.w3.org/1999/xlink">
    <!-- Generator: Sketch 59.1 (86144) - https://sketch.com -->
    <title>question-circle-light</title>
    <desc>Created with Sketch.</desc>
    <g id="PL" stroke="none" stroke-width="1" fill="none" fill-rule="evenodd">
        <g id="Icons" transform="translate(-533.000000, -1087.000000)" fill="#FFFFFF" fill-rule="nonzero">
            <g id="question-circle-light" transform="translate(533.000000, 1087.000000)">
                <path d="M19.7035922,0.806671779 C23.0310156,1.49777713 25.6725787,3.22030485 27.9320975,5.67058745 C30.2862178,8.22034733 31.8453222,11.0877364 32.6112299,14.3844486 C33.6300146,18.7736656 32.5621099,22.7998778 30.3917348,26.6672754 C28.6870897,29.7056956 26.2511028,31.9308454 22.8963905,33.1769293 C20.5022466,34.065244 18.0025857,34.4875862 15.8504031,34.5 C11.9571903,34.5137644 8.72072974,33.7895 6.11009406,31.4561468 C3.60861388,29.2187805 1.63289935,26.6323711 0.897918991,23.335659 C0.521332521,21.6480356 -0.119046406,20.007533 0.0192172262,18.2274131 C0.275732648,14.9603697 0.883364925,11.8277078 3.28114738,9.27969315 C3.66501089,8.87131272 4.04523587,8.42977319 4.292655,7.94111284 C5.82810902,4.92014477 8.69526012,3.28836825 11.5496764,1.76828553 C14.0511566,0.436686088 16.8819225,0.222024578 19.7035922,0.806671779 Z M17.3210095,26.2095013 C16.5614879,26.4182349 16.1973337,27.0880797 16.4418372,27.9552726 C16.5979033,28.5112628 16.7496214,28.6498214 17.3245343,28.9175394 C17.835568,28.9175394 18.2188432,28.8729198 18.4743601,28.7836804 C18.8576353,28.6498214 19.049273,28.3821033 19.049273,27.8466672 C19.049273,27.102284 18.767222,26.6763054 17.9712849,26.2398626 C17.8230221,26.1582667 17.5108899,26.1563692 17.3210095,26.2095013 Z M12.4761022,8.3032499 C12.0339281,8.59740129 11.5370778,10.3111352 12.7443949,10.3111352 C12.9693644,10.3111352 17.9761022,8.83868599 17.7078096,11.7835845 C17.4395169,14.728483 16.0980535,14.1930469 15.1590291,15.6654962 C13.7820321,17.8247139 14.650843,17.406899 15.1932472,20.8260887 C15.4001436,22.1306813 15.9332281,23.2075767 16.8987447,24.2994031 C17.8903564,23.5957817 18.037607,23.4203429 17.9574579,22.9126903 C17.7766565,21.7462091 17.68346,20.5479996 17.3367687,19.430044 C16.4569929,16.574498 20.6292629,15.2809497 20.5248827,12.3190206 C20.5076827,11.8126795 20.6510629,9.58336628 19.5858583,8.70482697 C18.3423769,7.67925182 17.4395169,7.50009576 15.797161,7.40688888 C14.1548052,7.31368201 13.2809803,7.7678138 12.4761022,8.3032499 Z" id="Combined-Shape"></path>
            </g>
        </g>
    </g>
</svg>