<?xml version="1.0" encoding="UTF-8"?>
<svg width="159px" height="184px" viewBox="0 0 159 184" version="1.1" xmlns="http://www.w3.org/2000/svg" xmlns:xlink="http://www.w3.org/1999/xlink">
    <!-- Generator: Sketch 58 (84663) - https://sketch.com -->
    <title>resubmitted</title>
    <desc>Created with Sketch.</desc>
    <g id="PL" stroke="none" stroke-width="1" fill="none" fill-rule="evenodd">
        <g id="Icons" transform="translate(-684.000000, -2174.000000)" fill-rule="nonzero">
            <g id="resubmitted" transform="translate(684.000000, 2174.000000)">
                <path d="M159,84.167967 C159,89.3876859 158.347023,94.9336372 157.041068,100.479589 C153.123203,119.40107 143.655031,136.038923 127.004107,149.088221 C116.882957,153.00301 105.129363,155.286637 93.37577,155.286637 C74.1129363,155.286637 54.523614,149.088221 41.4640657,134.733994 C29.0574949,124.294556 32.9753593,107.004237 25.7926078,94.2811724 C24.486653,98.522194 23.5071869,102.436983 23.5071869,106.351772 C23.1806982,126.251951 38.1991786,142.563572 50.6057495,158.222729 C61.0533881,168.009702 77.7043121,162.46375 88.1519507,172.250723 C88.4784394,173.229421 88.8049281,174.208118 88.4784394,174.860583 C88.4784394,179.101604 83.2546201,181.058999 80.3162218,181.711464 C76.0718686,183.016393 72.1540041,183.995091 68.2361396,183.995091 C47.9938398,184.321323 31.9958932,168.335934 17.9568789,151.69808 C10.1211499,135.060226 0,117.117443 0,97.8697291 C0,91.6713129 0.979466119,85.4728968 3.59137577,78.9482482 C12.4065708,47.9561673 35.9137577,21.5313404 63.0123203,3.58855673 C70.5215606,1.30492972 78.3572895,0 85.8665298,0 C98.926078,0 111.659138,3.58855673 122.433265,11.7443675 C142.675565,32.2970106 158.673511,55.7857456 158.673511,84.167967 L159,84.167967 Z M64.6447639,72.4235995 C71.174538,62.6366266 79.9897331,53.828351 91.7433265,53.828351 L92.7227926,53.828351 C89.7843943,53.5021186 87.1724846,53.5021186 84.2340862,53.5021186 C80.3162218,53.5021186 76.0718686,53.828351 72.1540041,53.828351 C71.174538,53.5021186 70.1950719,53.5021186 69.2156057,53.5021186 C55.8295688,63.6153239 51.9117043,79.600713 51.9117043,96.238567 C51.9117043,103.089448 52.5646817,110.266561 53.5441478,117.117443 C62.6858316,124.620788 70.8480493,134.081529 82.9281314,134.081529 C84.8870637,134.081529 87.1724846,133.755296 89.7843943,133.102832 C71.5010267,125.925718 58.4414784,109.940329 56.4825462,90.6926156 C58.4414784,84.167967 59.0944559,77.317086 64.6447639,72.4235995 Z M105.455852,109.614097 L105.455852,109.287864 L95.9876797,106.351772 C92.7227926,101.132053 84.5605749,98.522194 84.5605749,92.3237778 C84.5605749,91.3450805 84.8870637,90.3663832 85.2135524,89.3876859 C86.8459959,80.5794103 95.9876797,82.5368049 100.558522,77.9695509 C99.2525667,74.7072266 96.9671458,73.4022968 94.3552361,73.0760644 C89.1314168,73.0760644 82.9281314,78.2957833 81.6221766,82.5368049 C80.6427105,84.4941995 80.3162218,86.7778265 80.3162218,89.3876859 C80.3162218,94.2811724 82.6016427,99.1746588 85.2135524,103.089448 C89.4579055,106.351772 94.3552361,111.245259 99.9055441,111.245259 C101.537988,111.245259 103.49692,110.919026 105.455852,109.614097 Z M81.9486653,26.7510593 C93.37577,26.7510593 103.170431,30.6658485 112.638604,35.5593349 C108.394251,31.3183133 102.190965,26.0985944 96.3141684,24.1411998 C94.0287474,23.1625026 91.7433265,22.8362701 89.4579055,22.8362701 C83.9075975,22.5100377 78.3572895,24.7936647 74.1129363,27.4035242 C76.724846,27.0772917 79.3367556,26.7510593 81.9486653,26.7510593 Z M111.985626,106.678005 L111.985626,106.351772 L111.00616,106.351772 C110.026694,106.351772 109.373717,107.33047 108.720739,108.309167 L109.373717,108.309167 C110.353183,108.309167 111.00616,107.33047 111.659138,106.678005 L111.985626,106.678005 Z" id="Ω-Copy-4" fill="#FAF5FB"></path>
                <path d="M94.7078551,28.9290351 C104.790956,31.0226778 112.795693,36.2409235 119.64272,43.6638384 C126.776418,51.388111 131.500976,60.0746133 133.821909,70.0617118 C136.909135,83.3584576 133.67306,95.5555122 127.096166,107.271452 C121.930575,116.476078 114.548796,123.216973 104.383002,126.991874 C97.1280199,129.682945 89.5532898,130.962393 83.0315244,131 C71.2339099,131.041698 61.4264537,128.847603 53.5154365,121.778915 C45.9351936,115.001012 39.9481798,107.165712 37.7209666,97.178614 C36.5797955,92.0661078 34.6392533,87.0963499 35.058234,81.7036339 C35.8355535,71.806414 37.6768634,62.3162913 44.9428709,54.5973057 C46.1060936,53.3601532 47.2582905,52.0225482 48.0080455,50.5421948 C52.6609364,41.3904386 61.3492731,36.4471156 69.9990194,31.8421591 C77.5792624,27.8081961 86.157341,27.157898 94.7078551,28.9290351 Z M87.4155028,51.0706305 C85.8447252,51.5160432 84.6191733,51.8029917 83.4410901,52.2184248 C82.8196835,52.4368483 82.185331,52.7709078 81.7149607,53.2206034 C80.6231839,54.2741757 79.6220289,55.4391013 78.582036,56.5526331 C74.8967499,60.4885396 71.2632476,64.4672743 67.5089163,68.3389387 C66.0460217,69.855055 64.3803069,71.1912932 62.7102768,72.488986 C60.6216603,74.1078899 59.3486399,75.4227139 60.9409942,79.0331266 C63.0900252,79.6370034 65.5583902,80.3779304 68.0526471,81.0203525 C69.6493167,81.4315027 71.2718783,81.7312997 72.8944398,82.0096827 C74.0423158,82.2066922 74.6550918,82.8277003 74.6507764,83.9497977 C74.6378305,87.8771386 74.5860466,91.8044795 74.538578,95.7318205 C74.5342627,95.9202643 74.4091183,96.1001425 74.3875417,96.2928692 C74.0595771,99.1752034 73.6539367,102.053255 73.4424859,104.939872 C73.269873,107.184067 74.6550918,108.721597 76.8429607,108.623092 C81.3697349,108.4218 85.6634816,109.732341 90.0305888,110.507531 C93.5518926,111.128539 95.3772744,109.980744 95.411797,106.464554 C95.4376889,104.365975 94.7127146,102.181739 95.0967784,100.181665 C95.9684737,95.6204673 95.9684737,91.007876 96.3525375,86.4209817 C96.559673,83.9497977 96.8185924,83.5771928 99.4379936,83.1360629 C101.319475,82.8148518 103.213902,82.5236204 105.082437,82.1039046 C108.107478,81.4315027 108.625317,79.3629033 106.644584,76.9859412 C103.3261,73.0029237 100.150022,68.908553 96.9480521,64.8355964 C95.9555277,63.5764489 94.9888953,62.2873217 94.1517226,60.9296695 C92.7017739,58.5655559 91.4503302,56.0858063 89.952913,53.760238 C89.2538306,52.6809687 88.1620538,51.8501027 87.4155028,51.0706305 Z" id="Combined-Shape" fill="#603681"></path>
            </g>
        </g>
    </g>
</svg>