<?xml version="1.0" encoding="UTF-8"?>
<svg width="159px" height="184px" viewBox="0 0 159 184" version="1.1" xmlns="http://www.w3.org/2000/svg" xmlns:xlink="http://www.w3.org/1999/xlink">
    <!-- Generator: Sketch 58 (84663) - https://sketch.com -->
    <title>Group 4</title>
    <desc>Created with Sketch.</desc>
    <defs>
        <polygon id="path-1" points="0 0.516928793 120.944685 0.516928793 120.944685 119.368421 0 119.368421"></polygon>
    </defs>
    <g id="PL" stroke="none" stroke-width="1" fill="none" fill-rule="evenodd">
        <g id="Icons" transform="translate(-666.000000, -1655.000000)">
            <g id="Group-4" transform="translate(666.000000, 1655.000000)">
                <path d="M159,84.167967 C159,89.3876859 158.347023,94.9336372 157.041068,100.479589 C153.123203,119.40107 143.655031,136.038923 127.004107,149.088221 C116.882957,153.00301 105.129363,155.286637 93.37577,155.286637 C74.1129363,155.286637 54.523614,149.088221 41.4640657,134.733994 C29.0574949,124.294556 32.9753593,107.004237 25.7926078,94.2811724 C24.486653,98.522194 23.5071869,102.436983 23.5071869,106.351772 C23.1806982,126.251951 38.1991786,142.563572 50.6057495,158.222729 C61.0533881,168.009702 77.7043121,162.46375 88.1519507,172.250723 C88.4784394,173.229421 88.8049281,174.208118 88.4784394,174.860583 C88.4784394,179.101604 83.2546201,181.058999 80.3162218,181.711464 C76.0718686,183.016393 72.1540041,183.995091 68.2361396,183.995091 C47.9938398,184.321323 31.9958932,168.335934 17.9568789,151.69808 C10.1211499,135.060226 0,117.117443 0,97.8697291 C0,91.6713129 0.979466119,85.4728968 3.59137577,78.9482482 C12.4065708,47.9561673 35.9137577,21.5313404 63.0123203,3.58855673 C70.5215606,1.30492972 78.3572895,0 85.8665298,0 C98.926078,0 111.659138,3.58855673 122.433265,11.7443675 C142.675565,32.2970106 158.673511,55.7857456 158.673511,84.167967 L159,84.167967 Z M64.6447639,72.4235995 C71.174538,62.6366266 79.9897331,53.828351 91.7433265,53.828351 L92.7227926,53.828351 C89.7843943,53.5021186 87.1724846,53.5021186 84.2340862,53.5021186 C80.3162218,53.5021186 76.0718686,53.828351 72.1540041,53.828351 C71.174538,53.5021186 70.1950719,53.5021186 69.2156057,53.5021186 C55.8295688,63.6153239 51.9117043,79.600713 51.9117043,96.238567 C51.9117043,103.089448 52.5646817,110.266561 53.5441478,117.117443 C62.6858316,124.620788 70.8480493,134.081529 82.9281314,134.081529 C84.8870637,134.081529 87.1724846,133.755296 89.7843943,133.102832 C71.5010267,125.925718 58.4414784,109.940329 56.4825462,90.6926156 C58.4414784,84.167967 59.0944559,77.317086 64.6447639,72.4235995 Z M105.455852,109.614097 L105.455852,109.287864 L95.9876797,106.351772 C92.7227926,101.132053 84.5605749,98.522194 84.5605749,92.3237778 C84.5605749,91.3450805 84.8870637,90.3663832 85.2135524,89.3876859 C86.8459959,80.5794103 95.9876797,82.5368049 100.558522,77.9695509 C99.2525667,74.7072266 96.9671458,73.4022968 94.3552361,73.0760644 C89.1314168,73.0760644 82.9281314,78.2957833 81.6221766,82.5368049 C80.6427105,84.4941995 80.3162218,86.7778265 80.3162218,89.3876859 C80.3162218,94.2811724 82.6016427,99.1746588 85.2135524,103.089448 C89.4579055,106.351772 94.3552361,111.245259 99.9055441,111.245259 C101.537988,111.245259 103.49692,110.919026 105.455852,109.614097 Z M81.9486653,26.7510593 C93.37577,26.7510593 103.170431,30.6658485 112.638604,35.5593349 C108.394251,31.3183133 102.190965,26.0985944 96.3141684,24.1411998 C94.0287474,23.1625026 91.7433265,22.8362701 89.4579055,22.8362701 C83.9075975,22.5100377 78.3572895,24.7936647 74.1129363,27.4035242 C76.724846,27.0772917 79.3367556,26.7510593 81.9486653,26.7510593 Z M111.985626,106.678005 L111.985626,106.351772 L111.00616,106.351772 C110.026694,106.351772 109.373717,107.33047 108.720739,108.309167 L109.373717,108.309167 C110.353183,108.309167 111.00616,107.33047 111.659138,106.678005 L111.985626,106.678005 Z" id="Ω" fill="#F4FBFA" fill-rule="nonzero"></path>
                <g id="Group-20" transform="translate(34.000000, 30.000000)">
                    <g id="Group-3">
                        <mask id="mask-2" fill="white">
                            <use xlink:href="#path-1"></use>
                        </mask>
                        <g id="Clip-2"></g>
                        <path d="M77.7184401,20.203891 C77.454239,20.0641263 77.2120546,19.9022935 76.9772091,19.7183926 C69.3520701,13.3995567 60.347214,10.891148 50.7405663,11.4134266 C45.6033216,11.7003121 39.7615404,12.4285598 35.6517446,15.1208693 C28.5109744,19.806665 21.6637611,25.3751851 18.1190622,33.8272718 C15.9687583,38.9397176 13.9065215,43.956535 12.5121265,49.4367827 C10.8388525,56.0057238 9.79672572,62.2804235 11.5066943,68.7905164 C13.9872496,78.2503802 15.9834362,87.5410551 23.8801152,94.9706526 C30.4484496,101.149724 37.5451863,105.217612 45.8381671,107.674529 C49.1039869,108.63817 52.6046523,109.050108 56.0172506,109.197228 C62.6442963,109.484114 68.7429397,107.851074 74.9663447,105.144052 C82.657534,101.811767 90.4074347,98.7148755 97.3720707,94.0290799 C99.7792368,92.4033957 101.775423,90.1524483 103.911049,88.1368941 C107.24292,85.0105783 107.426393,80.5086836 109.026277,76.6026279 C112.996634,66.8632347 110.765602,57.8520892 106.839279,48.8482997 C102.421248,38.7043245 94.7373981,31.3262192 86.2536053,24.7278539 C83.7436943,22.7858601 80.5806194,21.6898105 77.7184401,20.203891 M120.944685,69.6879529 C120.350233,71.688795 119.337461,74.6606341 118.59623,77.7060334 C117.708221,81.376696 117.011023,85.0252904 115.513884,88.5856124 C113.246157,93.9555195 110.075743,97.9424916 105.092616,101.245352 C95.2144279,107.792225 84.4408918,112.514801 73.5132384,116.435569 C64.8533115,119.539817 55.3127141,120.643222 45.9482509,117.450702 C40.818345,115.699965 35.4976273,114.522999 30.3236879,112.904671 C28.7898534,112.419173 27.2340022,111.543804 26.0524359,110.447755 C21.3702042,106.100337 16.6219223,101.789699 12.3359924,97.0744793 C10.2297221,94.7499715 8.86468275,91.667792 7.53633804,88.7548012 C5.6062018,84.554504 3.57332066,80.3100706 2.42111006,75.8743802 C1.36430543,71.8064916 0.0873331606,67.8342316 0.00660502896,63.354405 C-0.184206919,52.7322873 2.94951237,42.8016372 4.88698753,32.6135257 C6.33275498,25.0220954 10.9929699,19.416795 16.7980564,14.8192718 C21.1793923,11.3472223 25.8616239,8.19883839 30.690634,5.3888322 C33.1565115,3.95440495 36.2828918,3.70429969 39.0276483,2.6965226 C44.0474703,0.857513313 49.0232588,-0.540133746 54.3439766,1.58576099 C55.143919,1.90942663 56.2667739,1.49013251 57.2208336,1.32094365 C57.8226251,1.20324706 58.4978059,0.614764087 58.9748358,0.769240867 C62.0058101,1.7255257 64.9193618,3.26293746 68.0163865,3.80728421 C74.5480262,4.94746997 79.2816303,9.36109226 84.6904151,12.480052 C97.4234432,19.8213771 107.411715,30.0536248 114.51579,42.978182 C118.867771,50.893278 120.386927,59.5366217 120.944685,69.6879529" id="Fill-1" fill="#149F84" mask="url(#mask-2)"></path>
                    </g>
                    <path d="M77.5938207,20.4964659 C81.5353717,25.0355915 78.7083791,29.4192169 77.2321428,33.7880327 C74.9365953,40.5633996 72.5155676,47.2943379 70.2274013,54.0697048 C69.8731046,55.1285873 69.9469164,56.3281605 69.8140551,57.5573527 C75.6525699,57.9275914 81.2696492,58.2682109 86.8793473,58.6310448 C87.8758068,58.6976877 88.8944099,58.7569259 89.8539635,59.0086882 C93.5888415,59.9639038 94.5188704,61.6077633 93.7512275,65.6951978 C93.2345448,68.4423684 90.9168537,70.2343234 87.9717622,69.9751564 C86.4955258,69.8418705 84.9233341,69.6493464 83.6021026,69.042155 C81.0113078,67.8425819 78.4278942,69.7974418 75.6304263,68.4497732 C73.4751213,67.3982955 70.4931239,67.9610582 67.8875667,68.0499155 C66.7877706,68.0869394 65.7322616,68.9829168 64.610322,69.1013932 C60.0044646,69.5827034 55.3838449,68.8644405 51.2134772,67.2131762 C47.4416933,65.7174121 47.1759708,62.8813842 49.4493748,59.4603793 C49.8184338,58.9050213 50.6451262,58.460735 50.6820321,57.9201866 C51.1322842,51.752011 55.472419,51.6187251 59.8420786,51.9001065 C63.2817093,42.7255932 66.9353943,33.8324614 69.9026293,24.7097815 C71.1648114,20.8074664 73.4160718,19.9040841 76.8483213,20.0077509 C77.0845191,20.1928702 77.3280981,20.3557752 77.5938207,20.4964659" id="Fill-4" fill="#4DB39F"></path>
                    <path d="M60,92.1423585 C60.4814837,91.2972097 61.0467037,88.989586 62.3446162,88.3502126 C64.1937927,87.4462708 66.6221452,88.3355143 67.5292884,90.518203 C68.9458274,93.9134965 70.0274212,97.492518 70.9694545,101.06419 C71.3253337,102.416428 68.4782997,105.767627 67.2780795,105.944006 C64.6962105,106.32616 61.7933523,104.709354 61.3746708,102.40173 C60.8234069,99.3518453 60.5373079,96.2431675 60,92.1423585" id="Fill-6" fill="#4DB39F"></path>
                    <path d="M37.4304915,97 C33.3269099,96.839495 30.7134975,92.3745367 32.652964,89.5000374 C34.1581098,87.2602625 36.2698069,85.4144546 38.0669959,83.3497762 C39.5122354,81.7009517 41.3169127,81.832274 43.1515432,82.3356762 C45.6002132,83.0141747 46.6785266,84.5900424 45.5552835,86.7568604 C43.8404656,90.083692 41.6988154,93.2135403 39.5347003,96.2923187 C39.1078679,96.8978604 37.7599761,96.8978604 37.4304915,97" id="Fill-8" fill="#4DB39F"></path>
                    <path d="M97.3572799,80.984458 C98.5048433,84.6240655 98.1651041,86.3425606 95.9379253,88.0385426 C94.1561823,89.3968291 90.660644,89.4043335 88.6146594,87.4907254 C86.4856275,85.5095782 83.1561839,84.7891611 82.3106109,81.3821883 C81.4348389,77.8401373 82.3332602,76.5118682 86.0024429,77.1572419 C88.4485647,77.5924939 90.7889899,78.6506066 93.1671639,79.4535715 C94.4204238,79.8813192 95.666134,80.3615973 97.3572799,80.984458" id="Fill-10" fill="#4DB39F"></path>
                    <path d="M48.5921813,31.8423959 C42.4758659,32.6145214 40.1623659,30.5979996 40.06838,24.7208507 C40.0539206,23.716338 39.8514894,22.5768908 40.2202034,21.7298017 C40.8274972,20.3204854 41.7528971,18.1015618 42.6855268,18.0191018 C44.3700439,17.8766709 46.9365829,18.5363509 47.7463079,19.8107327 C50.0236594,23.3790017 51.0213562,27.4720161 48.5921813,31.8423959" id="Fill-12" fill="#4DB39F"></path>
                    <path d="M15,62.8555366 C22.3501188,59.1483898 27.8152019,59.0702699 31,62.5075477 C30.2475059,65.966131 27.0171021,67.5001227 24.3947743,69.3465943 C22.3045131,70.8095679 18.9448931,69.6661759 17.5007126,67.4006973 C16.5657957,65.9306219 15.8133017,64.3611211 15,62.8555366" id="Fill-14" fill="#4DB39F"></path>
                    <path d="M31,41.9588501 C30.6660712,43.7247923 30.3747716,45.2231675 29.9697941,47.3637035 C28.3143598,47.5624676 26.3392065,48.1587597 24.4351018,47.9599957 C22.2254878,47.7382973 18.1259788,42.3410887 18.0051961,39.8106694 C17.8986231,37.5401723 19.4474843,36.8444981 21.1739673,37.0279726 C24.854289,37.4178559 28.3925134,38.2970046 31,41.9588501" id="Fill-16" fill="#4DB39F"></path>
                    <path d="M88.7765258,48.7298326 C85.0382799,42.8703336 85.0382799,42.8703336 88.9985999,38.82779 C91.5524511,36.2227574 92.5443817,36.3176186 98,39.6596492 C95.5423809,46.5407296 95.17966,50.0359974 88.7765258,48.7298326" id="Fill-18" fill="#4DB39F"></path>
                </g>
            </g>
        </g>
    </g>
</svg>