<?xml version="1.0" encoding="UTF-8"?>
<svg width="164px" height="184px" viewBox="0 0 164 184" version="1.1" xmlns="http://www.w3.org/2000/svg" xmlns:xlink="http://www.w3.org/1999/xlink">
    <!-- Generator: Sketch 59.1 (86144) - https://sketch.com -->
    <title>writing-guidance</title>
    <desc>Created with Sketch.</desc>
    <g id="PL" stroke="none" stroke-width="1" fill="none" fill-rule="evenodd">
        <g id="Icons" transform="translate(-709.000000, -1905.000000)" fill-rule="nonzero">
            <g id="writing-guidance" transform="translate(709.000000, 1905.000000)">
                <path d="M159,84.167967 C159,89.3876859 158.347023,94.9336372 157.041068,100.479589 C153.123203,119.40107 143.655031,136.038923 127.004107,149.088221 C116.882957,153.00301 105.129363,155.286637 93.37577,155.286637 C74.1129363,155.286637 54.523614,149.088221 41.4640657,134.733994 C29.0574949,124.294556 32.9753593,107.004237 25.7926078,94.2811724 C24.486653,98.522194 23.5071869,102.436983 23.5071869,106.351772 C23.1806982,126.251951 38.1991786,142.563572 50.6057495,158.222729 C61.0533881,168.009702 77.7043121,162.46375 88.1519507,172.250723 C88.4784394,173.229421 88.8049281,174.208118 88.4784394,174.860583 C88.4784394,179.101604 83.2546201,181.058999 80.3162218,181.711464 C76.0718686,183.016393 72.1540041,183.995091 68.2361396,183.995091 C47.9938398,184.321323 31.9958932,168.335934 17.9568789,151.69808 C10.1211499,135.060226 0,117.117443 0,97.8697291 C0,91.6713129 0.979466119,85.4728968 3.59137577,78.9482482 C12.4065708,47.9561673 35.9137577,21.5313404 63.0123203,3.58855673 C70.5215606,1.30492972 78.3572895,0 85.8665298,0 C98.926078,0 111.659138,3.58855673 122.433265,11.7443675 C142.675565,32.2970106 158.673511,55.7857456 158.673511,84.167967 L159,84.167967 Z M64.6447639,72.4235995 C71.174538,62.6366266 79.9897331,53.828351 91.7433265,53.828351 L92.7227926,53.828351 C89.7843943,53.5021186 87.1724846,53.5021186 84.2340862,53.5021186 C80.3162218,53.5021186 76.0718686,53.828351 72.1540041,53.828351 C71.174538,53.5021186 70.1950719,53.5021186 69.2156057,53.5021186 C55.8295688,63.6153239 51.9117043,79.600713 51.9117043,96.238567 C51.9117043,103.089448 52.5646817,110.266561 53.5441478,117.117443 C62.6858316,124.620788 70.8480493,134.081529 82.9281314,134.081529 C84.8870637,134.081529 87.1724846,133.755296 89.7843943,133.102832 C71.5010267,125.925718 58.4414784,109.940329 56.4825462,90.6926156 C58.4414784,84.167967 59.0944559,77.317086 64.6447639,72.4235995 Z M105.455852,109.614097 L105.455852,109.287864 L95.9876797,106.351772 C92.7227926,101.132053 84.5605749,98.522194 84.5605749,92.3237778 C84.5605749,91.3450805 84.8870637,90.3663832 85.2135524,89.3876859 C86.8459959,80.5794103 95.9876797,82.5368049 100.558522,77.9695509 C99.2525667,74.7072266 96.9671458,73.4022968 94.3552361,73.0760644 C89.1314168,73.0760644 82.9281314,78.2957833 81.6221766,82.5368049 C80.6427105,84.4941995 80.3162218,86.7778265 80.3162218,89.3876859 C80.3162218,94.2811724 82.6016427,99.1746588 85.2135524,103.089448 C89.4579055,106.351772 94.3552361,111.245259 99.9055441,111.245259 C101.537988,111.245259 103.49692,110.919026 105.455852,109.614097 Z M81.9486653,26.7510593 C93.37577,26.7510593 103.170431,30.6658485 112.638604,35.5593349 C108.394251,31.3183133 102.190965,26.0985944 96.3141684,24.1411998 C94.0287474,23.1625026 91.7433265,22.8362701 89.4579055,22.8362701 C83.9075975,22.5100377 78.3572895,24.7936647 74.1129363,27.4035242 C76.724846,27.0772917 79.3367556,26.7510593 81.9486653,26.7510593 Z M111.985626,106.678005 L111.985626,106.351772 L111.00616,106.351772 C110.026694,106.351772 109.373717,107.33047 108.720739,108.309167 L109.373717,108.309167 C110.353183,108.309167 111.00616,107.33047 111.659138,106.678005 L111.985626,106.678005 Z" id="Ω" fill="#F4FBFA"></path>
                <path d="M28.9899183,41.4579991 C28.7328738,43.3924292 28.3794376,44.8140406 28.3922899,46.2291606 C28.4436988,52.3894767 28.630056,58.5368099 28.7264477,64.6906346 C28.8806744,74.3627852 28.7714305,83.9894961 27.1970331,93.596733 C26.1624291,99.9323162 25.982498,106.417201 25.5712268,112.850155 C25.3784434,115.920576 27.248442,117.368153 29.9281306,116.355498 C41.565819,111.954345 53.1135418,112.616465 64.6419864,116.777437 C68.0992345,118.01729 71.5950393,119.172755 75.0587135,120.360677 C75.4378541,119.218195 75.7912903,118.672919 75.7784381,118.127644 C75.4764108,105.5149 75.6370636,92.9475953 77.3399832,80.4062565 C78.3231783,73.1553892 78.5866489,65.8071513 79.396339,58.5303186 C80.1096374,52.0778906 78.5866489,46.995143 72.1990938,44.2363081 C70.6182703,43.5547136 69.2109518,42.4511797 67.6558328,41.69818 C55.0927843,35.641726 42.4654746,36.2713895 28.9899183,41.4579991 M85.2545127,121.893706 C90.6098313,121.880757 94.6295004,119.329796 98.7318526,117.639945 C106.453179,114.454481 114.30171,113.72286 122.360129,114.94007 C128.58044,115.88535 134.807111,116.97307 140.486801,120.041993 C141.669805,120.689445 143.100858,120.864257 145.117053,121.466388 C145.117053,118.578751 145.365102,116.260872 145.072532,114.027162 C143.39979,100.961578 142.821008,87.8441969 143.317106,74.6944435 C143.616038,66.8149507 142.32491,60.0749736 134.23469,56.7341205 C122.805346,46.6014941 100.118384,46.9899654 87.6523216,53.9047545 C86.8572921,76.3454465 82.1697982,98.792613 85.2545127,121.893706 M18.2188452,36.7182372 C30.2162491,31.8583301 41.9119527,30.4513451 53.8900992,31.1806538 C62.2414221,31.6905246 69.3923627,35.6404092 76.3892436,39.82264 C79.1238043,41.4490631 81.7235628,43.2949242 84.599345,45.1859637 C89.1120122,44.140406 93.5540687,42.6946966 98.0988316,42.1396475 C113.209527,40.2808782 127.549923,42.1009231 140.009506,51.9949969 C143.40524,54.699248 147.05774,57.0614339 150.556181,59.6430578 C152.546119,61.1145834 153.425544,62.9475364 153.130262,65.6582416 C152.648826,69.9630995 152.481928,74.3389521 152.578215,78.6696262 C152.899173,93.5333261 154.048202,108.345393 156.327002,123.041288 C156.859792,126.481302 157.951049,129.830959 158.785539,133.21934 C159.76767,137.220857 157.296295,140.77059 153.014718,140.996482 C151.801497,141.061023 150.094001,140.228449 149.355798,139.240978 C141.973768,129.463077 131.446351,125.84235 120.052348,124.073937 C116.066051,123.454348 112.015563,123.544704 108.00359,124.867787 C101.128674,127.139616 94.221661,129.121012 88.0528514,133.264519 C82.2691911,137.156317 77.6153025,136.878792 72.9935096,132.554572 C63.3583554,123.570521 51.7204242,122.557233 39.6780862,124.215927 C34.3437669,124.951689 28.8040347,126.074696 24.1758227,129.508256 C22.5967101,130.682895 22.429812,130.450548 17.2174567,129.99231 C15.3494821,123.925494 14.7781772,117.587607 15.0734584,111.204542 C15.3559013,105.086093 15.6961166,98.9224661 16.7231817,92.9137363 C18.4435157,82.7615002 18.3985816,72.5963559 18.1995877,62.3860332 C18.0776238,56.2675845 17.9299831,50.1426817 17.8850491,44.0113248 C17.8657916,41.7007714 18.0904621,39.3837639 18.2188452,36.7182372" id="Fill-14" fill="#149F84" transform="translate(87.000000, 86.000000) rotate(-6.000000) translate(-87.000000, -86.000000) "></path>
                <path d="M124.28453,79.9303748 C127.35733,81.3312807 128.446218,82.6985982 128.446218,85.0879397 C128.446218,86.8065969 127.70638,87.6659255 126.226705,88.0955898 C125.240255,88.3820326 123.760581,88.525254 121.787681,88.525254 C119.568169,87.6659255 118.982445,87.2211764 118.379935,85.4365441 C117.436003,82.653005 118.841859,80.5029189 121.774073,79.8329205 C122.507127,79.6623754 123.712146,79.6684663 124.28453,79.9303748 Z M113.215529,23.0375898 C119.34596,23.3245646 122.71607,23.8761684 127.35762,27.0338128 C131.333715,29.7387485 130.79852,36.6025833 130.862722,38.1615576 C131.252342,47.2810443 115.678487,51.2637517 118.962431,60.0556954 C120.256527,63.4977701 120.604403,67.1869386 121.279281,70.7784189 C121.578454,72.3414311 121.028811,72.8815898 117.327416,75.0479707 C113.723427,71.6863451 111.73358,68.3706905 110.961296,64.353979 C108.936661,53.826632 105.693646,55.1130429 110.83357,48.4650249 C114.338672,43.9314993 119.34596,45.5800541 120.347417,36.5130028 C121.348875,27.4459515 102.660197,31.9794772 101.820452,31.9794772 C97.3138927,31.9794772 99.1684883,26.7030598 100.818994,25.7973967 C103.823367,24.148842 107.085098,22.7506151 113.215529,23.0375898 Z" id="Combined-Shape-Copy" fill="#4DB39F" transform="translate(114.934959, 55.762627) rotate(29.000000) translate(-114.934959, -55.762627) "></path>
            </g>
        </g>
    </g>
</svg>